G04 #@! TF.GenerationSoftware,KiCad,Pcbnew,(5.1.7)-1*
G04 #@! TF.CreationDate,2021-05-21T20:03:00+02:00*
G04 #@! TF.ProjectId,attinyDPS,61747469-6e79-4445-9053-2e6b69636164,rev?*
G04 #@! TF.SameCoordinates,Original*
G04 #@! TF.FileFunction,Legend,Top*
G04 #@! TF.FilePolarity,Positive*
%FSLAX46Y46*%
G04 Gerber Fmt 4.6, Leading zero omitted, Abs format (unit mm)*
G04 Created by KiCad (PCBNEW (5.1.7)-1) date 2021-05-21 20:03:00*
%MOMM*%
%LPD*%
G01*
G04 APERTURE LIST*
%ADD10C,0.150000*%
%ADD11C,0.120000*%
G04 APERTURE END LIST*
D10*
X12861904Y12109523D02*
X12861904Y12604761D01*
X13166666Y12338095D01*
X13166666Y12452380D01*
X13204761Y12528571D01*
X13242857Y12566666D01*
X13319047Y12604761D01*
X13509523Y12604761D01*
X13585714Y12566666D01*
X13623809Y12528571D01*
X13661904Y12452380D01*
X13661904Y12223809D01*
X13623809Y12147619D01*
X13585714Y12109523D01*
X12861904Y12833333D02*
X13661904Y13100000D01*
X12861904Y13366666D01*
X12861904Y13557142D02*
X12861904Y14052380D01*
X13166666Y13785714D01*
X13166666Y13900000D01*
X13204761Y13976190D01*
X13242857Y14014285D01*
X13319047Y14052380D01*
X13509523Y14052380D01*
X13585714Y14014285D01*
X13623809Y13976190D01*
X13661904Y13900000D01*
X13661904Y13671428D01*
X13623809Y13595238D01*
X13585714Y13557142D01*
X14100000Y12490476D02*
X14061904Y12414285D01*
X14061904Y12300000D01*
X14100000Y12185714D01*
X14176190Y12109523D01*
X14252380Y12071428D01*
X14404761Y12033333D01*
X14519047Y12033333D01*
X14671428Y12071428D01*
X14747619Y12109523D01*
X14823809Y12185714D01*
X14861904Y12300000D01*
X14861904Y12376190D01*
X14823809Y12490476D01*
X14785714Y12528571D01*
X14519047Y12528571D01*
X14519047Y12376190D01*
X14861904Y12871428D02*
X14061904Y12871428D01*
X14861904Y13328571D01*
X14061904Y13328571D01*
X14861904Y13709523D02*
X14061904Y13709523D01*
X14061904Y13900000D01*
X14100000Y14014285D01*
X14176190Y14090476D01*
X14252380Y14128571D01*
X14404761Y14166666D01*
X14519047Y14166666D01*
X14671428Y14128571D01*
X14747619Y14090476D01*
X14823809Y14014285D01*
X14861904Y13900000D01*
X14861904Y13709523D01*
X16061904Y12966666D02*
X15680952Y12700000D01*
X16061904Y12509523D02*
X15261904Y12509523D01*
X15261904Y12814285D01*
X15300000Y12890476D01*
X15338095Y12928571D01*
X15414285Y12966666D01*
X15528571Y12966666D01*
X15604761Y12928571D01*
X15642857Y12890476D01*
X15680952Y12814285D01*
X15680952Y12509523D01*
X15261904Y13233333D02*
X16061904Y13766666D01*
X15261904Y13766666D02*
X16061904Y13233333D01*
X16461904Y12490476D02*
X16461904Y12947619D01*
X17261904Y12719047D02*
X16461904Y12719047D01*
X16461904Y13138095D02*
X17261904Y13671428D01*
X16461904Y13671428D02*
X17261904Y13138095D01*
X12990476Y1100000D02*
X12914285Y1138095D01*
X12800000Y1138095D01*
X12685714Y1100000D01*
X12609523Y1023809D01*
X12571428Y947619D01*
X12533333Y795238D01*
X12533333Y680952D01*
X12571428Y528571D01*
X12609523Y452380D01*
X12685714Y376190D01*
X12800000Y338095D01*
X12876190Y338095D01*
X12990476Y376190D01*
X13028571Y414285D01*
X13028571Y680952D01*
X12876190Y680952D01*
X13371428Y338095D02*
X13371428Y1138095D01*
X13828571Y338095D01*
X13828571Y1138095D01*
X14209523Y338095D02*
X14209523Y1138095D01*
X14400000Y1138095D01*
X14514285Y1100000D01*
X14590476Y1023809D01*
X14628571Y947619D01*
X14666666Y795238D01*
X14666666Y680952D01*
X14628571Y528571D01*
X14590476Y452380D01*
X14514285Y376190D01*
X14400000Y338095D01*
X14209523Y338095D01*
X10109523Y1138095D02*
X10604761Y1138095D01*
X10338095Y833333D01*
X10452380Y833333D01*
X10528571Y795238D01*
X10566666Y757142D01*
X10604761Y680952D01*
X10604761Y490476D01*
X10566666Y414285D01*
X10528571Y376190D01*
X10452380Y338095D01*
X10223809Y338095D01*
X10147619Y376190D01*
X10109523Y414285D01*
X10833333Y1138095D02*
X11100000Y338095D01*
X11366666Y1138095D01*
X11557142Y1138095D02*
X12052380Y1138095D01*
X11785714Y833333D01*
X11900000Y833333D01*
X11976190Y795238D01*
X12014285Y757142D01*
X12052380Y680952D01*
X12052380Y490476D01*
X12014285Y414285D01*
X11976190Y376190D01*
X11900000Y338095D01*
X11671428Y338095D01*
X11595238Y376190D01*
X11557142Y414285D01*
X7700000Y566666D02*
X8080952Y566666D01*
X7623809Y338095D02*
X7890476Y1138095D01*
X8157142Y338095D01*
X8423809Y338095D02*
X8423809Y1138095D01*
X8804761Y338095D02*
X8804761Y1138095D01*
X9261904Y338095D01*
X9261904Y1138095D01*
D11*
X7130000Y970000D02*
X7130000Y2300000D01*
X8460000Y970000D02*
X7130000Y970000D01*
X9730000Y970000D02*
X9730000Y3630000D01*
X9730000Y3630000D02*
X14870000Y3630000D01*
X9730000Y970000D02*
X14870000Y970000D01*
X14870000Y970000D02*
X14870000Y3630000D01*
X14650000Y14700000D02*
X14650000Y26700000D01*
X7650000Y26700000D02*
X7650000Y14700000D01*
X6150000Y26700000D02*
X6150000Y14700000D01*
X6150000Y14700000D02*
X14650000Y14700000D01*
X6150000Y26700000D02*
X14650000Y26700000D01*
X13150000Y26700000D02*
X21650000Y26700000D01*
X13150000Y14700000D02*
X21650000Y14700000D01*
X21650000Y14700000D02*
X21650000Y26700000D01*
X14650000Y26700000D02*
X14650000Y14700000D01*
X12330000Y9990000D02*
X12330000Y11640000D01*
X12330000Y11640000D02*
X2050000Y11640000D01*
X2050000Y11640000D02*
X2050000Y6340000D01*
X2050000Y6340000D02*
X12330000Y6340000D01*
X12330000Y6340000D02*
X12330000Y7990000D01*
X12330000Y7990000D02*
G75*
G02*
X12330000Y9990000I0J1000000D01*
G01*
D10*
X5582380Y1966666D02*
X6296666Y1966666D01*
X6439523Y1919047D01*
X6534761Y1823809D01*
X6582380Y1680952D01*
X6582380Y1585714D01*
X5677619Y2395238D02*
X5630000Y2442857D01*
X5582380Y2538095D01*
X5582380Y2776190D01*
X5630000Y2871428D01*
X5677619Y2919047D01*
X5772857Y2966666D01*
X5868095Y2966666D01*
X6010952Y2919047D01*
X6582380Y2347619D01*
X6582380Y2966666D01*
X2338095Y24397619D02*
X2338095Y25397619D01*
X2338095Y24921428D02*
X2909523Y24921428D01*
X2909523Y24397619D02*
X2909523Y25397619D01*
X3338095Y25302380D02*
X3385714Y25350000D01*
X3480952Y25397619D01*
X3719047Y25397619D01*
X3814285Y25350000D01*
X3861904Y25302380D01*
X3909523Y25207142D01*
X3909523Y25111904D01*
X3861904Y24969047D01*
X3290476Y24397619D01*
X3909523Y24397619D01*
X20633333Y14438095D02*
X20633333Y13866666D01*
X20595238Y13752380D01*
X20519047Y13676190D01*
X20404761Y13638095D01*
X20328571Y13638095D01*
X21433333Y13638095D02*
X20976190Y13638095D01*
X21204761Y13638095D02*
X21204761Y14438095D01*
X21128571Y14323809D01*
X21052380Y14247619D01*
X20976190Y14209523D01*
X18138095Y13397619D02*
X18138095Y14397619D01*
X18138095Y13921428D02*
X18709523Y13921428D01*
X18709523Y13397619D02*
X18709523Y14397619D01*
X19709523Y13397619D02*
X19138095Y13397619D01*
X19423809Y13397619D02*
X19423809Y14397619D01*
X19328571Y14254761D01*
X19233333Y14159523D01*
X19138095Y14111904D01*
X12782380Y8228095D02*
X13591904Y8228095D01*
X13687142Y8275714D01*
X13734761Y8323333D01*
X13782380Y8418571D01*
X13782380Y8609047D01*
X13734761Y8704285D01*
X13687142Y8751904D01*
X13591904Y8799523D01*
X12782380Y8799523D01*
X12877619Y9228095D02*
X12830000Y9275714D01*
X12782380Y9370952D01*
X12782380Y9609047D01*
X12830000Y9704285D01*
X12877619Y9751904D01*
X12972857Y9799523D01*
X13068095Y9799523D01*
X13210952Y9751904D01*
X13782380Y9180476D01*
X13782380Y9799523D01*
M02*
