G04 #@! TF.GenerationSoftware,KiCad,Pcbnew,(5.1.7)-1*
G04 #@! TF.CreationDate,2021-05-21T20:03:00+02:00*
G04 #@! TF.ProjectId,attinyDPS,61747469-6e79-4445-9053-2e6b69636164,rev?*
G04 #@! TF.SameCoordinates,Original*
G04 #@! TF.FileFunction,Copper,L2,Bot*
G04 #@! TF.FilePolarity,Positive*
%FSLAX46Y46*%
G04 Gerber Fmt 4.6, Leading zero omitted, Abs format (unit mm)*
G04 Created by KiCad (PCBNEW (5.1.7)-1) date 2021-05-21 20:03:00*
%MOMM*%
%LPD*%
G01*
G04 APERTURE LIST*
G04 #@! TA.AperFunction,ComponentPad*
%ADD10O,1.700000X1.700000*%
G04 #@! TD*
G04 #@! TA.AperFunction,ComponentPad*
%ADD11R,1.700000X1.700000*%
G04 #@! TD*
G04 #@! TA.AperFunction,ComponentPad*
%ADD12C,5.700000*%
G04 #@! TD*
G04 #@! TA.AperFunction,ComponentPad*
%ADD13C,2.000000*%
G04 #@! TD*
G04 #@! TA.AperFunction,ComponentPad*
%ADD14R,1.600000X1.600000*%
G04 #@! TD*
G04 #@! TA.AperFunction,ComponentPad*
%ADD15O,1.600000X1.600000*%
G04 #@! TD*
G04 #@! TA.AperFunction,SMDPad,CuDef*
%ADD16R,0.800000X0.550000*%
G04 #@! TD*
G04 #@! TA.AperFunction,Conductor*
%ADD17C,0.500000*%
G04 #@! TD*
G04 #@! TA.AperFunction,Conductor*
%ADD18C,0.250000*%
G04 #@! TD*
G04 #@! TA.AperFunction,Conductor*
%ADD19C,0.254000*%
G04 #@! TD*
G04 #@! TA.AperFunction,Conductor*
%ADD20C,0.100000*%
G04 #@! TD*
G04 APERTURE END LIST*
G04 #@! TA.AperFunction,SMDPad,CuDef*
G36*
G01*
X9300000Y10550001D02*
X9300000Y9649999D01*
G75*
G02*
X9050001Y9400000I-249999J0D01*
G01*
X8349999Y9400000D01*
G75*
G02*
X8100000Y9649999I0J249999D01*
G01*
X8100000Y10550001D01*
G75*
G02*
X8349999Y10800000I249999J0D01*
G01*
X9050001Y10800000D01*
G75*
G02*
X9300000Y10550001I0J-249999D01*
G01*
G37*
G04 #@! TD.AperFunction*
G04 #@! TA.AperFunction,SMDPad,CuDef*
G36*
G01*
X11300000Y10550001D02*
X11300000Y9649999D01*
G75*
G02*
X11050001Y9400000I-249999J0D01*
G01*
X10349999Y9400000D01*
G75*
G02*
X10100000Y9649999I0J249999D01*
G01*
X10100000Y10550001D01*
G75*
G02*
X10349999Y10800000I249999J0D01*
G01*
X11050001Y10800000D01*
G75*
G02*
X11300000Y10550001I0J-249999D01*
G01*
G37*
G04 #@! TD.AperFunction*
D10*
X13540000Y2300000D03*
X11000000Y2300000D03*
D11*
X8460000Y2300000D03*
D12*
X3100000Y21000000D03*
D13*
X9400000Y24400000D03*
X12900000Y19400000D03*
X19900000Y19400000D03*
X16400000Y24400000D03*
D12*
X18900000Y10000000D03*
D14*
X11000000Y12800000D03*
D15*
X3380000Y5180000D03*
X8460000Y12800000D03*
X5920000Y5180000D03*
X5920000Y12800000D03*
X8460000Y5180000D03*
X3380000Y12800000D03*
X11000000Y5180000D03*
D16*
X9600000Y15750000D03*
X9600000Y16700000D03*
X9600000Y17650000D03*
X7200000Y17650000D03*
X7200000Y16700000D03*
X7200000Y15750000D03*
G04 #@! TA.AperFunction,SMDPad,CuDef*
G36*
G01*
X13850001Y12500000D02*
X12949999Y12500000D01*
G75*
G02*
X12700000Y12749999I0J249999D01*
G01*
X12700000Y13450001D01*
G75*
G02*
X12949999Y13700000I249999J0D01*
G01*
X13850001Y13700000D01*
G75*
G02*
X14100000Y13450001I0J-249999D01*
G01*
X14100000Y12749999D01*
G75*
G02*
X13850001Y12500000I-249999J0D01*
G01*
G37*
G04 #@! TD.AperFunction*
G04 #@! TA.AperFunction,SMDPad,CuDef*
G36*
G01*
X13850001Y10500000D02*
X12949999Y10500000D01*
G75*
G02*
X12700000Y10749999I0J249999D01*
G01*
X12700000Y11450001D01*
G75*
G02*
X12949999Y11700000I249999J0D01*
G01*
X13850001Y11700000D01*
G75*
G02*
X14100000Y11450001I0J-249999D01*
G01*
X14100000Y10749999D01*
G75*
G02*
X13850001Y10500000I-249999J0D01*
G01*
G37*
G04 #@! TD.AperFunction*
G04 #@! TA.AperFunction,SMDPad,CuDef*
G36*
G01*
X12075000Y16612500D02*
X11125000Y16612500D01*
G75*
G02*
X10875000Y16862500I0J250000D01*
G01*
X10875000Y17537500D01*
G75*
G02*
X11125000Y17787500I250000J0D01*
G01*
X12075000Y17787500D01*
G75*
G02*
X12325000Y17537500I0J-250000D01*
G01*
X12325000Y16862500D01*
G75*
G02*
X12075000Y16612500I-250000J0D01*
G01*
G37*
G04 #@! TD.AperFunction*
G04 #@! TA.AperFunction,SMDPad,CuDef*
G36*
G01*
X12075000Y14537500D02*
X11125000Y14537500D01*
G75*
G02*
X10875000Y14787500I0J250000D01*
G01*
X10875000Y15462500D01*
G75*
G02*
X11125000Y15712500I250000J0D01*
G01*
X12075000Y15712500D01*
G75*
G02*
X12325000Y15462500I0J-250000D01*
G01*
X12325000Y14787500D01*
G75*
G02*
X12075000Y14537500I-250000J0D01*
G01*
G37*
G04 #@! TD.AperFunction*
G04 #@! TA.AperFunction,SMDPad,CuDef*
G36*
G01*
X9250000Y8175000D02*
X9250000Y7225000D01*
G75*
G02*
X9000000Y6975000I-250000J0D01*
G01*
X8325000Y6975000D01*
G75*
G02*
X8075000Y7225000I0J250000D01*
G01*
X8075000Y8175000D01*
G75*
G02*
X8325000Y8425000I250000J0D01*
G01*
X9000000Y8425000D01*
G75*
G02*
X9250000Y8175000I0J-250000D01*
G01*
G37*
G04 #@! TD.AperFunction*
G04 #@! TA.AperFunction,SMDPad,CuDef*
G36*
G01*
X11325000Y8175000D02*
X11325000Y7225000D01*
G75*
G02*
X11075000Y6975000I-250000J0D01*
G01*
X10400000Y6975000D01*
G75*
G02*
X10150000Y7225000I0J250000D01*
G01*
X10150000Y8175000D01*
G75*
G02*
X10400000Y8425000I250000J0D01*
G01*
X11075000Y8425000D01*
G75*
G02*
X11325000Y8175000I0J-250000D01*
G01*
G37*
G04 #@! TD.AperFunction*
G04 #@! TA.AperFunction,SMDPad,CuDef*
G36*
G01*
X4612500Y3075000D02*
X4612500Y2125000D01*
G75*
G02*
X4362500Y1875000I-250000J0D01*
G01*
X3687500Y1875000D01*
G75*
G02*
X3437500Y2125000I0J250000D01*
G01*
X3437500Y3075000D01*
G75*
G02*
X3687500Y3325000I250000J0D01*
G01*
X4362500Y3325000D01*
G75*
G02*
X4612500Y3075000I0J-250000D01*
G01*
G37*
G04 #@! TD.AperFunction*
G04 #@! TA.AperFunction,SMDPad,CuDef*
G36*
G01*
X6687500Y3075000D02*
X6687500Y2125000D01*
G75*
G02*
X6437500Y1875000I-250000J0D01*
G01*
X5762500Y1875000D01*
G75*
G02*
X5512500Y2125000I0J250000D01*
G01*
X5512500Y3075000D01*
G75*
G02*
X5762500Y3325000I250000J0D01*
G01*
X6437500Y3325000D01*
G75*
G02*
X6687500Y3075000I0J-250000D01*
G01*
G37*
G04 #@! TD.AperFunction*
G04 #@! TA.AperFunction,SMDPad,CuDef*
G36*
G01*
X11125000Y22250000D02*
X12075000Y22250000D01*
G75*
G02*
X12325000Y22000000I0J-250000D01*
G01*
X12325000Y21325000D01*
G75*
G02*
X12075000Y21075000I-250000J0D01*
G01*
X11125000Y21075000D01*
G75*
G02*
X10875000Y21325000I0J250000D01*
G01*
X10875000Y22000000D01*
G75*
G02*
X11125000Y22250000I250000J0D01*
G01*
G37*
G04 #@! TD.AperFunction*
G04 #@! TA.AperFunction,SMDPad,CuDef*
G36*
G01*
X11125000Y24325000D02*
X12075000Y24325000D01*
G75*
G02*
X12325000Y24075000I0J-250000D01*
G01*
X12325000Y23400000D01*
G75*
G02*
X12075000Y23150000I-250000J0D01*
G01*
X11125000Y23150000D01*
G75*
G02*
X10875000Y23400000I0J250000D01*
G01*
X10875000Y24075000D01*
G75*
G02*
X11125000Y24325000I250000J0D01*
G01*
G37*
G04 #@! TD.AperFunction*
G04 #@! TA.AperFunction,SMDPad,CuDef*
G36*
G01*
X13425000Y22250000D02*
X14375000Y22250000D01*
G75*
G02*
X14625000Y22000000I0J-250000D01*
G01*
X14625000Y21325000D01*
G75*
G02*
X14375000Y21075000I-250000J0D01*
G01*
X13425000Y21075000D01*
G75*
G02*
X13175000Y21325000I0J250000D01*
G01*
X13175000Y22000000D01*
G75*
G02*
X13425000Y22250000I250000J0D01*
G01*
G37*
G04 #@! TD.AperFunction*
G04 #@! TA.AperFunction,SMDPad,CuDef*
G36*
G01*
X13425000Y24325000D02*
X14375000Y24325000D01*
G75*
G02*
X14625000Y24075000I0J-250000D01*
G01*
X14625000Y23400000D01*
G75*
G02*
X14375000Y23150000I-250000J0D01*
G01*
X13425000Y23150000D01*
G75*
G02*
X13175000Y23400000I0J250000D01*
G01*
X13175000Y24075000D01*
G75*
G02*
X13425000Y24325000I250000J0D01*
G01*
G37*
G04 #@! TD.AperFunction*
G04 #@! TA.AperFunction,SMDPad,CuDef*
G36*
G01*
X15725000Y20612500D02*
X16675000Y20612500D01*
G75*
G02*
X16925000Y20362500I0J-250000D01*
G01*
X16925000Y19687500D01*
G75*
G02*
X16675000Y19437500I-250000J0D01*
G01*
X15725000Y19437500D01*
G75*
G02*
X15475000Y19687500I0J250000D01*
G01*
X15475000Y20362500D01*
G75*
G02*
X15725000Y20612500I250000J0D01*
G01*
G37*
G04 #@! TD.AperFunction*
G04 #@! TA.AperFunction,SMDPad,CuDef*
G36*
G01*
X15725000Y22687500D02*
X16675000Y22687500D01*
G75*
G02*
X16925000Y22437500I0J-250000D01*
G01*
X16925000Y21762500D01*
G75*
G02*
X16675000Y21512500I-250000J0D01*
G01*
X15725000Y21512500D01*
G75*
G02*
X15475000Y21762500I0J250000D01*
G01*
X15475000Y22437500D01*
G75*
G02*
X15725000Y22687500I250000J0D01*
G01*
G37*
G04 #@! TD.AperFunction*
D17*
X12900000Y19400000D02*
X11900000Y18400000D01*
X11000000Y7100000D02*
X10700000Y7400000D01*
X11000000Y5180000D02*
X11000000Y7100000D01*
X9400000Y24400000D02*
X10600000Y24400000D01*
X13400000Y10362500D02*
X10737500Y7700000D01*
X13400000Y11100000D02*
X13400000Y10362500D01*
X13900000Y23400000D02*
X14200000Y23400000D01*
X16200000Y22100000D02*
X17000000Y22100000D01*
X14600000Y15600000D02*
X11600000Y15600000D01*
X18200000Y19200000D02*
X14600000Y15600000D01*
X18200000Y20900000D02*
X18200000Y19200000D01*
X17000000Y22100000D02*
X18200000Y20900000D01*
X21350001Y21049999D02*
X21350001Y17450001D01*
X15200000Y11100000D02*
X13400000Y11100000D01*
X21350001Y17250001D02*
X15200000Y11100000D01*
X20300000Y22100000D02*
X21350001Y21049999D01*
X17000000Y22100000D02*
X20300000Y22100000D01*
X11600000Y15600000D02*
X11300000Y15600000D01*
X10200000Y16700000D02*
X9600000Y16700000D01*
X11300000Y15600000D02*
X10200000Y16700000D01*
X10737500Y24400000D02*
X11600000Y23537500D01*
X9400000Y24400000D02*
X10737500Y24400000D01*
X11600000Y23537500D02*
X13900000Y23537500D01*
X14762500Y23537500D02*
X16200000Y22100000D01*
X13900000Y23537500D02*
X14762500Y23537500D01*
X11000000Y5180000D02*
X11000000Y2400000D01*
D18*
X13137500Y10100000D02*
X13400000Y10362500D01*
X10700000Y10100000D02*
X13137500Y10100000D01*
D17*
X6300000Y2400000D02*
X6100000Y2600000D01*
X8460000Y2400000D02*
X6300000Y2400000D01*
X6100000Y2600000D02*
X6100000Y3020000D01*
X6100000Y2820000D02*
X8460000Y5180000D01*
X6100000Y2600000D02*
X6100000Y2820000D01*
D18*
X15000000Y14500000D02*
X19900000Y19400000D01*
X13186810Y14500000D02*
X15000000Y14500000D01*
X12686810Y14000000D02*
X13186810Y14500000D01*
X10200000Y14000000D02*
X12686810Y14000000D01*
X9600000Y14600000D02*
X10200000Y14000000D01*
X9600000Y15750000D02*
X9600000Y14600000D01*
X8500000Y25900000D02*
X7200000Y24600000D01*
X7200000Y24600000D02*
X7200000Y17650000D01*
X14900000Y25900000D02*
X8500000Y25900000D01*
X16400000Y24400000D02*
X14900000Y25900000D01*
X11300000Y13100000D02*
X11000000Y12800000D01*
X13400000Y13100000D02*
X11300000Y13100000D01*
X5920000Y14470000D02*
X7200000Y15750000D01*
X5920000Y14470000D02*
X5920000Y12800000D01*
X8700000Y10100000D02*
X7200000Y10100000D01*
X5920000Y11380000D02*
X5920000Y12800000D01*
X7200000Y10100000D02*
X5920000Y11380000D01*
X8874999Y17474999D02*
X9050000Y17650000D01*
X9050000Y17650000D02*
X9600000Y17650000D01*
X8874999Y15074999D02*
X8874999Y17474999D01*
X8460000Y14660000D02*
X8874999Y15074999D01*
X8460000Y14660000D02*
X8460000Y12800000D01*
D19*
X21594001Y21698368D02*
X20768105Y22524263D01*
X20748343Y22548343D01*
X20652261Y22627196D01*
X20542642Y22685789D01*
X20423698Y22721870D01*
X20330998Y22731000D01*
X20330990Y22731000D01*
X20300000Y22734052D01*
X20269010Y22731000D01*
X17232239Y22731000D01*
X17201190Y22789089D01*
X17122488Y22884988D01*
X17026589Y22963690D01*
X16917179Y23022171D01*
X16798462Y23058183D01*
X16754681Y23062495D01*
X16802823Y23072071D01*
X17054149Y23176174D01*
X17280336Y23327307D01*
X17472693Y23519664D01*
X17623826Y23745851D01*
X17727929Y23997177D01*
X17781000Y24263983D01*
X17781000Y24536017D01*
X17727929Y24802823D01*
X17623826Y25054149D01*
X17472693Y25280336D01*
X17280336Y25472693D01*
X17054149Y25623826D01*
X16802823Y25727929D01*
X16536017Y25781000D01*
X16263983Y25781000D01*
X15997177Y25727929D01*
X15849028Y25666563D01*
X15275376Y26240215D01*
X15259527Y26259527D01*
X15182479Y26322759D01*
X15094575Y26369745D01*
X14999193Y26398678D01*
X14924854Y26406000D01*
X14924846Y26406000D01*
X14900000Y26408447D01*
X14875154Y26406000D01*
X8524854Y26406000D01*
X8500000Y26408448D01*
X8475146Y26406000D01*
X8400807Y26398678D01*
X8305425Y26369745D01*
X8217521Y26322759D01*
X8140473Y26259527D01*
X8124628Y26240220D01*
X6859785Y24975376D01*
X6840473Y24959527D01*
X6777241Y24882479D01*
X6730255Y24794574D01*
X6701322Y24699192D01*
X6694000Y24624853D01*
X6694000Y24624846D01*
X6691553Y24600000D01*
X6694000Y24575154D01*
X6694001Y18290989D01*
X6653492Y18278701D01*
X6587304Y18243322D01*
X6529289Y18195711D01*
X6481678Y18137696D01*
X6446299Y18071508D01*
X6424513Y17999689D01*
X6417157Y17925000D01*
X6417157Y17482046D01*
X6352207Y17429552D01*
X6272133Y17333458D01*
X6212344Y17223589D01*
X6175138Y17104166D01*
X6165000Y16985750D01*
X6323750Y16827000D01*
X7073000Y16827000D01*
X7073000Y16847000D01*
X7327000Y16847000D01*
X7327000Y16827000D01*
X8076250Y16827000D01*
X8235000Y16985750D01*
X8224862Y17104166D01*
X8187656Y17223589D01*
X8127867Y17333458D01*
X8047793Y17429552D01*
X7982843Y17482046D01*
X7982843Y17925000D01*
X7975487Y17999689D01*
X7953701Y18071508D01*
X7918322Y18137696D01*
X7870711Y18195711D01*
X7812696Y18243322D01*
X7746508Y18278701D01*
X7706000Y18290989D01*
X7706000Y19337405D01*
X11258282Y19337405D01*
X11302039Y19018325D01*
X11407205Y18713912D01*
X11500186Y18539956D01*
X11764585Y18444193D01*
X11648917Y18328525D01*
X11727000Y18250442D01*
X11727000Y17327000D01*
X12801250Y17327000D01*
X12960000Y17485750D01*
X12962775Y17758307D01*
X13281675Y17802039D01*
X13586088Y17907205D01*
X13760044Y18000186D01*
X13855808Y18264587D01*
X12900000Y19220395D01*
X12885858Y19206253D01*
X12706253Y19385858D01*
X12720395Y19400000D01*
X13079605Y19400000D01*
X14035413Y18444192D01*
X14299814Y18539956D01*
X14440704Y18829571D01*
X14522384Y19141108D01*
X14540208Y19437500D01*
X14836928Y19437500D01*
X14849188Y19313018D01*
X14885498Y19193320D01*
X14944463Y19083006D01*
X15023815Y18986315D01*
X15120506Y18906963D01*
X15230820Y18847998D01*
X15350518Y18811688D01*
X15475000Y18799428D01*
X15914250Y18802500D01*
X16073000Y18961250D01*
X16073000Y19898000D01*
X14998750Y19898000D01*
X14840000Y19739250D01*
X14836928Y19437500D01*
X14540208Y19437500D01*
X14541718Y19462595D01*
X14497961Y19781675D01*
X14392795Y20086088D01*
X14299814Y20260044D01*
X14035413Y20355808D01*
X13079605Y19400000D01*
X12720395Y19400000D01*
X11764587Y20355808D01*
X11500186Y20260044D01*
X11359296Y19970429D01*
X11277616Y19658892D01*
X11258282Y19337405D01*
X7706000Y19337405D01*
X7706000Y21075000D01*
X10236928Y21075000D01*
X10249188Y20950518D01*
X10285498Y20830820D01*
X10344463Y20720506D01*
X10423815Y20623815D01*
X10520506Y20544463D01*
X10630820Y20485498D01*
X10750518Y20449188D01*
X10875000Y20436928D01*
X11314250Y20440000D01*
X11473000Y20598750D01*
X11473000Y21535500D01*
X11727000Y21535500D01*
X11727000Y20598750D01*
X11885750Y20440000D01*
X12040689Y20438916D01*
X12900000Y19579605D01*
X13855808Y20535413D01*
X13773000Y20764043D01*
X13773000Y21535500D01*
X11727000Y21535500D01*
X11473000Y21535500D01*
X10398750Y21535500D01*
X10240000Y21376750D01*
X10236928Y21075000D01*
X7706000Y21075000D01*
X7706000Y24390409D01*
X8060564Y24744972D01*
X8019000Y24536017D01*
X8019000Y24263983D01*
X8072071Y23997177D01*
X8176174Y23745851D01*
X8327307Y23519664D01*
X8519664Y23327307D01*
X8745851Y23176174D01*
X8997177Y23072071D01*
X9263983Y23019000D01*
X9536017Y23019000D01*
X9802823Y23072071D01*
X10054149Y23176174D01*
X10280336Y23327307D01*
X10472693Y23519664D01*
X10492157Y23548794D01*
X10492157Y23400000D01*
X10504317Y23276538D01*
X10540329Y23157821D01*
X10598810Y23048411D01*
X10677512Y22952512D01*
X10768780Y22877611D01*
X10750518Y22875812D01*
X10630820Y22839502D01*
X10520506Y22780537D01*
X10423815Y22701185D01*
X10344463Y22604494D01*
X10285498Y22494180D01*
X10249188Y22374482D01*
X10236928Y22250000D01*
X10240000Y21948250D01*
X10398750Y21789500D01*
X11473000Y21789500D01*
X11473000Y21809500D01*
X11727000Y21809500D01*
X11727000Y21789500D01*
X13773000Y21789500D01*
X13773000Y21809500D01*
X14027000Y21809500D01*
X14027000Y21789500D01*
X14047000Y21789500D01*
X14047000Y21535500D01*
X14027000Y21535500D01*
X14027000Y20598750D01*
X14185750Y20440000D01*
X14625000Y20436928D01*
X14749482Y20449188D01*
X14838316Y20476136D01*
X14840000Y20310750D01*
X14998750Y20152000D01*
X16073000Y20152000D01*
X16073000Y20172000D01*
X16327000Y20172000D01*
X16327000Y20152000D01*
X17401250Y20152000D01*
X17560000Y20310750D01*
X17563072Y20612500D01*
X17559570Y20648062D01*
X17569000Y20638631D01*
X17569001Y19461370D01*
X17562891Y19455260D01*
X17560000Y19739250D01*
X17401250Y19898000D01*
X16327000Y19898000D01*
X16327000Y18961250D01*
X16485750Y18802500D01*
X16907184Y18799553D01*
X14338632Y16231000D01*
X12833374Y16231000D01*
X12855537Y16258006D01*
X12914502Y16368320D01*
X12950812Y16488018D01*
X12963072Y16612500D01*
X12960000Y16914250D01*
X12801250Y17073000D01*
X11727000Y17073000D01*
X11727000Y17053000D01*
X11473000Y17053000D01*
X11473000Y17073000D01*
X11453000Y17073000D01*
X11453000Y17327000D01*
X11473000Y17327000D01*
X11473000Y18263750D01*
X11314250Y18422500D01*
X10875000Y18425572D01*
X10750518Y18413312D01*
X10630820Y18377002D01*
X10520506Y18318037D01*
X10423815Y18238685D01*
X10344463Y18141994D01*
X10330244Y18115392D01*
X10318322Y18137696D01*
X10270711Y18195711D01*
X10212696Y18243322D01*
X10146508Y18278701D01*
X10074689Y18300487D01*
X10000000Y18307843D01*
X9200000Y18307843D01*
X9125311Y18300487D01*
X9053492Y18278701D01*
X8987304Y18243322D01*
X8929289Y18195711D01*
X8881678Y18137696D01*
X8875306Y18125776D01*
X8855425Y18119745D01*
X8767521Y18072759D01*
X8690473Y18009527D01*
X8674624Y17990215D01*
X8534780Y17850371D01*
X8515473Y17834526D01*
X8452241Y17757478D01*
X8447813Y17749193D01*
X8405254Y17669573D01*
X8376321Y17574191D01*
X8366552Y17474999D01*
X8369000Y17450143D01*
X8368999Y15284591D01*
X8119785Y15035376D01*
X8100473Y15019527D01*
X8037241Y14942479D01*
X7990255Y14854574D01*
X7961322Y14759192D01*
X7954000Y14684853D01*
X7954000Y14684846D01*
X7951553Y14660000D01*
X7954000Y14635154D01*
X7954000Y13868713D01*
X7900587Y13846588D01*
X7707157Y13717342D01*
X7542658Y13552843D01*
X7413412Y13359413D01*
X7324386Y13144485D01*
X7279000Y12916318D01*
X7279000Y12683682D01*
X7324386Y12455515D01*
X7413412Y12240587D01*
X7542658Y12047157D01*
X7707157Y11882658D01*
X7900587Y11753412D01*
X8115515Y11664386D01*
X8343682Y11619000D01*
X8576318Y11619000D01*
X8804485Y11664386D01*
X9019413Y11753412D01*
X9212843Y11882658D01*
X9377342Y12047157D01*
X9506588Y12240587D01*
X9595614Y12455515D01*
X9641000Y12683682D01*
X9641000Y12916318D01*
X9595614Y13144485D01*
X9506588Y13359413D01*
X9377342Y13552843D01*
X9212843Y13717342D01*
X9019413Y13846588D01*
X8966000Y13868712D01*
X8966000Y14450409D01*
X9093708Y14578117D01*
X9101322Y14500808D01*
X9130255Y14405426D01*
X9148759Y14370808D01*
X9177242Y14317521D01*
X9240474Y14240473D01*
X9259780Y14224629D01*
X9823187Y13661221D01*
X9817157Y13600000D01*
X9817157Y12000000D01*
X9824513Y11925311D01*
X9846299Y11853492D01*
X9881678Y11787304D01*
X9929289Y11729289D01*
X9987304Y11681678D01*
X10053492Y11646299D01*
X10125311Y11624513D01*
X10200000Y11617157D01*
X11800000Y11617157D01*
X11874689Y11624513D01*
X11946508Y11646299D01*
X12012696Y11681678D01*
X12070711Y11729289D01*
X12118322Y11787304D01*
X12153701Y11853492D01*
X12175487Y11925311D01*
X12182843Y12000000D01*
X12182843Y12594000D01*
X12339187Y12594000D01*
X12365329Y12507821D01*
X12423810Y12398411D01*
X12502512Y12302512D01*
X12598411Y12223810D01*
X12707821Y12165329D01*
X12826538Y12129317D01*
X12949999Y12117157D01*
X13850001Y12117157D01*
X13973462Y12129317D01*
X14092179Y12165329D01*
X14201589Y12223810D01*
X14297488Y12302512D01*
X14376190Y12398411D01*
X14434671Y12507821D01*
X14470683Y12626538D01*
X14482843Y12749999D01*
X14482843Y13450001D01*
X14470683Y13573462D01*
X14434671Y13692179D01*
X14376190Y13801589D01*
X14297488Y13897488D01*
X14201589Y13976190D01*
X14168269Y13994000D01*
X14975154Y13994000D01*
X15000000Y13991553D01*
X15024846Y13994000D01*
X15024854Y13994000D01*
X15099193Y14001322D01*
X15194575Y14030255D01*
X15282479Y14077241D01*
X15359527Y14140473D01*
X15375376Y14159785D01*
X19349028Y18133436D01*
X19497177Y18072071D01*
X19763983Y18019000D01*
X20036017Y18019000D01*
X20302823Y18072071D01*
X20554149Y18176174D01*
X20719002Y18286325D01*
X20719002Y17511371D01*
X14938632Y11731000D01*
X14413921Y11731000D01*
X14376190Y11801589D01*
X14297488Y11897488D01*
X14201589Y11976190D01*
X14092179Y12034671D01*
X13973462Y12070683D01*
X13850001Y12082843D01*
X12949999Y12082843D01*
X12826538Y12070683D01*
X12707821Y12034671D01*
X12598411Y11976190D01*
X12502512Y11897488D01*
X12423810Y11801589D01*
X12365329Y11692179D01*
X12329317Y11573462D01*
X12317157Y11450001D01*
X12317157Y10749999D01*
X12329317Y10626538D01*
X12335547Y10606000D01*
X11677328Y10606000D01*
X11670683Y10673462D01*
X11634671Y10792179D01*
X11576190Y10901589D01*
X11497488Y10997488D01*
X11401589Y11076190D01*
X11292179Y11134671D01*
X11173462Y11170683D01*
X11050001Y11182843D01*
X10349999Y11182843D01*
X10226538Y11170683D01*
X10107821Y11134671D01*
X9998411Y11076190D01*
X9902512Y10997488D01*
X9823810Y10901589D01*
X9765329Y10792179D01*
X9729317Y10673462D01*
X9717157Y10550001D01*
X9717157Y9649999D01*
X9729317Y9526538D01*
X9765329Y9407821D01*
X9823810Y9298411D01*
X9902512Y9202512D01*
X9998411Y9123810D01*
X10107821Y9065329D01*
X10226538Y9029317D01*
X10349999Y9017157D01*
X11050001Y9017157D01*
X11173462Y9029317D01*
X11174878Y9029747D01*
X10952975Y8807843D01*
X10400000Y8807843D01*
X10276538Y8795683D01*
X10157821Y8759671D01*
X10048411Y8701190D01*
X9952512Y8622488D01*
X9877611Y8531220D01*
X9875812Y8549482D01*
X9839502Y8669180D01*
X9780537Y8779494D01*
X9701185Y8876185D01*
X9604494Y8955537D01*
X9494180Y9014502D01*
X9374482Y9050812D01*
X9276224Y9060489D01*
X9292179Y9065329D01*
X9401589Y9123810D01*
X9497488Y9202512D01*
X9576190Y9298411D01*
X9634671Y9407821D01*
X9670683Y9526538D01*
X9682843Y9649999D01*
X9682843Y10550001D01*
X9670683Y10673462D01*
X9634671Y10792179D01*
X9576190Y10901589D01*
X9497488Y10997488D01*
X9401589Y11076190D01*
X9292179Y11134671D01*
X9173462Y11170683D01*
X9050001Y11182843D01*
X8349999Y11182843D01*
X8226538Y11170683D01*
X8107821Y11134671D01*
X7998411Y11076190D01*
X7902512Y10997488D01*
X7823810Y10901589D01*
X7765329Y10792179D01*
X7729317Y10673462D01*
X7722672Y10606000D01*
X7409592Y10606000D01*
X6426000Y11589591D01*
X6426000Y11731288D01*
X6479413Y11753412D01*
X6672843Y11882658D01*
X6837342Y12047157D01*
X6966588Y12240587D01*
X7055614Y12455515D01*
X7101000Y12683682D01*
X7101000Y12916318D01*
X7055614Y13144485D01*
X6966588Y13359413D01*
X6837342Y13552843D01*
X6672843Y13717342D01*
X6479413Y13846588D01*
X6426000Y13868712D01*
X6426000Y14260409D01*
X7257749Y15092157D01*
X7600000Y15092157D01*
X7674689Y15099513D01*
X7746508Y15121299D01*
X7812696Y15156678D01*
X7870711Y15204289D01*
X7918322Y15262304D01*
X7953701Y15328492D01*
X7975487Y15400311D01*
X7982843Y15475000D01*
X7982843Y15917954D01*
X8047793Y15970448D01*
X8127867Y16066542D01*
X8187656Y16176411D01*
X8224862Y16295834D01*
X8235000Y16414250D01*
X8076250Y16573000D01*
X7327000Y16573000D01*
X7327000Y16553000D01*
X7073000Y16553000D01*
X7073000Y16573000D01*
X6323750Y16573000D01*
X6165000Y16414250D01*
X6175138Y16295834D01*
X6212344Y16176411D01*
X6272133Y16066542D01*
X6352207Y15970448D01*
X6417157Y15917954D01*
X6417157Y15682749D01*
X5579785Y14845376D01*
X5560473Y14829527D01*
X5497241Y14752479D01*
X5450255Y14664574D01*
X5421322Y14569192D01*
X5414000Y14494853D01*
X5414000Y14494846D01*
X5411553Y14470000D01*
X5414000Y14445153D01*
X5414000Y13868713D01*
X5360587Y13846588D01*
X5167157Y13717342D01*
X5002658Y13552843D01*
X4873412Y13359413D01*
X4784386Y13144485D01*
X4741125Y12927002D01*
X4650625Y12927002D01*
X4771909Y13149040D01*
X4677070Y13413881D01*
X4532385Y13655131D01*
X4343414Y13863519D01*
X4117420Y14031037D01*
X3863087Y14151246D01*
X3729039Y14191904D01*
X3507000Y14069915D01*
X3507000Y12927000D01*
X3527000Y12927000D01*
X3527000Y12673000D01*
X3507000Y12673000D01*
X3507000Y11530085D01*
X3729039Y11408096D01*
X3863087Y11448754D01*
X4117420Y11568963D01*
X4343414Y11736481D01*
X4532385Y11944869D01*
X4677070Y12186119D01*
X4771909Y12450960D01*
X4650625Y12672998D01*
X4741125Y12672998D01*
X4784386Y12455515D01*
X4873412Y12240587D01*
X5002658Y12047157D01*
X5167157Y11882658D01*
X5360587Y11753412D01*
X5414000Y11731288D01*
X5414000Y11404847D01*
X5411553Y11380000D01*
X5414000Y11355154D01*
X5414000Y11355147D01*
X5421322Y11280808D01*
X5450255Y11185426D01*
X5497241Y11097521D01*
X5560473Y11020473D01*
X5579785Y11004624D01*
X6824628Y9759780D01*
X6840473Y9740473D01*
X6917521Y9677241D01*
X7005425Y9630255D01*
X7078607Y9608056D01*
X7100806Y9601322D01*
X7110694Y9600348D01*
X7175146Y9594000D01*
X7175153Y9594000D01*
X7199999Y9591553D01*
X7224845Y9594000D01*
X7722672Y9594000D01*
X7729317Y9526538D01*
X7765329Y9407821D01*
X7823810Y9298411D01*
X7902512Y9202512D01*
X7998411Y9123810D01*
X8107821Y9065329D01*
X8116660Y9062648D01*
X8075000Y9063072D01*
X7950518Y9050812D01*
X7830820Y9014502D01*
X7720506Y8955537D01*
X7623815Y8876185D01*
X7544463Y8779494D01*
X7485498Y8669180D01*
X7449188Y8549482D01*
X7436928Y8425000D01*
X7440000Y7985750D01*
X7598750Y7827000D01*
X8535500Y7827000D01*
X8535500Y7847000D01*
X8789500Y7847000D01*
X8789500Y7827000D01*
X8809500Y7827000D01*
X8809500Y7573000D01*
X8789500Y7573000D01*
X8789500Y7553000D01*
X8535500Y7553000D01*
X8535500Y7573000D01*
X7598750Y7573000D01*
X7440000Y7414250D01*
X7436928Y6975000D01*
X7449188Y6850518D01*
X7485498Y6730820D01*
X7544463Y6620506D01*
X7623815Y6523815D01*
X7720506Y6444463D01*
X7830820Y6385498D01*
X7950518Y6349188D01*
X8075000Y6336928D01*
X8230631Y6338512D01*
X8115515Y6315614D01*
X7900587Y6226588D01*
X7707157Y6097342D01*
X7542658Y5932843D01*
X7413412Y5739413D01*
X7324386Y5524485D01*
X7279000Y5296318D01*
X7279000Y5063682D01*
X7307589Y4919958D01*
X6882758Y4495126D01*
X6966588Y4620587D01*
X7055614Y4835515D01*
X7101000Y5063682D01*
X7101000Y5296318D01*
X7055614Y5524485D01*
X6966588Y5739413D01*
X6837342Y5932843D01*
X6672843Y6097342D01*
X6479413Y6226588D01*
X6264485Y6315614D01*
X6036318Y6361000D01*
X5803682Y6361000D01*
X5575515Y6315614D01*
X5360587Y6226588D01*
X5167157Y6097342D01*
X5002658Y5932843D01*
X4873412Y5739413D01*
X4784386Y5524485D01*
X4739000Y5296318D01*
X4739000Y5063682D01*
X4784386Y4835515D01*
X4873412Y4620587D01*
X5002658Y4427157D01*
X5167157Y4262658D01*
X5360587Y4133412D01*
X5575515Y4044386D01*
X5803682Y3999000D01*
X6036318Y3999000D01*
X6264485Y4044386D01*
X6479413Y4133412D01*
X6604874Y4217243D01*
X6095475Y3707843D01*
X5762500Y3707843D01*
X5639038Y3695683D01*
X5520321Y3659671D01*
X5410911Y3601190D01*
X5315012Y3522488D01*
X5240111Y3431220D01*
X5238312Y3449482D01*
X5202002Y3569180D01*
X5143037Y3679494D01*
X5063685Y3776185D01*
X4966994Y3855537D01*
X4856680Y3914502D01*
X4736982Y3950812D01*
X4612500Y3963072D01*
X4310750Y3960000D01*
X4152000Y3801250D01*
X4152000Y2727000D01*
X4172000Y2727000D01*
X4172000Y2473000D01*
X4152000Y2473000D01*
X4152000Y1398750D01*
X4310750Y1240000D01*
X4612500Y1236928D01*
X4736982Y1249188D01*
X4856680Y1285498D01*
X4966994Y1344463D01*
X5063685Y1423815D01*
X5143037Y1520506D01*
X5202002Y1630820D01*
X5238312Y1750518D01*
X5240111Y1768780D01*
X5315012Y1677512D01*
X5410911Y1598810D01*
X5520321Y1540329D01*
X5639038Y1504317D01*
X5762500Y1492157D01*
X6437500Y1492157D01*
X6560962Y1504317D01*
X6679679Y1540329D01*
X6789089Y1598810D01*
X6884988Y1677512D01*
X6960070Y1769000D01*
X7227157Y1769000D01*
X7227157Y1450000D01*
X7234513Y1375311D01*
X7256299Y1303492D01*
X7291678Y1237304D01*
X7339289Y1179289D01*
X7397304Y1131678D01*
X7463492Y1096299D01*
X7535311Y1074513D01*
X7610000Y1067157D01*
X9310000Y1067157D01*
X9384689Y1074513D01*
X9456508Y1096299D01*
X9522696Y1131678D01*
X9580711Y1179289D01*
X9628322Y1237304D01*
X9663701Y1303492D01*
X9685487Y1375311D01*
X9692843Y1450000D01*
X9692843Y3150000D01*
X9685487Y3224689D01*
X9663701Y3296508D01*
X9628322Y3362696D01*
X9580711Y3420711D01*
X9522696Y3468322D01*
X9456508Y3503701D01*
X9384689Y3525487D01*
X9310000Y3532843D01*
X7705211Y3532843D01*
X8199958Y4027589D01*
X8343682Y3999000D01*
X8576318Y3999000D01*
X8804485Y4044386D01*
X9019413Y4133412D01*
X9212843Y4262658D01*
X9377342Y4427157D01*
X9506588Y4620587D01*
X9595614Y4835515D01*
X9641000Y5063682D01*
X9641000Y5296318D01*
X9595614Y5524485D01*
X9506588Y5739413D01*
X9377342Y5932843D01*
X9212843Y6097342D01*
X9019413Y6226588D01*
X8804485Y6315614D01*
X8681890Y6340000D01*
X8789502Y6340000D01*
X8789502Y6498748D01*
X8948250Y6340000D01*
X9250000Y6336928D01*
X9374482Y6349188D01*
X9494180Y6385498D01*
X9604494Y6444463D01*
X9701185Y6523815D01*
X9780537Y6620506D01*
X9839502Y6730820D01*
X9875812Y6850518D01*
X9877611Y6868780D01*
X9952512Y6777512D01*
X10048411Y6698810D01*
X10157821Y6640329D01*
X10276538Y6604317D01*
X10369001Y6595210D01*
X10369001Y6178755D01*
X10247157Y6097342D01*
X10082658Y5932843D01*
X9953412Y5739413D01*
X9864386Y5524485D01*
X9819000Y5296318D01*
X9819000Y5063682D01*
X9864386Y4835515D01*
X9953412Y4620587D01*
X10082658Y4427157D01*
X10247157Y4262658D01*
X10369000Y4181245D01*
X10369001Y3358891D01*
X10215283Y3256180D01*
X10043820Y3084717D01*
X9909102Y2883097D01*
X9816307Y2659069D01*
X9769000Y2421243D01*
X9769000Y2178757D01*
X9816307Y1940931D01*
X9909102Y1716903D01*
X10043820Y1515283D01*
X10215283Y1343820D01*
X10416903Y1209102D01*
X10640931Y1116307D01*
X10878757Y1069000D01*
X11121243Y1069000D01*
X11359069Y1116307D01*
X11583097Y1209102D01*
X11784717Y1343820D01*
X11956180Y1515283D01*
X12090898Y1716903D01*
X12138228Y1831168D01*
X12195843Y1668748D01*
X12344822Y1418645D01*
X12539731Y1202412D01*
X12773080Y1028359D01*
X13035901Y903175D01*
X13183110Y858524D01*
X13413000Y979845D01*
X13413000Y2173000D01*
X13667000Y2173000D01*
X13667000Y979845D01*
X13896890Y858524D01*
X14044099Y903175D01*
X14306920Y1028359D01*
X14540269Y1202412D01*
X14735178Y1418645D01*
X14884157Y1668748D01*
X14981481Y1943109D01*
X14860814Y2173000D01*
X13667000Y2173000D01*
X13413000Y2173000D01*
X13393000Y2173000D01*
X13393000Y2427000D01*
X13413000Y2427000D01*
X13413000Y3620155D01*
X13667000Y3620155D01*
X13667000Y2427000D01*
X14860814Y2427000D01*
X14981481Y2656891D01*
X14884157Y2931252D01*
X14735178Y3181355D01*
X14540269Y3397588D01*
X14306920Y3571641D01*
X14044099Y3696825D01*
X13896890Y3741476D01*
X13667000Y3620155D01*
X13413000Y3620155D01*
X13183110Y3741476D01*
X13035901Y3696825D01*
X12773080Y3571641D01*
X12539731Y3397588D01*
X12344822Y3181355D01*
X12195843Y2931252D01*
X12138228Y2768832D01*
X12090898Y2883097D01*
X11956180Y3084717D01*
X11784717Y3256180D01*
X11631000Y3358890D01*
X11631000Y4181245D01*
X11752843Y4262658D01*
X11917342Y4427157D01*
X12046588Y4620587D01*
X12135614Y4835515D01*
X12181000Y5063682D01*
X12181000Y5296318D01*
X12135614Y5524485D01*
X12046588Y5739413D01*
X11917342Y5932843D01*
X11752843Y6097342D01*
X11631000Y6178755D01*
X11631000Y6929181D01*
X11659671Y6982821D01*
X11695683Y7101538D01*
X11707843Y7225000D01*
X11707843Y7777975D01*
X13824268Y9894399D01*
X13848343Y9914157D01*
X13927196Y10010239D01*
X13985789Y10119858D01*
X13990198Y10134394D01*
X14092179Y10165329D01*
X14201589Y10223810D01*
X14297488Y10302512D01*
X14376190Y10398411D01*
X14413921Y10469000D01*
X15169010Y10469000D01*
X15200000Y10465948D01*
X15230990Y10469000D01*
X15230998Y10469000D01*
X15323698Y10478130D01*
X15442642Y10514211D01*
X15552261Y10572804D01*
X15648343Y10651657D01*
X15668105Y10675737D01*
X15757994Y10765626D01*
X15669000Y10318226D01*
X15669000Y9681774D01*
X15793166Y9057552D01*
X16036725Y8469548D01*
X16390319Y7940358D01*
X16840358Y7490319D01*
X17369548Y7136725D01*
X17957552Y6893166D01*
X18581774Y6769000D01*
X19218226Y6769000D01*
X19842448Y6893166D01*
X20430452Y7136725D01*
X20959642Y7490319D01*
X21409681Y7940358D01*
X21594000Y8216211D01*
X21594000Y406000D01*
X406000Y406000D01*
X406000Y1875000D01*
X2799428Y1875000D01*
X2811688Y1750518D01*
X2847998Y1630820D01*
X2906963Y1520506D01*
X2986315Y1423815D01*
X3083006Y1344463D01*
X3193320Y1285498D01*
X3313018Y1249188D01*
X3437500Y1236928D01*
X3739250Y1240000D01*
X3898000Y1398750D01*
X3898000Y2473000D01*
X2961250Y2473000D01*
X2802500Y2314250D01*
X2799428Y1875000D01*
X406000Y1875000D01*
X406000Y3325000D01*
X2799428Y3325000D01*
X2802500Y2885750D01*
X2961250Y2727000D01*
X3898000Y2727000D01*
X3898000Y3801250D01*
X3739250Y3960000D01*
X3437500Y3963072D01*
X3313018Y3950812D01*
X3193320Y3914502D01*
X3083006Y3855537D01*
X2986315Y3776185D01*
X2906963Y3679494D01*
X2847998Y3569180D01*
X2811688Y3449482D01*
X2799428Y3325000D01*
X406000Y3325000D01*
X406000Y5296318D01*
X2199000Y5296318D01*
X2199000Y5063682D01*
X2244386Y4835515D01*
X2333412Y4620587D01*
X2462658Y4427157D01*
X2627157Y4262658D01*
X2820587Y4133412D01*
X3035515Y4044386D01*
X3263682Y3999000D01*
X3496318Y3999000D01*
X3724485Y4044386D01*
X3939413Y4133412D01*
X4132843Y4262658D01*
X4297342Y4427157D01*
X4426588Y4620587D01*
X4515614Y4835515D01*
X4561000Y5063682D01*
X4561000Y5296318D01*
X4515614Y5524485D01*
X4426588Y5739413D01*
X4297342Y5932843D01*
X4132843Y6097342D01*
X3939413Y6226588D01*
X3724485Y6315614D01*
X3496318Y6361000D01*
X3263682Y6361000D01*
X3035515Y6315614D01*
X2820587Y6226588D01*
X2627157Y6097342D01*
X2462658Y5932843D01*
X2333412Y5739413D01*
X2244386Y5524485D01*
X2199000Y5296318D01*
X406000Y5296318D01*
X406000Y12450960D01*
X1988091Y12450960D01*
X2082930Y12186119D01*
X2227615Y11944869D01*
X2416586Y11736481D01*
X2642580Y11568963D01*
X2896913Y11448754D01*
X3030961Y11408096D01*
X3253000Y11530085D01*
X3253000Y12673000D01*
X2109376Y12673000D01*
X1988091Y12450960D01*
X406000Y12450960D01*
X406000Y13149040D01*
X1988091Y13149040D01*
X2109376Y12927000D01*
X3253000Y12927000D01*
X3253000Y14069915D01*
X3030961Y14191904D01*
X2896913Y14151246D01*
X2642580Y14031037D01*
X2416586Y13863519D01*
X2227615Y13655131D01*
X2082930Y13413881D01*
X1988091Y13149040D01*
X406000Y13149040D01*
X406000Y19216210D01*
X590319Y18940358D01*
X1040358Y18490319D01*
X1569548Y18136725D01*
X2157552Y17893166D01*
X2781774Y17769000D01*
X3418226Y17769000D01*
X4042448Y17893166D01*
X4630452Y18136725D01*
X5159642Y18490319D01*
X5609681Y18940358D01*
X5963275Y19469548D01*
X6206834Y20057552D01*
X6331000Y20681774D01*
X6331000Y21318226D01*
X6206834Y21942448D01*
X5963275Y22530452D01*
X5609681Y23059642D01*
X5159642Y23509681D01*
X4630452Y23863275D01*
X4042448Y24106834D01*
X3418226Y24231000D01*
X2781774Y24231000D01*
X2157552Y24106834D01*
X1569548Y23863275D01*
X1040358Y23509681D01*
X590319Y23059642D01*
X406000Y22783790D01*
X406000Y26594000D01*
X21594001Y26594000D01*
X21594001Y21698368D01*
G04 #@! TA.AperFunction,Conductor*
D20*
G36*
X21594001Y21698368D02*
G01*
X20768105Y22524263D01*
X20748343Y22548343D01*
X20652261Y22627196D01*
X20542642Y22685789D01*
X20423698Y22721870D01*
X20330998Y22731000D01*
X20330990Y22731000D01*
X20300000Y22734052D01*
X20269010Y22731000D01*
X17232239Y22731000D01*
X17201190Y22789089D01*
X17122488Y22884988D01*
X17026589Y22963690D01*
X16917179Y23022171D01*
X16798462Y23058183D01*
X16754681Y23062495D01*
X16802823Y23072071D01*
X17054149Y23176174D01*
X17280336Y23327307D01*
X17472693Y23519664D01*
X17623826Y23745851D01*
X17727929Y23997177D01*
X17781000Y24263983D01*
X17781000Y24536017D01*
X17727929Y24802823D01*
X17623826Y25054149D01*
X17472693Y25280336D01*
X17280336Y25472693D01*
X17054149Y25623826D01*
X16802823Y25727929D01*
X16536017Y25781000D01*
X16263983Y25781000D01*
X15997177Y25727929D01*
X15849028Y25666563D01*
X15275376Y26240215D01*
X15259527Y26259527D01*
X15182479Y26322759D01*
X15094575Y26369745D01*
X14999193Y26398678D01*
X14924854Y26406000D01*
X14924846Y26406000D01*
X14900000Y26408447D01*
X14875154Y26406000D01*
X8524854Y26406000D01*
X8500000Y26408448D01*
X8475146Y26406000D01*
X8400807Y26398678D01*
X8305425Y26369745D01*
X8217521Y26322759D01*
X8140473Y26259527D01*
X8124628Y26240220D01*
X6859785Y24975376D01*
X6840473Y24959527D01*
X6777241Y24882479D01*
X6730255Y24794574D01*
X6701322Y24699192D01*
X6694000Y24624853D01*
X6694000Y24624846D01*
X6691553Y24600000D01*
X6694000Y24575154D01*
X6694001Y18290989D01*
X6653492Y18278701D01*
X6587304Y18243322D01*
X6529289Y18195711D01*
X6481678Y18137696D01*
X6446299Y18071508D01*
X6424513Y17999689D01*
X6417157Y17925000D01*
X6417157Y17482046D01*
X6352207Y17429552D01*
X6272133Y17333458D01*
X6212344Y17223589D01*
X6175138Y17104166D01*
X6165000Y16985750D01*
X6323750Y16827000D01*
X7073000Y16827000D01*
X7073000Y16847000D01*
X7327000Y16847000D01*
X7327000Y16827000D01*
X8076250Y16827000D01*
X8235000Y16985750D01*
X8224862Y17104166D01*
X8187656Y17223589D01*
X8127867Y17333458D01*
X8047793Y17429552D01*
X7982843Y17482046D01*
X7982843Y17925000D01*
X7975487Y17999689D01*
X7953701Y18071508D01*
X7918322Y18137696D01*
X7870711Y18195711D01*
X7812696Y18243322D01*
X7746508Y18278701D01*
X7706000Y18290989D01*
X7706000Y19337405D01*
X11258282Y19337405D01*
X11302039Y19018325D01*
X11407205Y18713912D01*
X11500186Y18539956D01*
X11764585Y18444193D01*
X11648917Y18328525D01*
X11727000Y18250442D01*
X11727000Y17327000D01*
X12801250Y17327000D01*
X12960000Y17485750D01*
X12962775Y17758307D01*
X13281675Y17802039D01*
X13586088Y17907205D01*
X13760044Y18000186D01*
X13855808Y18264587D01*
X12900000Y19220395D01*
X12885858Y19206253D01*
X12706253Y19385858D01*
X12720395Y19400000D01*
X13079605Y19400000D01*
X14035413Y18444192D01*
X14299814Y18539956D01*
X14440704Y18829571D01*
X14522384Y19141108D01*
X14540208Y19437500D01*
X14836928Y19437500D01*
X14849188Y19313018D01*
X14885498Y19193320D01*
X14944463Y19083006D01*
X15023815Y18986315D01*
X15120506Y18906963D01*
X15230820Y18847998D01*
X15350518Y18811688D01*
X15475000Y18799428D01*
X15914250Y18802500D01*
X16073000Y18961250D01*
X16073000Y19898000D01*
X14998750Y19898000D01*
X14840000Y19739250D01*
X14836928Y19437500D01*
X14540208Y19437500D01*
X14541718Y19462595D01*
X14497961Y19781675D01*
X14392795Y20086088D01*
X14299814Y20260044D01*
X14035413Y20355808D01*
X13079605Y19400000D01*
X12720395Y19400000D01*
X11764587Y20355808D01*
X11500186Y20260044D01*
X11359296Y19970429D01*
X11277616Y19658892D01*
X11258282Y19337405D01*
X7706000Y19337405D01*
X7706000Y21075000D01*
X10236928Y21075000D01*
X10249188Y20950518D01*
X10285498Y20830820D01*
X10344463Y20720506D01*
X10423815Y20623815D01*
X10520506Y20544463D01*
X10630820Y20485498D01*
X10750518Y20449188D01*
X10875000Y20436928D01*
X11314250Y20440000D01*
X11473000Y20598750D01*
X11473000Y21535500D01*
X11727000Y21535500D01*
X11727000Y20598750D01*
X11885750Y20440000D01*
X12040689Y20438916D01*
X12900000Y19579605D01*
X13855808Y20535413D01*
X13773000Y20764043D01*
X13773000Y21535500D01*
X11727000Y21535500D01*
X11473000Y21535500D01*
X10398750Y21535500D01*
X10240000Y21376750D01*
X10236928Y21075000D01*
X7706000Y21075000D01*
X7706000Y24390409D01*
X8060564Y24744972D01*
X8019000Y24536017D01*
X8019000Y24263983D01*
X8072071Y23997177D01*
X8176174Y23745851D01*
X8327307Y23519664D01*
X8519664Y23327307D01*
X8745851Y23176174D01*
X8997177Y23072071D01*
X9263983Y23019000D01*
X9536017Y23019000D01*
X9802823Y23072071D01*
X10054149Y23176174D01*
X10280336Y23327307D01*
X10472693Y23519664D01*
X10492157Y23548794D01*
X10492157Y23400000D01*
X10504317Y23276538D01*
X10540329Y23157821D01*
X10598810Y23048411D01*
X10677512Y22952512D01*
X10768780Y22877611D01*
X10750518Y22875812D01*
X10630820Y22839502D01*
X10520506Y22780537D01*
X10423815Y22701185D01*
X10344463Y22604494D01*
X10285498Y22494180D01*
X10249188Y22374482D01*
X10236928Y22250000D01*
X10240000Y21948250D01*
X10398750Y21789500D01*
X11473000Y21789500D01*
X11473000Y21809500D01*
X11727000Y21809500D01*
X11727000Y21789500D01*
X13773000Y21789500D01*
X13773000Y21809500D01*
X14027000Y21809500D01*
X14027000Y21789500D01*
X14047000Y21789500D01*
X14047000Y21535500D01*
X14027000Y21535500D01*
X14027000Y20598750D01*
X14185750Y20440000D01*
X14625000Y20436928D01*
X14749482Y20449188D01*
X14838316Y20476136D01*
X14840000Y20310750D01*
X14998750Y20152000D01*
X16073000Y20152000D01*
X16073000Y20172000D01*
X16327000Y20172000D01*
X16327000Y20152000D01*
X17401250Y20152000D01*
X17560000Y20310750D01*
X17563072Y20612500D01*
X17559570Y20648062D01*
X17569000Y20638631D01*
X17569001Y19461370D01*
X17562891Y19455260D01*
X17560000Y19739250D01*
X17401250Y19898000D01*
X16327000Y19898000D01*
X16327000Y18961250D01*
X16485750Y18802500D01*
X16907184Y18799553D01*
X14338632Y16231000D01*
X12833374Y16231000D01*
X12855537Y16258006D01*
X12914502Y16368320D01*
X12950812Y16488018D01*
X12963072Y16612500D01*
X12960000Y16914250D01*
X12801250Y17073000D01*
X11727000Y17073000D01*
X11727000Y17053000D01*
X11473000Y17053000D01*
X11473000Y17073000D01*
X11453000Y17073000D01*
X11453000Y17327000D01*
X11473000Y17327000D01*
X11473000Y18263750D01*
X11314250Y18422500D01*
X10875000Y18425572D01*
X10750518Y18413312D01*
X10630820Y18377002D01*
X10520506Y18318037D01*
X10423815Y18238685D01*
X10344463Y18141994D01*
X10330244Y18115392D01*
X10318322Y18137696D01*
X10270711Y18195711D01*
X10212696Y18243322D01*
X10146508Y18278701D01*
X10074689Y18300487D01*
X10000000Y18307843D01*
X9200000Y18307843D01*
X9125311Y18300487D01*
X9053492Y18278701D01*
X8987304Y18243322D01*
X8929289Y18195711D01*
X8881678Y18137696D01*
X8875306Y18125776D01*
X8855425Y18119745D01*
X8767521Y18072759D01*
X8690473Y18009527D01*
X8674624Y17990215D01*
X8534780Y17850371D01*
X8515473Y17834526D01*
X8452241Y17757478D01*
X8447813Y17749193D01*
X8405254Y17669573D01*
X8376321Y17574191D01*
X8366552Y17474999D01*
X8369000Y17450143D01*
X8368999Y15284591D01*
X8119785Y15035376D01*
X8100473Y15019527D01*
X8037241Y14942479D01*
X7990255Y14854574D01*
X7961322Y14759192D01*
X7954000Y14684853D01*
X7954000Y14684846D01*
X7951553Y14660000D01*
X7954000Y14635154D01*
X7954000Y13868713D01*
X7900587Y13846588D01*
X7707157Y13717342D01*
X7542658Y13552843D01*
X7413412Y13359413D01*
X7324386Y13144485D01*
X7279000Y12916318D01*
X7279000Y12683682D01*
X7324386Y12455515D01*
X7413412Y12240587D01*
X7542658Y12047157D01*
X7707157Y11882658D01*
X7900587Y11753412D01*
X8115515Y11664386D01*
X8343682Y11619000D01*
X8576318Y11619000D01*
X8804485Y11664386D01*
X9019413Y11753412D01*
X9212843Y11882658D01*
X9377342Y12047157D01*
X9506588Y12240587D01*
X9595614Y12455515D01*
X9641000Y12683682D01*
X9641000Y12916318D01*
X9595614Y13144485D01*
X9506588Y13359413D01*
X9377342Y13552843D01*
X9212843Y13717342D01*
X9019413Y13846588D01*
X8966000Y13868712D01*
X8966000Y14450409D01*
X9093708Y14578117D01*
X9101322Y14500808D01*
X9130255Y14405426D01*
X9148759Y14370808D01*
X9177242Y14317521D01*
X9240474Y14240473D01*
X9259780Y14224629D01*
X9823187Y13661221D01*
X9817157Y13600000D01*
X9817157Y12000000D01*
X9824513Y11925311D01*
X9846299Y11853492D01*
X9881678Y11787304D01*
X9929289Y11729289D01*
X9987304Y11681678D01*
X10053492Y11646299D01*
X10125311Y11624513D01*
X10200000Y11617157D01*
X11800000Y11617157D01*
X11874689Y11624513D01*
X11946508Y11646299D01*
X12012696Y11681678D01*
X12070711Y11729289D01*
X12118322Y11787304D01*
X12153701Y11853492D01*
X12175487Y11925311D01*
X12182843Y12000000D01*
X12182843Y12594000D01*
X12339187Y12594000D01*
X12365329Y12507821D01*
X12423810Y12398411D01*
X12502512Y12302512D01*
X12598411Y12223810D01*
X12707821Y12165329D01*
X12826538Y12129317D01*
X12949999Y12117157D01*
X13850001Y12117157D01*
X13973462Y12129317D01*
X14092179Y12165329D01*
X14201589Y12223810D01*
X14297488Y12302512D01*
X14376190Y12398411D01*
X14434671Y12507821D01*
X14470683Y12626538D01*
X14482843Y12749999D01*
X14482843Y13450001D01*
X14470683Y13573462D01*
X14434671Y13692179D01*
X14376190Y13801589D01*
X14297488Y13897488D01*
X14201589Y13976190D01*
X14168269Y13994000D01*
X14975154Y13994000D01*
X15000000Y13991553D01*
X15024846Y13994000D01*
X15024854Y13994000D01*
X15099193Y14001322D01*
X15194575Y14030255D01*
X15282479Y14077241D01*
X15359527Y14140473D01*
X15375376Y14159785D01*
X19349028Y18133436D01*
X19497177Y18072071D01*
X19763983Y18019000D01*
X20036017Y18019000D01*
X20302823Y18072071D01*
X20554149Y18176174D01*
X20719002Y18286325D01*
X20719002Y17511371D01*
X14938632Y11731000D01*
X14413921Y11731000D01*
X14376190Y11801589D01*
X14297488Y11897488D01*
X14201589Y11976190D01*
X14092179Y12034671D01*
X13973462Y12070683D01*
X13850001Y12082843D01*
X12949999Y12082843D01*
X12826538Y12070683D01*
X12707821Y12034671D01*
X12598411Y11976190D01*
X12502512Y11897488D01*
X12423810Y11801589D01*
X12365329Y11692179D01*
X12329317Y11573462D01*
X12317157Y11450001D01*
X12317157Y10749999D01*
X12329317Y10626538D01*
X12335547Y10606000D01*
X11677328Y10606000D01*
X11670683Y10673462D01*
X11634671Y10792179D01*
X11576190Y10901589D01*
X11497488Y10997488D01*
X11401589Y11076190D01*
X11292179Y11134671D01*
X11173462Y11170683D01*
X11050001Y11182843D01*
X10349999Y11182843D01*
X10226538Y11170683D01*
X10107821Y11134671D01*
X9998411Y11076190D01*
X9902512Y10997488D01*
X9823810Y10901589D01*
X9765329Y10792179D01*
X9729317Y10673462D01*
X9717157Y10550001D01*
X9717157Y9649999D01*
X9729317Y9526538D01*
X9765329Y9407821D01*
X9823810Y9298411D01*
X9902512Y9202512D01*
X9998411Y9123810D01*
X10107821Y9065329D01*
X10226538Y9029317D01*
X10349999Y9017157D01*
X11050001Y9017157D01*
X11173462Y9029317D01*
X11174878Y9029747D01*
X10952975Y8807843D01*
X10400000Y8807843D01*
X10276538Y8795683D01*
X10157821Y8759671D01*
X10048411Y8701190D01*
X9952512Y8622488D01*
X9877611Y8531220D01*
X9875812Y8549482D01*
X9839502Y8669180D01*
X9780537Y8779494D01*
X9701185Y8876185D01*
X9604494Y8955537D01*
X9494180Y9014502D01*
X9374482Y9050812D01*
X9276224Y9060489D01*
X9292179Y9065329D01*
X9401589Y9123810D01*
X9497488Y9202512D01*
X9576190Y9298411D01*
X9634671Y9407821D01*
X9670683Y9526538D01*
X9682843Y9649999D01*
X9682843Y10550001D01*
X9670683Y10673462D01*
X9634671Y10792179D01*
X9576190Y10901589D01*
X9497488Y10997488D01*
X9401589Y11076190D01*
X9292179Y11134671D01*
X9173462Y11170683D01*
X9050001Y11182843D01*
X8349999Y11182843D01*
X8226538Y11170683D01*
X8107821Y11134671D01*
X7998411Y11076190D01*
X7902512Y10997488D01*
X7823810Y10901589D01*
X7765329Y10792179D01*
X7729317Y10673462D01*
X7722672Y10606000D01*
X7409592Y10606000D01*
X6426000Y11589591D01*
X6426000Y11731288D01*
X6479413Y11753412D01*
X6672843Y11882658D01*
X6837342Y12047157D01*
X6966588Y12240587D01*
X7055614Y12455515D01*
X7101000Y12683682D01*
X7101000Y12916318D01*
X7055614Y13144485D01*
X6966588Y13359413D01*
X6837342Y13552843D01*
X6672843Y13717342D01*
X6479413Y13846588D01*
X6426000Y13868712D01*
X6426000Y14260409D01*
X7257749Y15092157D01*
X7600000Y15092157D01*
X7674689Y15099513D01*
X7746508Y15121299D01*
X7812696Y15156678D01*
X7870711Y15204289D01*
X7918322Y15262304D01*
X7953701Y15328492D01*
X7975487Y15400311D01*
X7982843Y15475000D01*
X7982843Y15917954D01*
X8047793Y15970448D01*
X8127867Y16066542D01*
X8187656Y16176411D01*
X8224862Y16295834D01*
X8235000Y16414250D01*
X8076250Y16573000D01*
X7327000Y16573000D01*
X7327000Y16553000D01*
X7073000Y16553000D01*
X7073000Y16573000D01*
X6323750Y16573000D01*
X6165000Y16414250D01*
X6175138Y16295834D01*
X6212344Y16176411D01*
X6272133Y16066542D01*
X6352207Y15970448D01*
X6417157Y15917954D01*
X6417157Y15682749D01*
X5579785Y14845376D01*
X5560473Y14829527D01*
X5497241Y14752479D01*
X5450255Y14664574D01*
X5421322Y14569192D01*
X5414000Y14494853D01*
X5414000Y14494846D01*
X5411553Y14470000D01*
X5414000Y14445153D01*
X5414000Y13868713D01*
X5360587Y13846588D01*
X5167157Y13717342D01*
X5002658Y13552843D01*
X4873412Y13359413D01*
X4784386Y13144485D01*
X4741125Y12927002D01*
X4650625Y12927002D01*
X4771909Y13149040D01*
X4677070Y13413881D01*
X4532385Y13655131D01*
X4343414Y13863519D01*
X4117420Y14031037D01*
X3863087Y14151246D01*
X3729039Y14191904D01*
X3507000Y14069915D01*
X3507000Y12927000D01*
X3527000Y12927000D01*
X3527000Y12673000D01*
X3507000Y12673000D01*
X3507000Y11530085D01*
X3729039Y11408096D01*
X3863087Y11448754D01*
X4117420Y11568963D01*
X4343414Y11736481D01*
X4532385Y11944869D01*
X4677070Y12186119D01*
X4771909Y12450960D01*
X4650625Y12672998D01*
X4741125Y12672998D01*
X4784386Y12455515D01*
X4873412Y12240587D01*
X5002658Y12047157D01*
X5167157Y11882658D01*
X5360587Y11753412D01*
X5414000Y11731288D01*
X5414000Y11404847D01*
X5411553Y11380000D01*
X5414000Y11355154D01*
X5414000Y11355147D01*
X5421322Y11280808D01*
X5450255Y11185426D01*
X5497241Y11097521D01*
X5560473Y11020473D01*
X5579785Y11004624D01*
X6824628Y9759780D01*
X6840473Y9740473D01*
X6917521Y9677241D01*
X7005425Y9630255D01*
X7078607Y9608056D01*
X7100806Y9601322D01*
X7110694Y9600348D01*
X7175146Y9594000D01*
X7175153Y9594000D01*
X7199999Y9591553D01*
X7224845Y9594000D01*
X7722672Y9594000D01*
X7729317Y9526538D01*
X7765329Y9407821D01*
X7823810Y9298411D01*
X7902512Y9202512D01*
X7998411Y9123810D01*
X8107821Y9065329D01*
X8116660Y9062648D01*
X8075000Y9063072D01*
X7950518Y9050812D01*
X7830820Y9014502D01*
X7720506Y8955537D01*
X7623815Y8876185D01*
X7544463Y8779494D01*
X7485498Y8669180D01*
X7449188Y8549482D01*
X7436928Y8425000D01*
X7440000Y7985750D01*
X7598750Y7827000D01*
X8535500Y7827000D01*
X8535500Y7847000D01*
X8789500Y7847000D01*
X8789500Y7827000D01*
X8809500Y7827000D01*
X8809500Y7573000D01*
X8789500Y7573000D01*
X8789500Y7553000D01*
X8535500Y7553000D01*
X8535500Y7573000D01*
X7598750Y7573000D01*
X7440000Y7414250D01*
X7436928Y6975000D01*
X7449188Y6850518D01*
X7485498Y6730820D01*
X7544463Y6620506D01*
X7623815Y6523815D01*
X7720506Y6444463D01*
X7830820Y6385498D01*
X7950518Y6349188D01*
X8075000Y6336928D01*
X8230631Y6338512D01*
X8115515Y6315614D01*
X7900587Y6226588D01*
X7707157Y6097342D01*
X7542658Y5932843D01*
X7413412Y5739413D01*
X7324386Y5524485D01*
X7279000Y5296318D01*
X7279000Y5063682D01*
X7307589Y4919958D01*
X6882758Y4495126D01*
X6966588Y4620587D01*
X7055614Y4835515D01*
X7101000Y5063682D01*
X7101000Y5296318D01*
X7055614Y5524485D01*
X6966588Y5739413D01*
X6837342Y5932843D01*
X6672843Y6097342D01*
X6479413Y6226588D01*
X6264485Y6315614D01*
X6036318Y6361000D01*
X5803682Y6361000D01*
X5575515Y6315614D01*
X5360587Y6226588D01*
X5167157Y6097342D01*
X5002658Y5932843D01*
X4873412Y5739413D01*
X4784386Y5524485D01*
X4739000Y5296318D01*
X4739000Y5063682D01*
X4784386Y4835515D01*
X4873412Y4620587D01*
X5002658Y4427157D01*
X5167157Y4262658D01*
X5360587Y4133412D01*
X5575515Y4044386D01*
X5803682Y3999000D01*
X6036318Y3999000D01*
X6264485Y4044386D01*
X6479413Y4133412D01*
X6604874Y4217243D01*
X6095475Y3707843D01*
X5762500Y3707843D01*
X5639038Y3695683D01*
X5520321Y3659671D01*
X5410911Y3601190D01*
X5315012Y3522488D01*
X5240111Y3431220D01*
X5238312Y3449482D01*
X5202002Y3569180D01*
X5143037Y3679494D01*
X5063685Y3776185D01*
X4966994Y3855537D01*
X4856680Y3914502D01*
X4736982Y3950812D01*
X4612500Y3963072D01*
X4310750Y3960000D01*
X4152000Y3801250D01*
X4152000Y2727000D01*
X4172000Y2727000D01*
X4172000Y2473000D01*
X4152000Y2473000D01*
X4152000Y1398750D01*
X4310750Y1240000D01*
X4612500Y1236928D01*
X4736982Y1249188D01*
X4856680Y1285498D01*
X4966994Y1344463D01*
X5063685Y1423815D01*
X5143037Y1520506D01*
X5202002Y1630820D01*
X5238312Y1750518D01*
X5240111Y1768780D01*
X5315012Y1677512D01*
X5410911Y1598810D01*
X5520321Y1540329D01*
X5639038Y1504317D01*
X5762500Y1492157D01*
X6437500Y1492157D01*
X6560962Y1504317D01*
X6679679Y1540329D01*
X6789089Y1598810D01*
X6884988Y1677512D01*
X6960070Y1769000D01*
X7227157Y1769000D01*
X7227157Y1450000D01*
X7234513Y1375311D01*
X7256299Y1303492D01*
X7291678Y1237304D01*
X7339289Y1179289D01*
X7397304Y1131678D01*
X7463492Y1096299D01*
X7535311Y1074513D01*
X7610000Y1067157D01*
X9310000Y1067157D01*
X9384689Y1074513D01*
X9456508Y1096299D01*
X9522696Y1131678D01*
X9580711Y1179289D01*
X9628322Y1237304D01*
X9663701Y1303492D01*
X9685487Y1375311D01*
X9692843Y1450000D01*
X9692843Y3150000D01*
X9685487Y3224689D01*
X9663701Y3296508D01*
X9628322Y3362696D01*
X9580711Y3420711D01*
X9522696Y3468322D01*
X9456508Y3503701D01*
X9384689Y3525487D01*
X9310000Y3532843D01*
X7705211Y3532843D01*
X8199958Y4027589D01*
X8343682Y3999000D01*
X8576318Y3999000D01*
X8804485Y4044386D01*
X9019413Y4133412D01*
X9212843Y4262658D01*
X9377342Y4427157D01*
X9506588Y4620587D01*
X9595614Y4835515D01*
X9641000Y5063682D01*
X9641000Y5296318D01*
X9595614Y5524485D01*
X9506588Y5739413D01*
X9377342Y5932843D01*
X9212843Y6097342D01*
X9019413Y6226588D01*
X8804485Y6315614D01*
X8681890Y6340000D01*
X8789502Y6340000D01*
X8789502Y6498748D01*
X8948250Y6340000D01*
X9250000Y6336928D01*
X9374482Y6349188D01*
X9494180Y6385498D01*
X9604494Y6444463D01*
X9701185Y6523815D01*
X9780537Y6620506D01*
X9839502Y6730820D01*
X9875812Y6850518D01*
X9877611Y6868780D01*
X9952512Y6777512D01*
X10048411Y6698810D01*
X10157821Y6640329D01*
X10276538Y6604317D01*
X10369001Y6595210D01*
X10369001Y6178755D01*
X10247157Y6097342D01*
X10082658Y5932843D01*
X9953412Y5739413D01*
X9864386Y5524485D01*
X9819000Y5296318D01*
X9819000Y5063682D01*
X9864386Y4835515D01*
X9953412Y4620587D01*
X10082658Y4427157D01*
X10247157Y4262658D01*
X10369000Y4181245D01*
X10369001Y3358891D01*
X10215283Y3256180D01*
X10043820Y3084717D01*
X9909102Y2883097D01*
X9816307Y2659069D01*
X9769000Y2421243D01*
X9769000Y2178757D01*
X9816307Y1940931D01*
X9909102Y1716903D01*
X10043820Y1515283D01*
X10215283Y1343820D01*
X10416903Y1209102D01*
X10640931Y1116307D01*
X10878757Y1069000D01*
X11121243Y1069000D01*
X11359069Y1116307D01*
X11583097Y1209102D01*
X11784717Y1343820D01*
X11956180Y1515283D01*
X12090898Y1716903D01*
X12138228Y1831168D01*
X12195843Y1668748D01*
X12344822Y1418645D01*
X12539731Y1202412D01*
X12773080Y1028359D01*
X13035901Y903175D01*
X13183110Y858524D01*
X13413000Y979845D01*
X13413000Y2173000D01*
X13667000Y2173000D01*
X13667000Y979845D01*
X13896890Y858524D01*
X14044099Y903175D01*
X14306920Y1028359D01*
X14540269Y1202412D01*
X14735178Y1418645D01*
X14884157Y1668748D01*
X14981481Y1943109D01*
X14860814Y2173000D01*
X13667000Y2173000D01*
X13413000Y2173000D01*
X13393000Y2173000D01*
X13393000Y2427000D01*
X13413000Y2427000D01*
X13413000Y3620155D01*
X13667000Y3620155D01*
X13667000Y2427000D01*
X14860814Y2427000D01*
X14981481Y2656891D01*
X14884157Y2931252D01*
X14735178Y3181355D01*
X14540269Y3397588D01*
X14306920Y3571641D01*
X14044099Y3696825D01*
X13896890Y3741476D01*
X13667000Y3620155D01*
X13413000Y3620155D01*
X13183110Y3741476D01*
X13035901Y3696825D01*
X12773080Y3571641D01*
X12539731Y3397588D01*
X12344822Y3181355D01*
X12195843Y2931252D01*
X12138228Y2768832D01*
X12090898Y2883097D01*
X11956180Y3084717D01*
X11784717Y3256180D01*
X11631000Y3358890D01*
X11631000Y4181245D01*
X11752843Y4262658D01*
X11917342Y4427157D01*
X12046588Y4620587D01*
X12135614Y4835515D01*
X12181000Y5063682D01*
X12181000Y5296318D01*
X12135614Y5524485D01*
X12046588Y5739413D01*
X11917342Y5932843D01*
X11752843Y6097342D01*
X11631000Y6178755D01*
X11631000Y6929181D01*
X11659671Y6982821D01*
X11695683Y7101538D01*
X11707843Y7225000D01*
X11707843Y7777975D01*
X13824268Y9894399D01*
X13848343Y9914157D01*
X13927196Y10010239D01*
X13985789Y10119858D01*
X13990198Y10134394D01*
X14092179Y10165329D01*
X14201589Y10223810D01*
X14297488Y10302512D01*
X14376190Y10398411D01*
X14413921Y10469000D01*
X15169010Y10469000D01*
X15200000Y10465948D01*
X15230990Y10469000D01*
X15230998Y10469000D01*
X15323698Y10478130D01*
X15442642Y10514211D01*
X15552261Y10572804D01*
X15648343Y10651657D01*
X15668105Y10675737D01*
X15757994Y10765626D01*
X15669000Y10318226D01*
X15669000Y9681774D01*
X15793166Y9057552D01*
X16036725Y8469548D01*
X16390319Y7940358D01*
X16840358Y7490319D01*
X17369548Y7136725D01*
X17957552Y6893166D01*
X18581774Y6769000D01*
X19218226Y6769000D01*
X19842448Y6893166D01*
X20430452Y7136725D01*
X20959642Y7490319D01*
X21409681Y7940358D01*
X21594000Y8216211D01*
X21594000Y406000D01*
X406000Y406000D01*
X406000Y1875000D01*
X2799428Y1875000D01*
X2811688Y1750518D01*
X2847998Y1630820D01*
X2906963Y1520506D01*
X2986315Y1423815D01*
X3083006Y1344463D01*
X3193320Y1285498D01*
X3313018Y1249188D01*
X3437500Y1236928D01*
X3739250Y1240000D01*
X3898000Y1398750D01*
X3898000Y2473000D01*
X2961250Y2473000D01*
X2802500Y2314250D01*
X2799428Y1875000D01*
X406000Y1875000D01*
X406000Y3325000D01*
X2799428Y3325000D01*
X2802500Y2885750D01*
X2961250Y2727000D01*
X3898000Y2727000D01*
X3898000Y3801250D01*
X3739250Y3960000D01*
X3437500Y3963072D01*
X3313018Y3950812D01*
X3193320Y3914502D01*
X3083006Y3855537D01*
X2986315Y3776185D01*
X2906963Y3679494D01*
X2847998Y3569180D01*
X2811688Y3449482D01*
X2799428Y3325000D01*
X406000Y3325000D01*
X406000Y5296318D01*
X2199000Y5296318D01*
X2199000Y5063682D01*
X2244386Y4835515D01*
X2333412Y4620587D01*
X2462658Y4427157D01*
X2627157Y4262658D01*
X2820587Y4133412D01*
X3035515Y4044386D01*
X3263682Y3999000D01*
X3496318Y3999000D01*
X3724485Y4044386D01*
X3939413Y4133412D01*
X4132843Y4262658D01*
X4297342Y4427157D01*
X4426588Y4620587D01*
X4515614Y4835515D01*
X4561000Y5063682D01*
X4561000Y5296318D01*
X4515614Y5524485D01*
X4426588Y5739413D01*
X4297342Y5932843D01*
X4132843Y6097342D01*
X3939413Y6226588D01*
X3724485Y6315614D01*
X3496318Y6361000D01*
X3263682Y6361000D01*
X3035515Y6315614D01*
X2820587Y6226588D01*
X2627157Y6097342D01*
X2462658Y5932843D01*
X2333412Y5739413D01*
X2244386Y5524485D01*
X2199000Y5296318D01*
X406000Y5296318D01*
X406000Y12450960D01*
X1988091Y12450960D01*
X2082930Y12186119D01*
X2227615Y11944869D01*
X2416586Y11736481D01*
X2642580Y11568963D01*
X2896913Y11448754D01*
X3030961Y11408096D01*
X3253000Y11530085D01*
X3253000Y12673000D01*
X2109376Y12673000D01*
X1988091Y12450960D01*
X406000Y12450960D01*
X406000Y13149040D01*
X1988091Y13149040D01*
X2109376Y12927000D01*
X3253000Y12927000D01*
X3253000Y14069915D01*
X3030961Y14191904D01*
X2896913Y14151246D01*
X2642580Y14031037D01*
X2416586Y13863519D01*
X2227615Y13655131D01*
X2082930Y13413881D01*
X1988091Y13149040D01*
X406000Y13149040D01*
X406000Y19216210D01*
X590319Y18940358D01*
X1040358Y18490319D01*
X1569548Y18136725D01*
X2157552Y17893166D01*
X2781774Y17769000D01*
X3418226Y17769000D01*
X4042448Y17893166D01*
X4630452Y18136725D01*
X5159642Y18490319D01*
X5609681Y18940358D01*
X5963275Y19469548D01*
X6206834Y20057552D01*
X6331000Y20681774D01*
X6331000Y21318226D01*
X6206834Y21942448D01*
X5963275Y22530452D01*
X5609681Y23059642D01*
X5159642Y23509681D01*
X4630452Y23863275D01*
X4042448Y24106834D01*
X3418226Y24231000D01*
X2781774Y24231000D01*
X2157552Y24106834D01*
X1569548Y23863275D01*
X1040358Y23509681D01*
X590319Y23059642D01*
X406000Y22783790D01*
X406000Y26594000D01*
X21594001Y26594000D01*
X21594001Y21698368D01*
G37*
G04 #@! TD.AperFunction*
M02*
