G04 #@! TF.GenerationSoftware,KiCad,Pcbnew,(5.1.7)-1*
G04 #@! TF.CreationDate,2021-05-21T20:03:00+02:00*
G04 #@! TF.ProjectId,attinyDPS,61747469-6e79-4445-9053-2e6b69636164,rev?*
G04 #@! TF.SameCoordinates,Original*
G04 #@! TF.FileFunction,Legend,Bot*
G04 #@! TF.FilePolarity,Positive*
%FSLAX46Y46*%
G04 Gerber Fmt 4.6, Leading zero omitted, Abs format (unit mm)*
G04 Created by KiCad (PCBNEW (5.1.7)-1) date 2021-05-21 20:03:00*
%MOMM*%
%LPD*%
G01*
G04 APERTURE LIST*
%ADD10C,0.120000*%
%ADD11C,0.100000*%
%ADD12C,0.150000*%
G04 APERTURE END LIST*
D10*
X9927064Y9365000D02*
X9472936Y9365000D01*
X9927064Y10835000D02*
X9472936Y10835000D01*
D11*
X7450000Y18100000D02*
X7450000Y18350000D01*
X7450000Y18350000D02*
X7800000Y18350000D01*
X9350000Y18100000D02*
X9350000Y18350000D01*
X9350000Y18350000D02*
X9000000Y18350000D01*
X9100000Y15050000D02*
X9350000Y15050000D01*
X9350000Y15050000D02*
X9350000Y15300000D01*
X8100000Y15050000D02*
X7750000Y15050000D01*
X7750000Y15050000D02*
X7450000Y15350000D01*
X7450000Y15350000D02*
X7450000Y15400000D01*
X7450000Y15400000D02*
X7300000Y15400000D01*
D10*
X14135000Y11872936D02*
X14135000Y12327064D01*
X12665000Y11872936D02*
X12665000Y12327064D01*
X12335000Y15901248D02*
X12335000Y16423752D01*
X10865000Y15901248D02*
X10865000Y16423752D01*
X9961252Y8435000D02*
X9438748Y8435000D01*
X9961252Y6965000D02*
X9438748Y6965000D01*
X5323752Y3335000D02*
X4801248Y3335000D01*
X5323752Y1865000D02*
X4801248Y1865000D01*
X10865000Y22961252D02*
X10865000Y22438748D01*
X12335000Y22961252D02*
X12335000Y22438748D01*
X13165000Y22961252D02*
X13165000Y22438748D01*
X14635000Y22961252D02*
X14635000Y22438748D01*
X15465000Y21323752D02*
X15465000Y20801248D01*
X16935000Y21323752D02*
X16935000Y20801248D01*
D12*
X9866666Y11297619D02*
X10200000Y11773809D01*
X10438095Y11297619D02*
X10438095Y12297619D01*
X10057142Y12297619D01*
X9961904Y12250000D01*
X9914285Y12202380D01*
X9866666Y12107142D01*
X9866666Y11964285D01*
X9914285Y11869047D01*
X9961904Y11821428D01*
X10057142Y11773809D01*
X10438095Y11773809D01*
X9485714Y12202380D02*
X9438095Y12250000D01*
X9342857Y12297619D01*
X9104761Y12297619D01*
X9009523Y12250000D01*
X8961904Y12202380D01*
X8914285Y12107142D01*
X8914285Y12011904D01*
X8961904Y11869047D01*
X9533333Y11297619D01*
X8914285Y11297619D01*
X9161904Y19747619D02*
X9161904Y18938095D01*
X9114285Y18842857D01*
X9066666Y18795238D01*
X8971428Y18747619D01*
X8780952Y18747619D01*
X8685714Y18795238D01*
X8638095Y18842857D01*
X8590476Y18938095D01*
X8590476Y19747619D01*
X7590476Y18747619D02*
X8161904Y18747619D01*
X7876190Y18747619D02*
X7876190Y19747619D01*
X7971428Y19604761D01*
X8066666Y19509523D01*
X8161904Y19461904D01*
X15502380Y12266666D02*
X15026190Y12600000D01*
X15502380Y12838095D02*
X14502380Y12838095D01*
X14502380Y12457142D01*
X14550000Y12361904D01*
X14597619Y12314285D01*
X14692857Y12266666D01*
X14835714Y12266666D01*
X14930952Y12314285D01*
X14978571Y12361904D01*
X15026190Y12457142D01*
X15026190Y12838095D01*
X15502380Y11314285D02*
X15502380Y11885714D01*
X15502380Y11600000D02*
X14502380Y11600000D01*
X14645238Y11695238D01*
X14740476Y11790476D01*
X14788095Y11885714D01*
X13637142Y16329166D02*
X13684761Y16376785D01*
X13732380Y16519642D01*
X13732380Y16614880D01*
X13684761Y16757738D01*
X13589523Y16852976D01*
X13494285Y16900595D01*
X13303809Y16948214D01*
X13160952Y16948214D01*
X12970476Y16900595D01*
X12875238Y16852976D01*
X12780000Y16757738D01*
X12732380Y16614880D01*
X12732380Y16519642D01*
X12780000Y16376785D01*
X12827619Y16329166D01*
X12732380Y15472023D02*
X12732380Y15662500D01*
X12780000Y15757738D01*
X12827619Y15805357D01*
X12970476Y15900595D01*
X13160952Y15948214D01*
X13541904Y15948214D01*
X13637142Y15900595D01*
X13684761Y15852976D01*
X13732380Y15757738D01*
X13732380Y15567261D01*
X13684761Y15472023D01*
X13637142Y15424404D01*
X13541904Y15376785D01*
X13303809Y15376785D01*
X13208571Y15424404D01*
X13160952Y15472023D01*
X13113333Y15567261D01*
X13113333Y15757738D01*
X13160952Y15852976D01*
X13208571Y15900595D01*
X13303809Y15948214D01*
X9866666Y9022857D02*
X9914285Y8975238D01*
X10057142Y8927619D01*
X10152380Y8927619D01*
X10295238Y8975238D01*
X10390476Y9070476D01*
X10438095Y9165714D01*
X10485714Y9356190D01*
X10485714Y9499047D01*
X10438095Y9689523D01*
X10390476Y9784761D01*
X10295238Y9880000D01*
X10152380Y9927619D01*
X10057142Y9927619D01*
X9914285Y9880000D01*
X9866666Y9832380D01*
X8961904Y9927619D02*
X9438095Y9927619D01*
X9485714Y9451428D01*
X9438095Y9499047D01*
X9342857Y9546666D01*
X9104761Y9546666D01*
X9009523Y9499047D01*
X8961904Y9451428D01*
X8914285Y9356190D01*
X8914285Y9118095D01*
X8961904Y9022857D01*
X9009523Y8975238D01*
X9104761Y8927619D01*
X9342857Y8927619D01*
X9438095Y8975238D01*
X9485714Y9022857D01*
X2466666Y2142857D02*
X2514285Y2095238D01*
X2657142Y2047619D01*
X2752380Y2047619D01*
X2895238Y2095238D01*
X2990476Y2190476D01*
X3038095Y2285714D01*
X3085714Y2476190D01*
X3085714Y2619047D01*
X3038095Y2809523D01*
X2990476Y2904761D01*
X2895238Y3000000D01*
X2752380Y3047619D01*
X2657142Y3047619D01*
X2514285Y3000000D01*
X2466666Y2952380D01*
X1609523Y2714285D02*
X1609523Y2047619D01*
X1847619Y3095238D02*
X2085714Y2380952D01*
X1466666Y2380952D01*
X12057142Y25566666D02*
X12104761Y25614285D01*
X12152380Y25757142D01*
X12152380Y25852380D01*
X12104761Y25995238D01*
X12009523Y26090476D01*
X11914285Y26138095D01*
X11723809Y26185714D01*
X11580952Y26185714D01*
X11390476Y26138095D01*
X11295238Y26090476D01*
X11200000Y25995238D01*
X11152380Y25852380D01*
X11152380Y25757142D01*
X11200000Y25614285D01*
X11247619Y25566666D01*
X11152380Y25233333D02*
X11152380Y24614285D01*
X11533333Y24947619D01*
X11533333Y24804761D01*
X11580952Y24709523D01*
X11628571Y24661904D01*
X11723809Y24614285D01*
X11961904Y24614285D01*
X12057142Y24661904D01*
X12104761Y24709523D01*
X12152380Y24804761D01*
X12152380Y25090476D01*
X12104761Y25185714D01*
X12057142Y25233333D01*
X14257142Y25566666D02*
X14304761Y25614285D01*
X14352380Y25757142D01*
X14352380Y25852380D01*
X14304761Y25995238D01*
X14209523Y26090476D01*
X14114285Y26138095D01*
X13923809Y26185714D01*
X13780952Y26185714D01*
X13590476Y26138095D01*
X13495238Y26090476D01*
X13400000Y25995238D01*
X13352380Y25852380D01*
X13352380Y25757142D01*
X13400000Y25614285D01*
X13447619Y25566666D01*
X13447619Y25185714D02*
X13400000Y25138095D01*
X13352380Y25042857D01*
X13352380Y24804761D01*
X13400000Y24709523D01*
X13447619Y24661904D01*
X13542857Y24614285D01*
X13638095Y24614285D01*
X13780952Y24661904D01*
X14352380Y25233333D01*
X14352380Y24614285D01*
X18257142Y21266666D02*
X18304761Y21314285D01*
X18352380Y21457142D01*
X18352380Y21552380D01*
X18304761Y21695238D01*
X18209523Y21790476D01*
X18114285Y21838095D01*
X17923809Y21885714D01*
X17780952Y21885714D01*
X17590476Y21838095D01*
X17495238Y21790476D01*
X17400000Y21695238D01*
X17352380Y21552380D01*
X17352380Y21457142D01*
X17400000Y21314285D01*
X17447619Y21266666D01*
X18352380Y20314285D02*
X18352380Y20885714D01*
X18352380Y20600000D02*
X17352380Y20600000D01*
X17495238Y20695238D01*
X17590476Y20790476D01*
X17638095Y20885714D01*
M02*
