G04 #@! TF.GenerationSoftware,KiCad,Pcbnew,(5.1.7)-1*
G04 #@! TF.CreationDate,2021-05-21T20:03:00+02:00*
G04 #@! TF.ProjectId,attinyDPS,61747469-6e79-4445-9053-2e6b69636164,rev?*
G04 #@! TF.SameCoordinates,Original*
G04 #@! TF.FileFunction,Paste,Bot*
G04 #@! TF.FilePolarity,Positive*
%FSLAX46Y46*%
G04 Gerber Fmt 4.6, Leading zero omitted, Abs format (unit mm)*
G04 Created by KiCad (PCBNEW (5.1.7)-1) date 2021-05-21 20:03:00*
%MOMM*%
%LPD*%
G01*
G04 APERTURE LIST*
%ADD10R,0.800000X0.550000*%
G04 APERTURE END LIST*
G36*
G01*
X9300000Y10550001D02*
X9300000Y9649999D01*
G75*
G02*
X9050001Y9400000I-249999J0D01*
G01*
X8349999Y9400000D01*
G75*
G02*
X8100000Y9649999I0J249999D01*
G01*
X8100000Y10550001D01*
G75*
G02*
X8349999Y10800000I249999J0D01*
G01*
X9050001Y10800000D01*
G75*
G02*
X9300000Y10550001I0J-249999D01*
G01*
G37*
G36*
G01*
X11300000Y10550001D02*
X11300000Y9649999D01*
G75*
G02*
X11050001Y9400000I-249999J0D01*
G01*
X10349999Y9400000D01*
G75*
G02*
X10100000Y9649999I0J249999D01*
G01*
X10100000Y10550001D01*
G75*
G02*
X10349999Y10800000I249999J0D01*
G01*
X11050001Y10800000D01*
G75*
G02*
X11300000Y10550001I0J-249999D01*
G01*
G37*
D10*
X9600000Y15750000D03*
X9600000Y16700000D03*
X9600000Y17650000D03*
X7200000Y17650000D03*
X7200000Y16700000D03*
X7200000Y15750000D03*
G36*
G01*
X13850001Y12500000D02*
X12949999Y12500000D01*
G75*
G02*
X12700000Y12749999I0J249999D01*
G01*
X12700000Y13450001D01*
G75*
G02*
X12949999Y13700000I249999J0D01*
G01*
X13850001Y13700000D01*
G75*
G02*
X14100000Y13450001I0J-249999D01*
G01*
X14100000Y12749999D01*
G75*
G02*
X13850001Y12500000I-249999J0D01*
G01*
G37*
G36*
G01*
X13850001Y10500000D02*
X12949999Y10500000D01*
G75*
G02*
X12700000Y10749999I0J249999D01*
G01*
X12700000Y11450001D01*
G75*
G02*
X12949999Y11700000I249999J0D01*
G01*
X13850001Y11700000D01*
G75*
G02*
X14100000Y11450001I0J-249999D01*
G01*
X14100000Y10749999D01*
G75*
G02*
X13850001Y10500000I-249999J0D01*
G01*
G37*
G36*
G01*
X12075000Y16612500D02*
X11125000Y16612500D01*
G75*
G02*
X10875000Y16862500I0J250000D01*
G01*
X10875000Y17537500D01*
G75*
G02*
X11125000Y17787500I250000J0D01*
G01*
X12075000Y17787500D01*
G75*
G02*
X12325000Y17537500I0J-250000D01*
G01*
X12325000Y16862500D01*
G75*
G02*
X12075000Y16612500I-250000J0D01*
G01*
G37*
G36*
G01*
X12075000Y14537500D02*
X11125000Y14537500D01*
G75*
G02*
X10875000Y14787500I0J250000D01*
G01*
X10875000Y15462500D01*
G75*
G02*
X11125000Y15712500I250000J0D01*
G01*
X12075000Y15712500D01*
G75*
G02*
X12325000Y15462500I0J-250000D01*
G01*
X12325000Y14787500D01*
G75*
G02*
X12075000Y14537500I-250000J0D01*
G01*
G37*
G36*
G01*
X9250000Y8175000D02*
X9250000Y7225000D01*
G75*
G02*
X9000000Y6975000I-250000J0D01*
G01*
X8325000Y6975000D01*
G75*
G02*
X8075000Y7225000I0J250000D01*
G01*
X8075000Y8175000D01*
G75*
G02*
X8325000Y8425000I250000J0D01*
G01*
X9000000Y8425000D01*
G75*
G02*
X9250000Y8175000I0J-250000D01*
G01*
G37*
G36*
G01*
X11325000Y8175000D02*
X11325000Y7225000D01*
G75*
G02*
X11075000Y6975000I-250000J0D01*
G01*
X10400000Y6975000D01*
G75*
G02*
X10150000Y7225000I0J250000D01*
G01*
X10150000Y8175000D01*
G75*
G02*
X10400000Y8425000I250000J0D01*
G01*
X11075000Y8425000D01*
G75*
G02*
X11325000Y8175000I0J-250000D01*
G01*
G37*
G36*
G01*
X4612500Y3075000D02*
X4612500Y2125000D01*
G75*
G02*
X4362500Y1875000I-250000J0D01*
G01*
X3687500Y1875000D01*
G75*
G02*
X3437500Y2125000I0J250000D01*
G01*
X3437500Y3075000D01*
G75*
G02*
X3687500Y3325000I250000J0D01*
G01*
X4362500Y3325000D01*
G75*
G02*
X4612500Y3075000I0J-250000D01*
G01*
G37*
G36*
G01*
X6687500Y3075000D02*
X6687500Y2125000D01*
G75*
G02*
X6437500Y1875000I-250000J0D01*
G01*
X5762500Y1875000D01*
G75*
G02*
X5512500Y2125000I0J250000D01*
G01*
X5512500Y3075000D01*
G75*
G02*
X5762500Y3325000I250000J0D01*
G01*
X6437500Y3325000D01*
G75*
G02*
X6687500Y3075000I0J-250000D01*
G01*
G37*
G36*
G01*
X11125000Y22250000D02*
X12075000Y22250000D01*
G75*
G02*
X12325000Y22000000I0J-250000D01*
G01*
X12325000Y21325000D01*
G75*
G02*
X12075000Y21075000I-250000J0D01*
G01*
X11125000Y21075000D01*
G75*
G02*
X10875000Y21325000I0J250000D01*
G01*
X10875000Y22000000D01*
G75*
G02*
X11125000Y22250000I250000J0D01*
G01*
G37*
G36*
G01*
X11125000Y24325000D02*
X12075000Y24325000D01*
G75*
G02*
X12325000Y24075000I0J-250000D01*
G01*
X12325000Y23400000D01*
G75*
G02*
X12075000Y23150000I-250000J0D01*
G01*
X11125000Y23150000D01*
G75*
G02*
X10875000Y23400000I0J250000D01*
G01*
X10875000Y24075000D01*
G75*
G02*
X11125000Y24325000I250000J0D01*
G01*
G37*
G36*
G01*
X13425000Y22250000D02*
X14375000Y22250000D01*
G75*
G02*
X14625000Y22000000I0J-250000D01*
G01*
X14625000Y21325000D01*
G75*
G02*
X14375000Y21075000I-250000J0D01*
G01*
X13425000Y21075000D01*
G75*
G02*
X13175000Y21325000I0J250000D01*
G01*
X13175000Y22000000D01*
G75*
G02*
X13425000Y22250000I250000J0D01*
G01*
G37*
G36*
G01*
X13425000Y24325000D02*
X14375000Y24325000D01*
G75*
G02*
X14625000Y24075000I0J-250000D01*
G01*
X14625000Y23400000D01*
G75*
G02*
X14375000Y23150000I-250000J0D01*
G01*
X13425000Y23150000D01*
G75*
G02*
X13175000Y23400000I0J250000D01*
G01*
X13175000Y24075000D01*
G75*
G02*
X13425000Y24325000I250000J0D01*
G01*
G37*
G36*
G01*
X15725000Y20612500D02*
X16675000Y20612500D01*
G75*
G02*
X16925000Y20362500I0J-250000D01*
G01*
X16925000Y19687500D01*
G75*
G02*
X16675000Y19437500I-250000J0D01*
G01*
X15725000Y19437500D01*
G75*
G02*
X15475000Y19687500I0J250000D01*
G01*
X15475000Y20362500D01*
G75*
G02*
X15725000Y20612500I250000J0D01*
G01*
G37*
G36*
G01*
X15725000Y22687500D02*
X16675000Y22687500D01*
G75*
G02*
X16925000Y22437500I0J-250000D01*
G01*
X16925000Y21762500D01*
G75*
G02*
X16675000Y21512500I-250000J0D01*
G01*
X15725000Y21512500D01*
G75*
G02*
X15475000Y21762500I0J250000D01*
G01*
X15475000Y22437500D01*
G75*
G02*
X15725000Y22687500I250000J0D01*
G01*
G37*
M02*
