G04 #@! TF.GenerationSoftware,KiCad,Pcbnew,(5.1.7)-1*
G04 #@! TF.CreationDate,2021-05-21T19:56:49+02:00*
G04 #@! TF.ProjectId,hlavniDPS,686c6176-6e69-4445-9053-2e6b69636164,rev?*
G04 #@! TF.SameCoordinates,Original*
G04 #@! TF.FileFunction,Soldermask,Top*
G04 #@! TF.FilePolarity,Negative*
%FSLAX46Y46*%
G04 Gerber Fmt 4.6, Leading zero omitted, Abs format (unit mm)*
G04 Created by KiCad (PCBNEW (5.1.7)-1) date 2021-05-21 19:56:49*
%MOMM*%
%LPD*%
G01*
G04 APERTURE LIST*
%ADD10R,2.100000X1.400000*%
%ADD11R,0.550000X0.800000*%
%ADD12R,2.000000X0.900000*%
%ADD13R,0.900000X2.000000*%
%ADD14R,5.000000X5.000000*%
%ADD15R,0.400000X1.190000*%
%ADD16C,2.000000*%
%ADD17C,3.250000*%
%ADD18C,1.520000*%
%ADD19R,1.520000X1.520000*%
%ADD20C,2.400000*%
%ADD21C,5.700000*%
%ADD22R,0.900000X0.800000*%
%ADD23R,0.800000X0.900000*%
%ADD24R,1.700000X1.700000*%
%ADD25O,1.700000X1.700000*%
%ADD26R,0.650000X1.060000*%
%ADD27C,3.000000*%
%ADD28R,1.200000X0.900000*%
G04 APERTURE END LIST*
D10*
X175050000Y-87750000D03*
X175050000Y-92250000D03*
X165950000Y-92250000D03*
X165950000Y-87750000D03*
G36*
G01*
X142625000Y-106687500D02*
X143575000Y-106687500D01*
G75*
G02*
X143825000Y-106937500I0J-250000D01*
G01*
X143825000Y-107612500D01*
G75*
G02*
X143575000Y-107862500I-250000J0D01*
G01*
X142625000Y-107862500D01*
G75*
G02*
X142375000Y-107612500I0J250000D01*
G01*
X142375000Y-106937500D01*
G75*
G02*
X142625000Y-106687500I250000J0D01*
G01*
G37*
G36*
G01*
X142625000Y-104612500D02*
X143575000Y-104612500D01*
G75*
G02*
X143825000Y-104862500I0J-250000D01*
G01*
X143825000Y-105537500D01*
G75*
G02*
X143575000Y-105787500I-250000J0D01*
G01*
X142625000Y-105787500D01*
G75*
G02*
X142375000Y-105537500I0J250000D01*
G01*
X142375000Y-104862500D01*
G75*
G02*
X142625000Y-104612500I250000J0D01*
G01*
G37*
D11*
X147850000Y-102600000D03*
X148800000Y-102600000D03*
X149750000Y-102600000D03*
X149750000Y-100200000D03*
X148800000Y-100200000D03*
X147850000Y-100200000D03*
G36*
G01*
X146400000Y-110350001D02*
X146400000Y-109449999D01*
G75*
G02*
X146649999Y-109200000I249999J0D01*
G01*
X147350001Y-109200000D01*
G75*
G02*
X147600000Y-109449999I0J-249999D01*
G01*
X147600000Y-110350001D01*
G75*
G02*
X147350001Y-110600000I-249999J0D01*
G01*
X146649999Y-110600000D01*
G75*
G02*
X146400000Y-110350001I0J249999D01*
G01*
G37*
G36*
G01*
X144400000Y-110350001D02*
X144400000Y-109449999D01*
G75*
G02*
X144649999Y-109200000I249999J0D01*
G01*
X145350001Y-109200000D01*
G75*
G02*
X145600000Y-109449999I0J-249999D01*
G01*
X145600000Y-110350001D01*
G75*
G02*
X145350001Y-110600000I-249999J0D01*
G01*
X144649999Y-110600000D01*
G75*
G02*
X144400000Y-110350001I0J249999D01*
G01*
G37*
G36*
G01*
X151300000Y-109449999D02*
X151300000Y-110350001D01*
G75*
G02*
X151050001Y-110600000I-249999J0D01*
G01*
X150349999Y-110600000D01*
G75*
G02*
X150100000Y-110350001I0J249999D01*
G01*
X150100000Y-109449999D01*
G75*
G02*
X150349999Y-109200000I249999J0D01*
G01*
X151050001Y-109200000D01*
G75*
G02*
X151300000Y-109449999I0J-249999D01*
G01*
G37*
G36*
G01*
X153300000Y-109449999D02*
X153300000Y-110350001D01*
G75*
G02*
X153050001Y-110600000I-249999J0D01*
G01*
X152349999Y-110600000D01*
G75*
G02*
X152100000Y-110350001I0J249999D01*
G01*
X152100000Y-109449999D01*
G75*
G02*
X152349999Y-109200000I249999J0D01*
G01*
X153050001Y-109200000D01*
G75*
G02*
X153300000Y-109449999I0J-249999D01*
G01*
G37*
G36*
G01*
X151300000Y-111649999D02*
X151300000Y-112550001D01*
G75*
G02*
X151050001Y-112800000I-249999J0D01*
G01*
X150349999Y-112800000D01*
G75*
G02*
X150100000Y-112550001I0J249999D01*
G01*
X150100000Y-111649999D01*
G75*
G02*
X150349999Y-111400000I249999J0D01*
G01*
X151050001Y-111400000D01*
G75*
G02*
X151300000Y-111649999I0J-249999D01*
G01*
G37*
G36*
G01*
X153300000Y-111649999D02*
X153300000Y-112550001D01*
G75*
G02*
X153050001Y-112800000I-249999J0D01*
G01*
X152349999Y-112800000D01*
G75*
G02*
X152100000Y-112550001I0J249999D01*
G01*
X152100000Y-111649999D01*
G75*
G02*
X152349999Y-111400000I249999J0D01*
G01*
X153050001Y-111400000D01*
G75*
G02*
X153300000Y-111649999I0J-249999D01*
G01*
G37*
G36*
G01*
X146400000Y-112550001D02*
X146400000Y-111649999D01*
G75*
G02*
X146649999Y-111400000I249999J0D01*
G01*
X147350001Y-111400000D01*
G75*
G02*
X147600000Y-111649999I0J-249999D01*
G01*
X147600000Y-112550001D01*
G75*
G02*
X147350001Y-112800000I-249999J0D01*
G01*
X146649999Y-112800000D01*
G75*
G02*
X146400000Y-112550001I0J249999D01*
G01*
G37*
G36*
G01*
X144400000Y-112550001D02*
X144400000Y-111649999D01*
G75*
G02*
X144649999Y-111400000I249999J0D01*
G01*
X145350001Y-111400000D01*
G75*
G02*
X145600000Y-111649999I0J-249999D01*
G01*
X145600000Y-112550001D01*
G75*
G02*
X145350001Y-112800000I-249999J0D01*
G01*
X144649999Y-112800000D01*
G75*
G02*
X144400000Y-112550001I0J249999D01*
G01*
G37*
G36*
G01*
X143550001Y-101800000D02*
X142649999Y-101800000D01*
G75*
G02*
X142400000Y-101550001I0J249999D01*
G01*
X142400000Y-100849999D01*
G75*
G02*
X142649999Y-100600000I249999J0D01*
G01*
X143550001Y-100600000D01*
G75*
G02*
X143800000Y-100849999I0J-249999D01*
G01*
X143800000Y-101550001D01*
G75*
G02*
X143550001Y-101800000I-249999J0D01*
G01*
G37*
G36*
G01*
X143550001Y-103800000D02*
X142649999Y-103800000D01*
G75*
G02*
X142400000Y-103550001I0J249999D01*
G01*
X142400000Y-102849999D01*
G75*
G02*
X142649999Y-102600000I249999J0D01*
G01*
X143550001Y-102600000D01*
G75*
G02*
X143800000Y-102849999I0J-249999D01*
G01*
X143800000Y-103550001D01*
G75*
G02*
X143550001Y-103800000I-249999J0D01*
G01*
G37*
G36*
G01*
X153925000Y-106687500D02*
X154875000Y-106687500D01*
G75*
G02*
X155125000Y-106937500I0J-250000D01*
G01*
X155125000Y-107612500D01*
G75*
G02*
X154875000Y-107862500I-250000J0D01*
G01*
X153925000Y-107862500D01*
G75*
G02*
X153675000Y-107612500I0J250000D01*
G01*
X153675000Y-106937500D01*
G75*
G02*
X153925000Y-106687500I250000J0D01*
G01*
G37*
G36*
G01*
X153925000Y-104612500D02*
X154875000Y-104612500D01*
G75*
G02*
X155125000Y-104862500I0J-250000D01*
G01*
X155125000Y-105537500D01*
G75*
G02*
X154875000Y-105787500I-250000J0D01*
G01*
X153925000Y-105787500D01*
G75*
G02*
X153675000Y-105537500I0J250000D01*
G01*
X153675000Y-104862500D01*
G75*
G02*
X153925000Y-104612500I250000J0D01*
G01*
G37*
G36*
G01*
X151625000Y-101787500D02*
X152575000Y-101787500D01*
G75*
G02*
X152825000Y-102037500I0J-250000D01*
G01*
X152825000Y-102712500D01*
G75*
G02*
X152575000Y-102962500I-250000J0D01*
G01*
X151625000Y-102962500D01*
G75*
G02*
X151375000Y-102712500I0J250000D01*
G01*
X151375000Y-102037500D01*
G75*
G02*
X151625000Y-101787500I250000J0D01*
G01*
G37*
G36*
G01*
X151625000Y-99712500D02*
X152575000Y-99712500D01*
G75*
G02*
X152825000Y-99962500I0J-250000D01*
G01*
X152825000Y-100637500D01*
G75*
G02*
X152575000Y-100887500I-250000J0D01*
G01*
X151625000Y-100887500D01*
G75*
G02*
X151375000Y-100637500I0J250000D01*
G01*
X151375000Y-99962500D01*
G75*
G02*
X151625000Y-99712500I250000J0D01*
G01*
G37*
X150150000Y-107400000D03*
X151100000Y-107400000D03*
X152050000Y-107400000D03*
X152050000Y-105000000D03*
X151100000Y-105000000D03*
X150150000Y-105000000D03*
X145450000Y-107400000D03*
X146400000Y-107400000D03*
X147350000Y-107400000D03*
X147350000Y-105000000D03*
X146400000Y-105000000D03*
X145450000Y-105000000D03*
D12*
X166810000Y-49245000D03*
X166810000Y-50515000D03*
X166810000Y-51785000D03*
X166810000Y-53055000D03*
X166810000Y-54325000D03*
X166810000Y-55595000D03*
X166810000Y-56865000D03*
X166810000Y-58135000D03*
X166810000Y-59405000D03*
X166810000Y-60675000D03*
X166810000Y-61945000D03*
X166810000Y-63215000D03*
X166810000Y-64485000D03*
X166810000Y-65755000D03*
D13*
X164025000Y-66755000D03*
X162755000Y-66755000D03*
X161485000Y-66755000D03*
X160215000Y-66755000D03*
X158945000Y-66755000D03*
X157675000Y-66755000D03*
X156405000Y-66755000D03*
X155135000Y-66755000D03*
X153865000Y-66755000D03*
X152595000Y-66755000D03*
D12*
X149810000Y-65755000D03*
X149810000Y-64485000D03*
X149810000Y-63215000D03*
X149810000Y-61945000D03*
X149810000Y-60675000D03*
X149810000Y-59405000D03*
X149810000Y-58135000D03*
X149810000Y-56865000D03*
X149810000Y-55595000D03*
X149810000Y-54325000D03*
X149810000Y-53055000D03*
X149810000Y-51785000D03*
X149810000Y-50515000D03*
X149810000Y-49245000D03*
D14*
X157310000Y-56745000D03*
G36*
G01*
X136150001Y-56260000D02*
X135249999Y-56260000D01*
G75*
G02*
X135000000Y-56010001I0J249999D01*
G01*
X135000000Y-55309999D01*
G75*
G02*
X135249999Y-55060000I249999J0D01*
G01*
X136150001Y-55060000D01*
G75*
G02*
X136400000Y-55309999I0J-249999D01*
G01*
X136400000Y-56010001D01*
G75*
G02*
X136150001Y-56260000I-249999J0D01*
G01*
G37*
G36*
G01*
X136150001Y-54260000D02*
X135249999Y-54260000D01*
G75*
G02*
X135000000Y-54010001I0J249999D01*
G01*
X135000000Y-53309999D01*
G75*
G02*
X135249999Y-53060000I249999J0D01*
G01*
X136150001Y-53060000D01*
G75*
G02*
X136400000Y-53309999I0J-249999D01*
G01*
X136400000Y-54010001D01*
G75*
G02*
X136150001Y-54260000I-249999J0D01*
G01*
G37*
D15*
X139150000Y-70140000D03*
X138500000Y-70140000D03*
X137850000Y-70140000D03*
X137850000Y-72060000D03*
X138500000Y-72060000D03*
X139150000Y-72060000D03*
G36*
G01*
X145050000Y-47725000D02*
X145050000Y-48675000D01*
G75*
G02*
X144800000Y-48925000I-250000J0D01*
G01*
X144125000Y-48925000D01*
G75*
G02*
X143875000Y-48675000I0J250000D01*
G01*
X143875000Y-47725000D01*
G75*
G02*
X144125000Y-47475000I250000J0D01*
G01*
X144800000Y-47475000D01*
G75*
G02*
X145050000Y-47725000I0J-250000D01*
G01*
G37*
G36*
G01*
X147125000Y-47725000D02*
X147125000Y-48675000D01*
G75*
G02*
X146875000Y-48925000I-250000J0D01*
G01*
X146200000Y-48925000D01*
G75*
G02*
X145950000Y-48675000I0J250000D01*
G01*
X145950000Y-47725000D01*
G75*
G02*
X146200000Y-47475000I250000J0D01*
G01*
X146875000Y-47475000D01*
G75*
G02*
X147125000Y-47725000I0J-250000D01*
G01*
G37*
D16*
X160750000Y-121900000D03*
X164250000Y-126900000D03*
X153750000Y-121900000D03*
X157250000Y-126900000D03*
X146750000Y-121900000D03*
X150250000Y-126900000D03*
X139750000Y-121900000D03*
X143250000Y-126900000D03*
X132750000Y-121900000D03*
X136250000Y-126900000D03*
X125750000Y-121900000D03*
X129250000Y-126900000D03*
D17*
X118890000Y-77925000D03*
D18*
X125240000Y-76025000D03*
X127780000Y-74755000D03*
X125240000Y-73485000D03*
X127780000Y-72215000D03*
X125240000Y-70945000D03*
D17*
X118890000Y-67765000D03*
D19*
X127780000Y-69675000D03*
G36*
G01*
X144749999Y-90200000D02*
X145650001Y-90200000D01*
G75*
G02*
X145900000Y-90449999I0J-249999D01*
G01*
X145900000Y-91150001D01*
G75*
G02*
X145650001Y-91400000I-249999J0D01*
G01*
X144749999Y-91400000D01*
G75*
G02*
X144500000Y-91150001I0J249999D01*
G01*
X144500000Y-90449999D01*
G75*
G02*
X144749999Y-90200000I249999J0D01*
G01*
G37*
G36*
G01*
X144749999Y-88200000D02*
X145650001Y-88200000D01*
G75*
G02*
X145900000Y-88449999I0J-249999D01*
G01*
X145900000Y-89150001D01*
G75*
G02*
X145650001Y-89400000I-249999J0D01*
G01*
X144749999Y-89400000D01*
G75*
G02*
X144500000Y-89150001I0J249999D01*
G01*
X144500000Y-88449999D01*
G75*
G02*
X144749999Y-88200000I249999J0D01*
G01*
G37*
D20*
X188740000Y-60785000D03*
X188740000Y-65785000D03*
X188740000Y-50625000D03*
X188740000Y-55625000D03*
D21*
X177300000Y-62500000D03*
X135000000Y-113500000D03*
X177300000Y-113500000D03*
X135000000Y-62500000D03*
G36*
G01*
X145087500Y-52625000D02*
X145087500Y-53575000D01*
G75*
G02*
X144837500Y-53825000I-250000J0D01*
G01*
X144162500Y-53825000D01*
G75*
G02*
X143912500Y-53575000I0J250000D01*
G01*
X143912500Y-52625000D01*
G75*
G02*
X144162500Y-52375000I250000J0D01*
G01*
X144837500Y-52375000D01*
G75*
G02*
X145087500Y-52625000I0J-250000D01*
G01*
G37*
G36*
G01*
X147162500Y-52625000D02*
X147162500Y-53575000D01*
G75*
G02*
X146912500Y-53825000I-250000J0D01*
G01*
X146237500Y-53825000D01*
G75*
G02*
X145987500Y-53575000I0J250000D01*
G01*
X145987500Y-52625000D01*
G75*
G02*
X146237500Y-52375000I250000J0D01*
G01*
X146912500Y-52375000D01*
G75*
G02*
X147162500Y-52625000I0J-250000D01*
G01*
G37*
G36*
G01*
X178050001Y-54800000D02*
X177149999Y-54800000D01*
G75*
G02*
X176900000Y-54550001I0J249999D01*
G01*
X176900000Y-53849999D01*
G75*
G02*
X177149999Y-53600000I249999J0D01*
G01*
X178050001Y-53600000D01*
G75*
G02*
X178300000Y-53849999I0J-249999D01*
G01*
X178300000Y-54550001D01*
G75*
G02*
X178050001Y-54800000I-249999J0D01*
G01*
G37*
G36*
G01*
X178050001Y-52800000D02*
X177149999Y-52800000D01*
G75*
G02*
X176900000Y-52550001I0J249999D01*
G01*
X176900000Y-51849999D01*
G75*
G02*
X177149999Y-51600000I249999J0D01*
G01*
X178050001Y-51600000D01*
G75*
G02*
X178300000Y-51849999I0J-249999D01*
G01*
X178300000Y-52550001D01*
G75*
G02*
X178050001Y-52800000I-249999J0D01*
G01*
G37*
G36*
G01*
X178500000Y-68850001D02*
X178500000Y-67949999D01*
G75*
G02*
X178749999Y-67700000I249999J0D01*
G01*
X179450001Y-67700000D01*
G75*
G02*
X179700000Y-67949999I0J-249999D01*
G01*
X179700000Y-68850001D01*
G75*
G02*
X179450001Y-69100000I-249999J0D01*
G01*
X178749999Y-69100000D01*
G75*
G02*
X178500000Y-68850001I0J249999D01*
G01*
G37*
G36*
G01*
X180500000Y-68850001D02*
X180500000Y-67949999D01*
G75*
G02*
X180749999Y-67700000I249999J0D01*
G01*
X181450001Y-67700000D01*
G75*
G02*
X181700000Y-67949999I0J-249999D01*
G01*
X181700000Y-68850001D01*
G75*
G02*
X181450001Y-69100000I-249999J0D01*
G01*
X180749999Y-69100000D01*
G75*
G02*
X180500000Y-68850001I0J249999D01*
G01*
G37*
G36*
G01*
X178050001Y-58700000D02*
X177149999Y-58700000D01*
G75*
G02*
X176900000Y-58450001I0J249999D01*
G01*
X176900000Y-57749999D01*
G75*
G02*
X177149999Y-57500000I249999J0D01*
G01*
X178050001Y-57500000D01*
G75*
G02*
X178300000Y-57749999I0J-249999D01*
G01*
X178300000Y-58450001D01*
G75*
G02*
X178050001Y-58700000I-249999J0D01*
G01*
G37*
G36*
G01*
X178050001Y-56700000D02*
X177149999Y-56700000D01*
G75*
G02*
X176900000Y-56450001I0J249999D01*
G01*
X176900000Y-55749999D01*
G75*
G02*
X177149999Y-55500000I249999J0D01*
G01*
X178050001Y-55500000D01*
G75*
G02*
X178300000Y-55749999I0J-249999D01*
G01*
X178300000Y-56450001D01*
G75*
G02*
X178050001Y-56700000I-249999J0D01*
G01*
G37*
G36*
G01*
X181700000Y-65949999D02*
X181700000Y-66850001D01*
G75*
G02*
X181450001Y-67100000I-249999J0D01*
G01*
X180749999Y-67100000D01*
G75*
G02*
X180500000Y-66850001I0J249999D01*
G01*
X180500000Y-65949999D01*
G75*
G02*
X180749999Y-65700000I249999J0D01*
G01*
X181450001Y-65700000D01*
G75*
G02*
X181700000Y-65949999I0J-249999D01*
G01*
G37*
G36*
G01*
X179700000Y-65949999D02*
X179700000Y-66850001D01*
G75*
G02*
X179450001Y-67100000I-249999J0D01*
G01*
X178749999Y-67100000D01*
G75*
G02*
X178500000Y-66850001I0J249999D01*
G01*
X178500000Y-65949999D01*
G75*
G02*
X178749999Y-65700000I249999J0D01*
G01*
X179450001Y-65700000D01*
G75*
G02*
X179700000Y-65949999I0J-249999D01*
G01*
G37*
G36*
G01*
X178800000Y-51050001D02*
X178800000Y-50149999D01*
G75*
G02*
X179049999Y-49900000I249999J0D01*
G01*
X179750001Y-49900000D01*
G75*
G02*
X180000000Y-50149999I0J-249999D01*
G01*
X180000000Y-51050001D01*
G75*
G02*
X179750001Y-51300000I-249999J0D01*
G01*
X179049999Y-51300000D01*
G75*
G02*
X178800000Y-51050001I0J249999D01*
G01*
G37*
G36*
G01*
X180800000Y-51050001D02*
X180800000Y-50149999D01*
G75*
G02*
X181049999Y-49900000I249999J0D01*
G01*
X181750001Y-49900000D01*
G75*
G02*
X182000000Y-50149999I0J-249999D01*
G01*
X182000000Y-51050001D01*
G75*
G02*
X181750001Y-51300000I-249999J0D01*
G01*
X181049999Y-51300000D01*
G75*
G02*
X180800000Y-51050001I0J249999D01*
G01*
G37*
D22*
X181400000Y-58150000D03*
X181400000Y-56250000D03*
X179400000Y-57200000D03*
D23*
X181350000Y-52500000D03*
X179450000Y-52500000D03*
X180400000Y-54500000D03*
X179700000Y-83000000D03*
X178750000Y-81000000D03*
X180650000Y-81000000D03*
D10*
X161550000Y-87750000D03*
X161550000Y-92250000D03*
X152450000Y-92250000D03*
X152450000Y-87750000D03*
D17*
X118890000Y-61415000D03*
D18*
X125240000Y-59515000D03*
X127780000Y-58245000D03*
X125240000Y-56975000D03*
X127780000Y-55705000D03*
X125240000Y-54435000D03*
D17*
X118890000Y-51255000D03*
D19*
X127780000Y-53165000D03*
G36*
G01*
X134505000Y-91350000D02*
X134205000Y-91350000D01*
G75*
G02*
X134055000Y-91200000I0J150000D01*
G01*
X134055000Y-89750000D01*
G75*
G02*
X134205000Y-89600000I150000J0D01*
G01*
X134505000Y-89600000D01*
G75*
G02*
X134655000Y-89750000I0J-150000D01*
G01*
X134655000Y-91200000D01*
G75*
G02*
X134505000Y-91350000I-150000J0D01*
G01*
G37*
G36*
G01*
X135775000Y-91350000D02*
X135475000Y-91350000D01*
G75*
G02*
X135325000Y-91200000I0J150000D01*
G01*
X135325000Y-89750000D01*
G75*
G02*
X135475000Y-89600000I150000J0D01*
G01*
X135775000Y-89600000D01*
G75*
G02*
X135925000Y-89750000I0J-150000D01*
G01*
X135925000Y-91200000D01*
G75*
G02*
X135775000Y-91350000I-150000J0D01*
G01*
G37*
G36*
G01*
X137045000Y-91350000D02*
X136745000Y-91350000D01*
G75*
G02*
X136595000Y-91200000I0J150000D01*
G01*
X136595000Y-89750000D01*
G75*
G02*
X136745000Y-89600000I150000J0D01*
G01*
X137045000Y-89600000D01*
G75*
G02*
X137195000Y-89750000I0J-150000D01*
G01*
X137195000Y-91200000D01*
G75*
G02*
X137045000Y-91350000I-150000J0D01*
G01*
G37*
G36*
G01*
X138315000Y-91350000D02*
X138015000Y-91350000D01*
G75*
G02*
X137865000Y-91200000I0J150000D01*
G01*
X137865000Y-89750000D01*
G75*
G02*
X138015000Y-89600000I150000J0D01*
G01*
X138315000Y-89600000D01*
G75*
G02*
X138465000Y-89750000I0J-150000D01*
G01*
X138465000Y-91200000D01*
G75*
G02*
X138315000Y-91350000I-150000J0D01*
G01*
G37*
G36*
G01*
X139585000Y-91350000D02*
X139285000Y-91350000D01*
G75*
G02*
X139135000Y-91200000I0J150000D01*
G01*
X139135000Y-89750000D01*
G75*
G02*
X139285000Y-89600000I150000J0D01*
G01*
X139585000Y-89600000D01*
G75*
G02*
X139735000Y-89750000I0J-150000D01*
G01*
X139735000Y-91200000D01*
G75*
G02*
X139585000Y-91350000I-150000J0D01*
G01*
G37*
G36*
G01*
X140855000Y-91350000D02*
X140555000Y-91350000D01*
G75*
G02*
X140405000Y-91200000I0J150000D01*
G01*
X140405000Y-89750000D01*
G75*
G02*
X140555000Y-89600000I150000J0D01*
G01*
X140855000Y-89600000D01*
G75*
G02*
X141005000Y-89750000I0J-150000D01*
G01*
X141005000Y-91200000D01*
G75*
G02*
X140855000Y-91350000I-150000J0D01*
G01*
G37*
G36*
G01*
X142125000Y-91350000D02*
X141825000Y-91350000D01*
G75*
G02*
X141675000Y-91200000I0J150000D01*
G01*
X141675000Y-89750000D01*
G75*
G02*
X141825000Y-89600000I150000J0D01*
G01*
X142125000Y-89600000D01*
G75*
G02*
X142275000Y-89750000I0J-150000D01*
G01*
X142275000Y-91200000D01*
G75*
G02*
X142125000Y-91350000I-150000J0D01*
G01*
G37*
G36*
G01*
X143395000Y-91350000D02*
X143095000Y-91350000D01*
G75*
G02*
X142945000Y-91200000I0J150000D01*
G01*
X142945000Y-89750000D01*
G75*
G02*
X143095000Y-89600000I150000J0D01*
G01*
X143395000Y-89600000D01*
G75*
G02*
X143545000Y-89750000I0J-150000D01*
G01*
X143545000Y-91200000D01*
G75*
G02*
X143395000Y-91350000I-150000J0D01*
G01*
G37*
G36*
G01*
X143395000Y-86200000D02*
X143095000Y-86200000D01*
G75*
G02*
X142945000Y-86050000I0J150000D01*
G01*
X142945000Y-84600000D01*
G75*
G02*
X143095000Y-84450000I150000J0D01*
G01*
X143395000Y-84450000D01*
G75*
G02*
X143545000Y-84600000I0J-150000D01*
G01*
X143545000Y-86050000D01*
G75*
G02*
X143395000Y-86200000I-150000J0D01*
G01*
G37*
G36*
G01*
X142125000Y-86200000D02*
X141825000Y-86200000D01*
G75*
G02*
X141675000Y-86050000I0J150000D01*
G01*
X141675000Y-84600000D01*
G75*
G02*
X141825000Y-84450000I150000J0D01*
G01*
X142125000Y-84450000D01*
G75*
G02*
X142275000Y-84600000I0J-150000D01*
G01*
X142275000Y-86050000D01*
G75*
G02*
X142125000Y-86200000I-150000J0D01*
G01*
G37*
G36*
G01*
X140855000Y-86200000D02*
X140555000Y-86200000D01*
G75*
G02*
X140405000Y-86050000I0J150000D01*
G01*
X140405000Y-84600000D01*
G75*
G02*
X140555000Y-84450000I150000J0D01*
G01*
X140855000Y-84450000D01*
G75*
G02*
X141005000Y-84600000I0J-150000D01*
G01*
X141005000Y-86050000D01*
G75*
G02*
X140855000Y-86200000I-150000J0D01*
G01*
G37*
G36*
G01*
X139585000Y-86200000D02*
X139285000Y-86200000D01*
G75*
G02*
X139135000Y-86050000I0J150000D01*
G01*
X139135000Y-84600000D01*
G75*
G02*
X139285000Y-84450000I150000J0D01*
G01*
X139585000Y-84450000D01*
G75*
G02*
X139735000Y-84600000I0J-150000D01*
G01*
X139735000Y-86050000D01*
G75*
G02*
X139585000Y-86200000I-150000J0D01*
G01*
G37*
G36*
G01*
X138315000Y-86200000D02*
X138015000Y-86200000D01*
G75*
G02*
X137865000Y-86050000I0J150000D01*
G01*
X137865000Y-84600000D01*
G75*
G02*
X138015000Y-84450000I150000J0D01*
G01*
X138315000Y-84450000D01*
G75*
G02*
X138465000Y-84600000I0J-150000D01*
G01*
X138465000Y-86050000D01*
G75*
G02*
X138315000Y-86200000I-150000J0D01*
G01*
G37*
G36*
G01*
X137045000Y-86200000D02*
X136745000Y-86200000D01*
G75*
G02*
X136595000Y-86050000I0J150000D01*
G01*
X136595000Y-84600000D01*
G75*
G02*
X136745000Y-84450000I150000J0D01*
G01*
X137045000Y-84450000D01*
G75*
G02*
X137195000Y-84600000I0J-150000D01*
G01*
X137195000Y-86050000D01*
G75*
G02*
X137045000Y-86200000I-150000J0D01*
G01*
G37*
G36*
G01*
X135775000Y-86200000D02*
X135475000Y-86200000D01*
G75*
G02*
X135325000Y-86050000I0J150000D01*
G01*
X135325000Y-84600000D01*
G75*
G02*
X135475000Y-84450000I150000J0D01*
G01*
X135775000Y-84450000D01*
G75*
G02*
X135925000Y-84600000I0J-150000D01*
G01*
X135925000Y-86050000D01*
G75*
G02*
X135775000Y-86200000I-150000J0D01*
G01*
G37*
G36*
G01*
X134505000Y-86200000D02*
X134205000Y-86200000D01*
G75*
G02*
X134055000Y-86050000I0J150000D01*
G01*
X134055000Y-84600000D01*
G75*
G02*
X134205000Y-84450000I150000J0D01*
G01*
X134505000Y-84450000D01*
G75*
G02*
X134655000Y-84600000I0J-150000D01*
G01*
X134655000Y-86050000D01*
G75*
G02*
X134505000Y-86200000I-150000J0D01*
G01*
G37*
G36*
G01*
X141225000Y-81025000D02*
X141425000Y-81025000D01*
G75*
G02*
X141525000Y-81125000I0J-100000D01*
G01*
X141525000Y-82400000D01*
G75*
G02*
X141425000Y-82500000I-100000J0D01*
G01*
X141225000Y-82500000D01*
G75*
G02*
X141125000Y-82400000I0J100000D01*
G01*
X141125000Y-81125000D01*
G75*
G02*
X141225000Y-81025000I100000J0D01*
G01*
G37*
G36*
G01*
X140575000Y-81025000D02*
X140775000Y-81025000D01*
G75*
G02*
X140875000Y-81125000I0J-100000D01*
G01*
X140875000Y-82400000D01*
G75*
G02*
X140775000Y-82500000I-100000J0D01*
G01*
X140575000Y-82500000D01*
G75*
G02*
X140475000Y-82400000I0J100000D01*
G01*
X140475000Y-81125000D01*
G75*
G02*
X140575000Y-81025000I100000J0D01*
G01*
G37*
G36*
G01*
X139925000Y-81025000D02*
X140125000Y-81025000D01*
G75*
G02*
X140225000Y-81125000I0J-100000D01*
G01*
X140225000Y-82400000D01*
G75*
G02*
X140125000Y-82500000I-100000J0D01*
G01*
X139925000Y-82500000D01*
G75*
G02*
X139825000Y-82400000I0J100000D01*
G01*
X139825000Y-81125000D01*
G75*
G02*
X139925000Y-81025000I100000J0D01*
G01*
G37*
G36*
G01*
X139275000Y-81025000D02*
X139475000Y-81025000D01*
G75*
G02*
X139575000Y-81125000I0J-100000D01*
G01*
X139575000Y-82400000D01*
G75*
G02*
X139475000Y-82500000I-100000J0D01*
G01*
X139275000Y-82500000D01*
G75*
G02*
X139175000Y-82400000I0J100000D01*
G01*
X139175000Y-81125000D01*
G75*
G02*
X139275000Y-81025000I100000J0D01*
G01*
G37*
G36*
G01*
X138625000Y-81025000D02*
X138825000Y-81025000D01*
G75*
G02*
X138925000Y-81125000I0J-100000D01*
G01*
X138925000Y-82400000D01*
G75*
G02*
X138825000Y-82500000I-100000J0D01*
G01*
X138625000Y-82500000D01*
G75*
G02*
X138525000Y-82400000I0J100000D01*
G01*
X138525000Y-81125000D01*
G75*
G02*
X138625000Y-81025000I100000J0D01*
G01*
G37*
G36*
G01*
X137975000Y-81025000D02*
X138175000Y-81025000D01*
G75*
G02*
X138275000Y-81125000I0J-100000D01*
G01*
X138275000Y-82400000D01*
G75*
G02*
X138175000Y-82500000I-100000J0D01*
G01*
X137975000Y-82500000D01*
G75*
G02*
X137875000Y-82400000I0J100000D01*
G01*
X137875000Y-81125000D01*
G75*
G02*
X137975000Y-81025000I100000J0D01*
G01*
G37*
G36*
G01*
X137325000Y-81025000D02*
X137525000Y-81025000D01*
G75*
G02*
X137625000Y-81125000I0J-100000D01*
G01*
X137625000Y-82400000D01*
G75*
G02*
X137525000Y-82500000I-100000J0D01*
G01*
X137325000Y-82500000D01*
G75*
G02*
X137225000Y-82400000I0J100000D01*
G01*
X137225000Y-81125000D01*
G75*
G02*
X137325000Y-81025000I100000J0D01*
G01*
G37*
G36*
G01*
X136675000Y-81025000D02*
X136875000Y-81025000D01*
G75*
G02*
X136975000Y-81125000I0J-100000D01*
G01*
X136975000Y-82400000D01*
G75*
G02*
X136875000Y-82500000I-100000J0D01*
G01*
X136675000Y-82500000D01*
G75*
G02*
X136575000Y-82400000I0J100000D01*
G01*
X136575000Y-81125000D01*
G75*
G02*
X136675000Y-81025000I100000J0D01*
G01*
G37*
G36*
G01*
X136025000Y-81025000D02*
X136225000Y-81025000D01*
G75*
G02*
X136325000Y-81125000I0J-100000D01*
G01*
X136325000Y-82400000D01*
G75*
G02*
X136225000Y-82500000I-100000J0D01*
G01*
X136025000Y-82500000D01*
G75*
G02*
X135925000Y-82400000I0J100000D01*
G01*
X135925000Y-81125000D01*
G75*
G02*
X136025000Y-81025000I100000J0D01*
G01*
G37*
G36*
G01*
X135375000Y-81025000D02*
X135575000Y-81025000D01*
G75*
G02*
X135675000Y-81125000I0J-100000D01*
G01*
X135675000Y-82400000D01*
G75*
G02*
X135575000Y-82500000I-100000J0D01*
G01*
X135375000Y-82500000D01*
G75*
G02*
X135275000Y-82400000I0J100000D01*
G01*
X135275000Y-81125000D01*
G75*
G02*
X135375000Y-81025000I100000J0D01*
G01*
G37*
G36*
G01*
X135375000Y-75300000D02*
X135575000Y-75300000D01*
G75*
G02*
X135675000Y-75400000I0J-100000D01*
G01*
X135675000Y-76675000D01*
G75*
G02*
X135575000Y-76775000I-100000J0D01*
G01*
X135375000Y-76775000D01*
G75*
G02*
X135275000Y-76675000I0J100000D01*
G01*
X135275000Y-75400000D01*
G75*
G02*
X135375000Y-75300000I100000J0D01*
G01*
G37*
G36*
G01*
X136025000Y-75300000D02*
X136225000Y-75300000D01*
G75*
G02*
X136325000Y-75400000I0J-100000D01*
G01*
X136325000Y-76675000D01*
G75*
G02*
X136225000Y-76775000I-100000J0D01*
G01*
X136025000Y-76775000D01*
G75*
G02*
X135925000Y-76675000I0J100000D01*
G01*
X135925000Y-75400000D01*
G75*
G02*
X136025000Y-75300000I100000J0D01*
G01*
G37*
G36*
G01*
X136675000Y-75300000D02*
X136875000Y-75300000D01*
G75*
G02*
X136975000Y-75400000I0J-100000D01*
G01*
X136975000Y-76675000D01*
G75*
G02*
X136875000Y-76775000I-100000J0D01*
G01*
X136675000Y-76775000D01*
G75*
G02*
X136575000Y-76675000I0J100000D01*
G01*
X136575000Y-75400000D01*
G75*
G02*
X136675000Y-75300000I100000J0D01*
G01*
G37*
G36*
G01*
X137325000Y-75300000D02*
X137525000Y-75300000D01*
G75*
G02*
X137625000Y-75400000I0J-100000D01*
G01*
X137625000Y-76675000D01*
G75*
G02*
X137525000Y-76775000I-100000J0D01*
G01*
X137325000Y-76775000D01*
G75*
G02*
X137225000Y-76675000I0J100000D01*
G01*
X137225000Y-75400000D01*
G75*
G02*
X137325000Y-75300000I100000J0D01*
G01*
G37*
G36*
G01*
X137975000Y-75300000D02*
X138175000Y-75300000D01*
G75*
G02*
X138275000Y-75400000I0J-100000D01*
G01*
X138275000Y-76675000D01*
G75*
G02*
X138175000Y-76775000I-100000J0D01*
G01*
X137975000Y-76775000D01*
G75*
G02*
X137875000Y-76675000I0J100000D01*
G01*
X137875000Y-75400000D01*
G75*
G02*
X137975000Y-75300000I100000J0D01*
G01*
G37*
G36*
G01*
X138625000Y-75300000D02*
X138825000Y-75300000D01*
G75*
G02*
X138925000Y-75400000I0J-100000D01*
G01*
X138925000Y-76675000D01*
G75*
G02*
X138825000Y-76775000I-100000J0D01*
G01*
X138625000Y-76775000D01*
G75*
G02*
X138525000Y-76675000I0J100000D01*
G01*
X138525000Y-75400000D01*
G75*
G02*
X138625000Y-75300000I100000J0D01*
G01*
G37*
G36*
G01*
X139275000Y-75300000D02*
X139475000Y-75300000D01*
G75*
G02*
X139575000Y-75400000I0J-100000D01*
G01*
X139575000Y-76675000D01*
G75*
G02*
X139475000Y-76775000I-100000J0D01*
G01*
X139275000Y-76775000D01*
G75*
G02*
X139175000Y-76675000I0J100000D01*
G01*
X139175000Y-75400000D01*
G75*
G02*
X139275000Y-75300000I100000J0D01*
G01*
G37*
G36*
G01*
X139925000Y-75300000D02*
X140125000Y-75300000D01*
G75*
G02*
X140225000Y-75400000I0J-100000D01*
G01*
X140225000Y-76675000D01*
G75*
G02*
X140125000Y-76775000I-100000J0D01*
G01*
X139925000Y-76775000D01*
G75*
G02*
X139825000Y-76675000I0J100000D01*
G01*
X139825000Y-75400000D01*
G75*
G02*
X139925000Y-75300000I100000J0D01*
G01*
G37*
G36*
G01*
X140575000Y-75300000D02*
X140775000Y-75300000D01*
G75*
G02*
X140875000Y-75400000I0J-100000D01*
G01*
X140875000Y-76675000D01*
G75*
G02*
X140775000Y-76775000I-100000J0D01*
G01*
X140575000Y-76775000D01*
G75*
G02*
X140475000Y-76675000I0J100000D01*
G01*
X140475000Y-75400000D01*
G75*
G02*
X140575000Y-75300000I100000J0D01*
G01*
G37*
G36*
G01*
X141225000Y-75300000D02*
X141425000Y-75300000D01*
G75*
G02*
X141525000Y-75400000I0J-100000D01*
G01*
X141525000Y-76675000D01*
G75*
G02*
X141425000Y-76775000I-100000J0D01*
G01*
X141225000Y-76775000D01*
G75*
G02*
X141125000Y-76675000I0J100000D01*
G01*
X141125000Y-75400000D01*
G75*
G02*
X141225000Y-75300000I100000J0D01*
G01*
G37*
D23*
X160500000Y-73300000D03*
X161450000Y-75300000D03*
X159550000Y-75300000D03*
X156300000Y-73400000D03*
X157250000Y-75400000D03*
X155350000Y-75400000D03*
X179700000Y-76700000D03*
X178750000Y-74700000D03*
X180650000Y-74700000D03*
D24*
X159600000Y-82700000D03*
D25*
X157060000Y-82700000D03*
X154520000Y-82700000D03*
X151980000Y-82700000D03*
X149440000Y-82700000D03*
G36*
G01*
X179005000Y-92675000D02*
X178705000Y-92675000D01*
G75*
G02*
X178555000Y-92525000I0J150000D01*
G01*
X178555000Y-90775000D01*
G75*
G02*
X178705000Y-90625000I150000J0D01*
G01*
X179005000Y-90625000D01*
G75*
G02*
X179155000Y-90775000I0J-150000D01*
G01*
X179155000Y-92525000D01*
G75*
G02*
X179005000Y-92675000I-150000J0D01*
G01*
G37*
G36*
G01*
X180275000Y-92675000D02*
X179975000Y-92675000D01*
G75*
G02*
X179825000Y-92525000I0J150000D01*
G01*
X179825000Y-90775000D01*
G75*
G02*
X179975000Y-90625000I150000J0D01*
G01*
X180275000Y-90625000D01*
G75*
G02*
X180425000Y-90775000I0J-150000D01*
G01*
X180425000Y-92525000D01*
G75*
G02*
X180275000Y-92675000I-150000J0D01*
G01*
G37*
G36*
G01*
X181545000Y-92675000D02*
X181245000Y-92675000D01*
G75*
G02*
X181095000Y-92525000I0J150000D01*
G01*
X181095000Y-90775000D01*
G75*
G02*
X181245000Y-90625000I150000J0D01*
G01*
X181545000Y-90625000D01*
G75*
G02*
X181695000Y-90775000I0J-150000D01*
G01*
X181695000Y-92525000D01*
G75*
G02*
X181545000Y-92675000I-150000J0D01*
G01*
G37*
G36*
G01*
X182815000Y-92675000D02*
X182515000Y-92675000D01*
G75*
G02*
X182365000Y-92525000I0J150000D01*
G01*
X182365000Y-90775000D01*
G75*
G02*
X182515000Y-90625000I150000J0D01*
G01*
X182815000Y-90625000D01*
G75*
G02*
X182965000Y-90775000I0J-150000D01*
G01*
X182965000Y-92525000D01*
G75*
G02*
X182815000Y-92675000I-150000J0D01*
G01*
G37*
G36*
G01*
X184085000Y-92675000D02*
X183785000Y-92675000D01*
G75*
G02*
X183635000Y-92525000I0J150000D01*
G01*
X183635000Y-90775000D01*
G75*
G02*
X183785000Y-90625000I150000J0D01*
G01*
X184085000Y-90625000D01*
G75*
G02*
X184235000Y-90775000I0J-150000D01*
G01*
X184235000Y-92525000D01*
G75*
G02*
X184085000Y-92675000I-150000J0D01*
G01*
G37*
G36*
G01*
X185355000Y-92675000D02*
X185055000Y-92675000D01*
G75*
G02*
X184905000Y-92525000I0J150000D01*
G01*
X184905000Y-90775000D01*
G75*
G02*
X185055000Y-90625000I150000J0D01*
G01*
X185355000Y-90625000D01*
G75*
G02*
X185505000Y-90775000I0J-150000D01*
G01*
X185505000Y-92525000D01*
G75*
G02*
X185355000Y-92675000I-150000J0D01*
G01*
G37*
G36*
G01*
X186625000Y-92675000D02*
X186325000Y-92675000D01*
G75*
G02*
X186175000Y-92525000I0J150000D01*
G01*
X186175000Y-90775000D01*
G75*
G02*
X186325000Y-90625000I150000J0D01*
G01*
X186625000Y-90625000D01*
G75*
G02*
X186775000Y-90775000I0J-150000D01*
G01*
X186775000Y-92525000D01*
G75*
G02*
X186625000Y-92675000I-150000J0D01*
G01*
G37*
G36*
G01*
X187895000Y-92675000D02*
X187595000Y-92675000D01*
G75*
G02*
X187445000Y-92525000I0J150000D01*
G01*
X187445000Y-90775000D01*
G75*
G02*
X187595000Y-90625000I150000J0D01*
G01*
X187895000Y-90625000D01*
G75*
G02*
X188045000Y-90775000I0J-150000D01*
G01*
X188045000Y-92525000D01*
G75*
G02*
X187895000Y-92675000I-150000J0D01*
G01*
G37*
G36*
G01*
X187895000Y-101975000D02*
X187595000Y-101975000D01*
G75*
G02*
X187445000Y-101825000I0J150000D01*
G01*
X187445000Y-100075000D01*
G75*
G02*
X187595000Y-99925000I150000J0D01*
G01*
X187895000Y-99925000D01*
G75*
G02*
X188045000Y-100075000I0J-150000D01*
G01*
X188045000Y-101825000D01*
G75*
G02*
X187895000Y-101975000I-150000J0D01*
G01*
G37*
G36*
G01*
X186625000Y-101975000D02*
X186325000Y-101975000D01*
G75*
G02*
X186175000Y-101825000I0J150000D01*
G01*
X186175000Y-100075000D01*
G75*
G02*
X186325000Y-99925000I150000J0D01*
G01*
X186625000Y-99925000D01*
G75*
G02*
X186775000Y-100075000I0J-150000D01*
G01*
X186775000Y-101825000D01*
G75*
G02*
X186625000Y-101975000I-150000J0D01*
G01*
G37*
G36*
G01*
X185355000Y-101975000D02*
X185055000Y-101975000D01*
G75*
G02*
X184905000Y-101825000I0J150000D01*
G01*
X184905000Y-100075000D01*
G75*
G02*
X185055000Y-99925000I150000J0D01*
G01*
X185355000Y-99925000D01*
G75*
G02*
X185505000Y-100075000I0J-150000D01*
G01*
X185505000Y-101825000D01*
G75*
G02*
X185355000Y-101975000I-150000J0D01*
G01*
G37*
G36*
G01*
X184085000Y-101975000D02*
X183785000Y-101975000D01*
G75*
G02*
X183635000Y-101825000I0J150000D01*
G01*
X183635000Y-100075000D01*
G75*
G02*
X183785000Y-99925000I150000J0D01*
G01*
X184085000Y-99925000D01*
G75*
G02*
X184235000Y-100075000I0J-150000D01*
G01*
X184235000Y-101825000D01*
G75*
G02*
X184085000Y-101975000I-150000J0D01*
G01*
G37*
G36*
G01*
X182815000Y-101975000D02*
X182515000Y-101975000D01*
G75*
G02*
X182365000Y-101825000I0J150000D01*
G01*
X182365000Y-100075000D01*
G75*
G02*
X182515000Y-99925000I150000J0D01*
G01*
X182815000Y-99925000D01*
G75*
G02*
X182965000Y-100075000I0J-150000D01*
G01*
X182965000Y-101825000D01*
G75*
G02*
X182815000Y-101975000I-150000J0D01*
G01*
G37*
G36*
G01*
X181545000Y-101975000D02*
X181245000Y-101975000D01*
G75*
G02*
X181095000Y-101825000I0J150000D01*
G01*
X181095000Y-100075000D01*
G75*
G02*
X181245000Y-99925000I150000J0D01*
G01*
X181545000Y-99925000D01*
G75*
G02*
X181695000Y-100075000I0J-150000D01*
G01*
X181695000Y-101825000D01*
G75*
G02*
X181545000Y-101975000I-150000J0D01*
G01*
G37*
G36*
G01*
X180275000Y-101975000D02*
X179975000Y-101975000D01*
G75*
G02*
X179825000Y-101825000I0J150000D01*
G01*
X179825000Y-100075000D01*
G75*
G02*
X179975000Y-99925000I150000J0D01*
G01*
X180275000Y-99925000D01*
G75*
G02*
X180425000Y-100075000I0J-150000D01*
G01*
X180425000Y-101825000D01*
G75*
G02*
X180275000Y-101975000I-150000J0D01*
G01*
G37*
G36*
G01*
X179005000Y-101975000D02*
X178705000Y-101975000D01*
G75*
G02*
X178555000Y-101825000I0J150000D01*
G01*
X178555000Y-100075000D01*
G75*
G02*
X178705000Y-99925000I150000J0D01*
G01*
X179005000Y-99925000D01*
G75*
G02*
X179155000Y-100075000I0J-150000D01*
G01*
X179155000Y-101825000D01*
G75*
G02*
X179005000Y-101975000I-150000J0D01*
G01*
G37*
D26*
X183450000Y-70700000D03*
X185350000Y-70700000D03*
X185350000Y-72900000D03*
X184400000Y-72900000D03*
X183450000Y-72900000D03*
D27*
X190645000Y-80090000D03*
X190645000Y-75390000D03*
X190645000Y-70690000D03*
G36*
G01*
X157550001Y-78100000D02*
X156649999Y-78100000D01*
G75*
G02*
X156400000Y-77850001I0J249999D01*
G01*
X156400000Y-77149999D01*
G75*
G02*
X156649999Y-76900000I249999J0D01*
G01*
X157550001Y-76900000D01*
G75*
G02*
X157800000Y-77149999I0J-249999D01*
G01*
X157800000Y-77850001D01*
G75*
G02*
X157550001Y-78100000I-249999J0D01*
G01*
G37*
G36*
G01*
X157550001Y-80100000D02*
X156649999Y-80100000D01*
G75*
G02*
X156400000Y-79850001I0J249999D01*
G01*
X156400000Y-79149999D01*
G75*
G02*
X156649999Y-78900000I249999J0D01*
G01*
X157550001Y-78900000D01*
G75*
G02*
X157800000Y-79149999I0J-249999D01*
G01*
X157800000Y-79850001D01*
G75*
G02*
X157550001Y-80100000I-249999J0D01*
G01*
G37*
G36*
G01*
X160050001Y-78100000D02*
X159149999Y-78100000D01*
G75*
G02*
X158900000Y-77850001I0J249999D01*
G01*
X158900000Y-77149999D01*
G75*
G02*
X159149999Y-76900000I249999J0D01*
G01*
X160050001Y-76900000D01*
G75*
G02*
X160300000Y-77149999I0J-249999D01*
G01*
X160300000Y-77850001D01*
G75*
G02*
X160050001Y-78100000I-249999J0D01*
G01*
G37*
G36*
G01*
X160050001Y-80100000D02*
X159149999Y-80100000D01*
G75*
G02*
X158900000Y-79850001I0J249999D01*
G01*
X158900000Y-79149999D01*
G75*
G02*
X159149999Y-78900000I249999J0D01*
G01*
X160050001Y-78900000D01*
G75*
G02*
X160300000Y-79149999I0J-249999D01*
G01*
X160300000Y-79850001D01*
G75*
G02*
X160050001Y-80100000I-249999J0D01*
G01*
G37*
G36*
G01*
X132750001Y-81800000D02*
X131849999Y-81800000D01*
G75*
G02*
X131600000Y-81550001I0J249999D01*
G01*
X131600000Y-80849999D01*
G75*
G02*
X131849999Y-80600000I249999J0D01*
G01*
X132750001Y-80600000D01*
G75*
G02*
X133000000Y-80849999I0J-249999D01*
G01*
X133000000Y-81550001D01*
G75*
G02*
X132750001Y-81800000I-249999J0D01*
G01*
G37*
G36*
G01*
X132750001Y-83800000D02*
X131849999Y-83800000D01*
G75*
G02*
X131600000Y-83550001I0J249999D01*
G01*
X131600000Y-82849999D01*
G75*
G02*
X131849999Y-82600000I249999J0D01*
G01*
X132750001Y-82600000D01*
G75*
G02*
X133000000Y-82849999I0J-249999D01*
G01*
X133000000Y-83550001D01*
G75*
G02*
X132750001Y-83800000I-249999J0D01*
G01*
G37*
G36*
G01*
X146849999Y-90200000D02*
X147750001Y-90200000D01*
G75*
G02*
X148000000Y-90449999I0J-249999D01*
G01*
X148000000Y-91150001D01*
G75*
G02*
X147750001Y-91400000I-249999J0D01*
G01*
X146849999Y-91400000D01*
G75*
G02*
X146600000Y-91150001I0J249999D01*
G01*
X146600000Y-90449999D01*
G75*
G02*
X146849999Y-90200000I249999J0D01*
G01*
G37*
G36*
G01*
X146849999Y-88200000D02*
X147750001Y-88200000D01*
G75*
G02*
X148000000Y-88449999I0J-249999D01*
G01*
X148000000Y-89150001D01*
G75*
G02*
X147750001Y-89400000I-249999J0D01*
G01*
X146849999Y-89400000D01*
G75*
G02*
X146600000Y-89150001I0J249999D01*
G01*
X146600000Y-88449999D01*
G75*
G02*
X146849999Y-88200000I249999J0D01*
G01*
G37*
G36*
G01*
X140850001Y-49000000D02*
X139949999Y-49000000D01*
G75*
G02*
X139700000Y-48750001I0J249999D01*
G01*
X139700000Y-48049999D01*
G75*
G02*
X139949999Y-47800000I249999J0D01*
G01*
X140850001Y-47800000D01*
G75*
G02*
X141100000Y-48049999I0J-249999D01*
G01*
X141100000Y-48750001D01*
G75*
G02*
X140850001Y-49000000I-249999J0D01*
G01*
G37*
G36*
G01*
X140850001Y-51000000D02*
X139949999Y-51000000D01*
G75*
G02*
X139700000Y-50750001I0J249999D01*
G01*
X139700000Y-50049999D01*
G75*
G02*
X139949999Y-49800000I249999J0D01*
G01*
X140850001Y-49800000D01*
G75*
G02*
X141100000Y-50049999I0J-249999D01*
G01*
X141100000Y-50750001D01*
G75*
G02*
X140850001Y-51000000I-249999J0D01*
G01*
G37*
G36*
G01*
X131849999Y-90400000D02*
X132750001Y-90400000D01*
G75*
G02*
X133000000Y-90649999I0J-249999D01*
G01*
X133000000Y-91350001D01*
G75*
G02*
X132750001Y-91600000I-249999J0D01*
G01*
X131849999Y-91600000D01*
G75*
G02*
X131600000Y-91350001I0J249999D01*
G01*
X131600000Y-90649999D01*
G75*
G02*
X131849999Y-90400000I249999J0D01*
G01*
G37*
G36*
G01*
X131849999Y-88400000D02*
X132750001Y-88400000D01*
G75*
G02*
X133000000Y-88649999I0J-249999D01*
G01*
X133000000Y-89350001D01*
G75*
G02*
X132750001Y-89600000I-249999J0D01*
G01*
X131849999Y-89600000D01*
G75*
G02*
X131600000Y-89350001I0J249999D01*
G01*
X131600000Y-88649999D01*
G75*
G02*
X131849999Y-88400000I249999J0D01*
G01*
G37*
G36*
G01*
X140100000Y-63849999D02*
X140100000Y-64750001D01*
G75*
G02*
X139850001Y-65000000I-249999J0D01*
G01*
X139149999Y-65000000D01*
G75*
G02*
X138900000Y-64750001I0J249999D01*
G01*
X138900000Y-63849999D01*
G75*
G02*
X139149999Y-63600000I249999J0D01*
G01*
X139850001Y-63600000D01*
G75*
G02*
X140100000Y-63849999I0J-249999D01*
G01*
G37*
G36*
G01*
X142100000Y-63849999D02*
X142100000Y-64750001D01*
G75*
G02*
X141850001Y-65000000I-249999J0D01*
G01*
X141149999Y-65000000D01*
G75*
G02*
X140900000Y-64750001I0J249999D01*
G01*
X140900000Y-63849999D01*
G75*
G02*
X141149999Y-63600000I249999J0D01*
G01*
X141850001Y-63600000D01*
G75*
G02*
X142100000Y-63849999I0J-249999D01*
G01*
G37*
G36*
G01*
X131849999Y-78700000D02*
X132750001Y-78700000D01*
G75*
G02*
X133000000Y-78949999I0J-249999D01*
G01*
X133000000Y-79650001D01*
G75*
G02*
X132750001Y-79900000I-249999J0D01*
G01*
X131849999Y-79900000D01*
G75*
G02*
X131600000Y-79650001I0J249999D01*
G01*
X131600000Y-78949999D01*
G75*
G02*
X131849999Y-78700000I249999J0D01*
G01*
G37*
G36*
G01*
X131849999Y-76700000D02*
X132750001Y-76700000D01*
G75*
G02*
X133000000Y-76949999I0J-249999D01*
G01*
X133000000Y-77650001D01*
G75*
G02*
X132750001Y-77900000I-249999J0D01*
G01*
X131849999Y-77900000D01*
G75*
G02*
X131600000Y-77650001I0J249999D01*
G01*
X131600000Y-76949999D01*
G75*
G02*
X131849999Y-76700000I249999J0D01*
G01*
G37*
G36*
G01*
X140900000Y-56650001D02*
X140900000Y-55749999D01*
G75*
G02*
X141149999Y-55500000I249999J0D01*
G01*
X141850001Y-55500000D01*
G75*
G02*
X142100000Y-55749999I0J-249999D01*
G01*
X142100000Y-56650001D01*
G75*
G02*
X141850001Y-56900000I-249999J0D01*
G01*
X141149999Y-56900000D01*
G75*
G02*
X140900000Y-56650001I0J249999D01*
G01*
G37*
G36*
G01*
X138900000Y-56650001D02*
X138900000Y-55749999D01*
G75*
G02*
X139149999Y-55500000I249999J0D01*
G01*
X139850001Y-55500000D01*
G75*
G02*
X140100000Y-55749999I0J-249999D01*
G01*
X140100000Y-56650001D01*
G75*
G02*
X139850001Y-56900000I-249999J0D01*
G01*
X139149999Y-56900000D01*
G75*
G02*
X138900000Y-56650001I0J249999D01*
G01*
G37*
G36*
G01*
X140900000Y-58650001D02*
X140900000Y-57749999D01*
G75*
G02*
X141149999Y-57500000I249999J0D01*
G01*
X141850001Y-57500000D01*
G75*
G02*
X142100000Y-57749999I0J-249999D01*
G01*
X142100000Y-58650001D01*
G75*
G02*
X141850001Y-58900000I-249999J0D01*
G01*
X141149999Y-58900000D01*
G75*
G02*
X140900000Y-58650001I0J249999D01*
G01*
G37*
G36*
G01*
X138900000Y-58650001D02*
X138900000Y-57749999D01*
G75*
G02*
X139149999Y-57500000I249999J0D01*
G01*
X139850001Y-57500000D01*
G75*
G02*
X140100000Y-57749999I0J-249999D01*
G01*
X140100000Y-58650001D01*
G75*
G02*
X139850001Y-58900000I-249999J0D01*
G01*
X139149999Y-58900000D01*
G75*
G02*
X138900000Y-58650001I0J249999D01*
G01*
G37*
G36*
G01*
X140900000Y-60650001D02*
X140900000Y-59749999D01*
G75*
G02*
X141149999Y-59500000I249999J0D01*
G01*
X141850001Y-59500000D01*
G75*
G02*
X142100000Y-59749999I0J-249999D01*
G01*
X142100000Y-60650001D01*
G75*
G02*
X141850001Y-60900000I-249999J0D01*
G01*
X141149999Y-60900000D01*
G75*
G02*
X140900000Y-60650001I0J249999D01*
G01*
G37*
G36*
G01*
X138900000Y-60650001D02*
X138900000Y-59749999D01*
G75*
G02*
X139149999Y-59500000I249999J0D01*
G01*
X139850001Y-59500000D01*
G75*
G02*
X140100000Y-59749999I0J-249999D01*
G01*
X140100000Y-60650001D01*
G75*
G02*
X139850001Y-60900000I-249999J0D01*
G01*
X139149999Y-60900000D01*
G75*
G02*
X138900000Y-60650001I0J249999D01*
G01*
G37*
G36*
G01*
X140900000Y-62750001D02*
X140900000Y-61849999D01*
G75*
G02*
X141149999Y-61600000I249999J0D01*
G01*
X141850001Y-61600000D01*
G75*
G02*
X142100000Y-61849999I0J-249999D01*
G01*
X142100000Y-62750001D01*
G75*
G02*
X141850001Y-63000000I-249999J0D01*
G01*
X141149999Y-63000000D01*
G75*
G02*
X140900000Y-62750001I0J249999D01*
G01*
G37*
G36*
G01*
X138900000Y-62750001D02*
X138900000Y-61849999D01*
G75*
G02*
X139149999Y-61600000I249999J0D01*
G01*
X139850001Y-61600000D01*
G75*
G02*
X140100000Y-61849999I0J-249999D01*
G01*
X140100000Y-62750001D01*
G75*
G02*
X139850001Y-63000000I-249999J0D01*
G01*
X139149999Y-63000000D01*
G75*
G02*
X138900000Y-62750001I0J249999D01*
G01*
G37*
G36*
G01*
X176149999Y-72200000D02*
X177050001Y-72200000D01*
G75*
G02*
X177300000Y-72449999I0J-249999D01*
G01*
X177300000Y-73150001D01*
G75*
G02*
X177050001Y-73400000I-249999J0D01*
G01*
X176149999Y-73400000D01*
G75*
G02*
X175900000Y-73150001I0J249999D01*
G01*
X175900000Y-72449999D01*
G75*
G02*
X176149999Y-72200000I249999J0D01*
G01*
G37*
G36*
G01*
X176149999Y-70200000D02*
X177050001Y-70200000D01*
G75*
G02*
X177300000Y-70449999I0J-249999D01*
G01*
X177300000Y-71150001D01*
G75*
G02*
X177050001Y-71400000I-249999J0D01*
G01*
X176149999Y-71400000D01*
G75*
G02*
X175900000Y-71150001I0J249999D01*
G01*
X175900000Y-70449999D01*
G75*
G02*
X176149999Y-70200000I249999J0D01*
G01*
G37*
G36*
G01*
X179350001Y-71400000D02*
X178449999Y-71400000D01*
G75*
G02*
X178200000Y-71150001I0J249999D01*
G01*
X178200000Y-70449999D01*
G75*
G02*
X178449999Y-70200000I249999J0D01*
G01*
X179350001Y-70200000D01*
G75*
G02*
X179600000Y-70449999I0J-249999D01*
G01*
X179600000Y-71150001D01*
G75*
G02*
X179350001Y-71400000I-249999J0D01*
G01*
G37*
G36*
G01*
X179350001Y-73400000D02*
X178449999Y-73400000D01*
G75*
G02*
X178200000Y-73150001I0J249999D01*
G01*
X178200000Y-72449999D01*
G75*
G02*
X178449999Y-72200000I249999J0D01*
G01*
X179350001Y-72200000D01*
G75*
G02*
X179600000Y-72449999I0J-249999D01*
G01*
X179600000Y-73150001D01*
G75*
G02*
X179350001Y-73400000I-249999J0D01*
G01*
G37*
G36*
G01*
X133349999Y-71520000D02*
X134250001Y-71520000D01*
G75*
G02*
X134500000Y-71769999I0J-249999D01*
G01*
X134500000Y-72470001D01*
G75*
G02*
X134250001Y-72720000I-249999J0D01*
G01*
X133349999Y-72720000D01*
G75*
G02*
X133100000Y-72470001I0J249999D01*
G01*
X133100000Y-71769999D01*
G75*
G02*
X133349999Y-71520000I249999J0D01*
G01*
G37*
G36*
G01*
X133349999Y-69520000D02*
X134250001Y-69520000D01*
G75*
G02*
X134500000Y-69769999I0J-249999D01*
G01*
X134500000Y-70470001D01*
G75*
G02*
X134250001Y-70720000I-249999J0D01*
G01*
X133349999Y-70720000D01*
G75*
G02*
X133100000Y-70470001I0J249999D01*
G01*
X133100000Y-69769999D01*
G75*
G02*
X133349999Y-69520000I249999J0D01*
G01*
G37*
G36*
G01*
X178800000Y-86649999D02*
X178800000Y-87550001D01*
G75*
G02*
X178550001Y-87800000I-249999J0D01*
G01*
X177849999Y-87800000D01*
G75*
G02*
X177600000Y-87550001I0J249999D01*
G01*
X177600000Y-86649999D01*
G75*
G02*
X177849999Y-86400000I249999J0D01*
G01*
X178550001Y-86400000D01*
G75*
G02*
X178800000Y-86649999I0J-249999D01*
G01*
G37*
G36*
G01*
X180800000Y-86649999D02*
X180800000Y-87550001D01*
G75*
G02*
X180550001Y-87800000I-249999J0D01*
G01*
X179849999Y-87800000D01*
G75*
G02*
X179600000Y-87550001I0J249999D01*
G01*
X179600000Y-86649999D01*
G75*
G02*
X179849999Y-86400000I249999J0D01*
G01*
X180550001Y-86400000D01*
G75*
G02*
X180800000Y-86649999I0J-249999D01*
G01*
G37*
G36*
G01*
X178800000Y-84549999D02*
X178800000Y-85450001D01*
G75*
G02*
X178550001Y-85700000I-249999J0D01*
G01*
X177849999Y-85700000D01*
G75*
G02*
X177600000Y-85450001I0J249999D01*
G01*
X177600000Y-84549999D01*
G75*
G02*
X177849999Y-84300000I249999J0D01*
G01*
X178550001Y-84300000D01*
G75*
G02*
X178800000Y-84549999I0J-249999D01*
G01*
G37*
G36*
G01*
X180800000Y-84549999D02*
X180800000Y-85450001D01*
G75*
G02*
X180550001Y-85700000I-249999J0D01*
G01*
X179849999Y-85700000D01*
G75*
G02*
X179600000Y-85450001I0J249999D01*
G01*
X179600000Y-84549999D01*
G75*
G02*
X179849999Y-84300000I249999J0D01*
G01*
X180550001Y-84300000D01*
G75*
G02*
X180800000Y-84549999I0J-249999D01*
G01*
G37*
G36*
G01*
X131774999Y-50025000D02*
X132675001Y-50025000D01*
G75*
G02*
X132925000Y-50274999I0J-249999D01*
G01*
X132925000Y-50975001D01*
G75*
G02*
X132675001Y-51225000I-249999J0D01*
G01*
X131774999Y-51225000D01*
G75*
G02*
X131525000Y-50975001I0J249999D01*
G01*
X131525000Y-50274999D01*
G75*
G02*
X131774999Y-50025000I249999J0D01*
G01*
G37*
G36*
G01*
X131774999Y-48025000D02*
X132675001Y-48025000D01*
G75*
G02*
X132925000Y-48274999I0J-249999D01*
G01*
X132925000Y-48975001D01*
G75*
G02*
X132675001Y-49225000I-249999J0D01*
G01*
X131774999Y-49225000D01*
G75*
G02*
X131525000Y-48975001I0J249999D01*
G01*
X131525000Y-48274999D01*
G75*
G02*
X131774999Y-48025000I249999J0D01*
G01*
G37*
G36*
G01*
X135619999Y-71520000D02*
X136520001Y-71520000D01*
G75*
G02*
X136770000Y-71769999I0J-249999D01*
G01*
X136770000Y-72470001D01*
G75*
G02*
X136520001Y-72720000I-249999J0D01*
G01*
X135619999Y-72720000D01*
G75*
G02*
X135370000Y-72470001I0J249999D01*
G01*
X135370000Y-71769999D01*
G75*
G02*
X135619999Y-71520000I249999J0D01*
G01*
G37*
G36*
G01*
X135619999Y-69520000D02*
X136520001Y-69520000D01*
G75*
G02*
X136770000Y-69769999I0J-249999D01*
G01*
X136770000Y-70470001D01*
G75*
G02*
X136520001Y-70720000I-249999J0D01*
G01*
X135619999Y-70720000D01*
G75*
G02*
X135370000Y-70470001I0J249999D01*
G01*
X135370000Y-69769999D01*
G75*
G02*
X135619999Y-69520000I249999J0D01*
G01*
G37*
G36*
G01*
X180100000Y-79050001D02*
X180100000Y-78149999D01*
G75*
G02*
X180349999Y-77900000I249999J0D01*
G01*
X181050001Y-77900000D01*
G75*
G02*
X181300000Y-78149999I0J-249999D01*
G01*
X181300000Y-79050001D01*
G75*
G02*
X181050001Y-79300000I-249999J0D01*
G01*
X180349999Y-79300000D01*
G75*
G02*
X180100000Y-79050001I0J249999D01*
G01*
G37*
G36*
G01*
X178100000Y-79050001D02*
X178100000Y-78149999D01*
G75*
G02*
X178349999Y-77900000I249999J0D01*
G01*
X179050001Y-77900000D01*
G75*
G02*
X179300000Y-78149999I0J-249999D01*
G01*
X179300000Y-79050001D01*
G75*
G02*
X179050001Y-79300000I-249999J0D01*
G01*
X178349999Y-79300000D01*
G75*
G02*
X178100000Y-79050001I0J249999D01*
G01*
G37*
G36*
G01*
X151549999Y-78900000D02*
X152450001Y-78900000D01*
G75*
G02*
X152700000Y-79149999I0J-249999D01*
G01*
X152700000Y-79850001D01*
G75*
G02*
X152450001Y-80100000I-249999J0D01*
G01*
X151549999Y-80100000D01*
G75*
G02*
X151300000Y-79850001I0J249999D01*
G01*
X151300000Y-79149999D01*
G75*
G02*
X151549999Y-78900000I249999J0D01*
G01*
G37*
G36*
G01*
X151549999Y-76900000D02*
X152450001Y-76900000D01*
G75*
G02*
X152700000Y-77149999I0J-249999D01*
G01*
X152700000Y-77850001D01*
G75*
G02*
X152450001Y-78100000I-249999J0D01*
G01*
X151549999Y-78100000D01*
G75*
G02*
X151300000Y-77850001I0J249999D01*
G01*
X151300000Y-77149999D01*
G75*
G02*
X151549999Y-76900000I249999J0D01*
G01*
G37*
G36*
G01*
X133880001Y-54260000D02*
X132979999Y-54260000D01*
G75*
G02*
X132730000Y-54010001I0J249999D01*
G01*
X132730000Y-53309999D01*
G75*
G02*
X132979999Y-53060000I249999J0D01*
G01*
X133880001Y-53060000D01*
G75*
G02*
X134130000Y-53309999I0J-249999D01*
G01*
X134130000Y-54010001D01*
G75*
G02*
X133880001Y-54260000I-249999J0D01*
G01*
G37*
G36*
G01*
X133880001Y-56260000D02*
X132979999Y-56260000D01*
G75*
G02*
X132730000Y-56010001I0J249999D01*
G01*
X132730000Y-55309999D01*
G75*
G02*
X132979999Y-55060000I249999J0D01*
G01*
X133880001Y-55060000D01*
G75*
G02*
X134130000Y-55309999I0J-249999D01*
G01*
X134130000Y-56010001D01*
G75*
G02*
X133880001Y-56260000I-249999J0D01*
G01*
G37*
G36*
G01*
X154049999Y-78900000D02*
X154950001Y-78900000D01*
G75*
G02*
X155200000Y-79149999I0J-249999D01*
G01*
X155200000Y-79850001D01*
G75*
G02*
X154950001Y-80100000I-249999J0D01*
G01*
X154049999Y-80100000D01*
G75*
G02*
X153800000Y-79850001I0J249999D01*
G01*
X153800000Y-79149999D01*
G75*
G02*
X154049999Y-78900000I249999J0D01*
G01*
G37*
G36*
G01*
X154049999Y-76900000D02*
X154950001Y-76900000D01*
G75*
G02*
X155200000Y-77149999I0J-249999D01*
G01*
X155200000Y-77850001D01*
G75*
G02*
X154950001Y-78100000I-249999J0D01*
G01*
X154049999Y-78100000D01*
G75*
G02*
X153800000Y-77850001I0J249999D01*
G01*
X153800000Y-77149999D01*
G75*
G02*
X154049999Y-76900000I249999J0D01*
G01*
G37*
D16*
X115080000Y-89005000D03*
X120080000Y-85505000D03*
X115080000Y-96005000D03*
X120080000Y-92505000D03*
X115080000Y-103005000D03*
X120080000Y-99505000D03*
X115080000Y-110005000D03*
X120080000Y-106505000D03*
X115080000Y-117005000D03*
X120080000Y-113505000D03*
X115080000Y-124005000D03*
X120080000Y-120505000D03*
X120080000Y-127505000D03*
D28*
X131300000Y-72250000D03*
X131300000Y-68950000D03*
X130890000Y-52740000D03*
X130890000Y-56040000D03*
G36*
G01*
X131825000Y-86550000D02*
X132775000Y-86550000D01*
G75*
G02*
X133025000Y-86800000I0J-250000D01*
G01*
X133025000Y-87475000D01*
G75*
G02*
X132775000Y-87725000I-250000J0D01*
G01*
X131825000Y-87725000D01*
G75*
G02*
X131575000Y-87475000I0J250000D01*
G01*
X131575000Y-86800000D01*
G75*
G02*
X131825000Y-86550000I250000J0D01*
G01*
G37*
G36*
G01*
X131825000Y-84475000D02*
X132775000Y-84475000D01*
G75*
G02*
X133025000Y-84725000I0J-250000D01*
G01*
X133025000Y-85400000D01*
G75*
G02*
X132775000Y-85650000I-250000J0D01*
G01*
X131825000Y-85650000D01*
G75*
G02*
X131575000Y-85400000I0J250000D01*
G01*
X131575000Y-84725000D01*
G75*
G02*
X131825000Y-84475000I250000J0D01*
G01*
G37*
G36*
G01*
X142975000Y-48950000D02*
X142025000Y-48950000D01*
G75*
G02*
X141775000Y-48700000I0J250000D01*
G01*
X141775000Y-48025000D01*
G75*
G02*
X142025000Y-47775000I250000J0D01*
G01*
X142975000Y-47775000D01*
G75*
G02*
X143225000Y-48025000I0J-250000D01*
G01*
X143225000Y-48700000D01*
G75*
G02*
X142975000Y-48950000I-250000J0D01*
G01*
G37*
G36*
G01*
X142975000Y-51025000D02*
X142025000Y-51025000D01*
G75*
G02*
X141775000Y-50775000I0J250000D01*
G01*
X141775000Y-50100000D01*
G75*
G02*
X142025000Y-49850000I250000J0D01*
G01*
X142975000Y-49850000D01*
G75*
G02*
X143225000Y-50100000I0J-250000D01*
G01*
X143225000Y-50775000D01*
G75*
G02*
X142975000Y-51025000I-250000J0D01*
G01*
G37*
G36*
G01*
X183650000Y-88875000D02*
X183650000Y-87925000D01*
G75*
G02*
X183900000Y-87675000I250000J0D01*
G01*
X184575000Y-87675000D01*
G75*
G02*
X184825000Y-87925000I0J-250000D01*
G01*
X184825000Y-88875000D01*
G75*
G02*
X184575000Y-89125000I-250000J0D01*
G01*
X183900000Y-89125000D01*
G75*
G02*
X183650000Y-88875000I0J250000D01*
G01*
G37*
G36*
G01*
X181575000Y-88875000D02*
X181575000Y-87925000D01*
G75*
G02*
X181825000Y-87675000I250000J0D01*
G01*
X182500000Y-87675000D01*
G75*
G02*
X182750000Y-87925000I0J-250000D01*
G01*
X182750000Y-88875000D01*
G75*
G02*
X182500000Y-89125000I-250000J0D01*
G01*
X181825000Y-89125000D01*
G75*
G02*
X181575000Y-88875000I0J250000D01*
G01*
G37*
G36*
G01*
X145050000Y-49825000D02*
X145050000Y-50775000D01*
G75*
G02*
X144800000Y-51025000I-250000J0D01*
G01*
X144125000Y-51025000D01*
G75*
G02*
X143875000Y-50775000I0J250000D01*
G01*
X143875000Y-49825000D01*
G75*
G02*
X144125000Y-49575000I250000J0D01*
G01*
X144800000Y-49575000D01*
G75*
G02*
X145050000Y-49825000I0J-250000D01*
G01*
G37*
G36*
G01*
X147125000Y-49825000D02*
X147125000Y-50775000D01*
G75*
G02*
X146875000Y-51025000I-250000J0D01*
G01*
X146200000Y-51025000D01*
G75*
G02*
X145950000Y-50775000I0J250000D01*
G01*
X145950000Y-49825000D01*
G75*
G02*
X146200000Y-49575000I250000J0D01*
G01*
X146875000Y-49575000D01*
G75*
G02*
X147125000Y-49825000I0J-250000D01*
G01*
G37*
G36*
G01*
X143575000Y-82525000D02*
X142625000Y-82525000D01*
G75*
G02*
X142375000Y-82275000I0J250000D01*
G01*
X142375000Y-81600000D01*
G75*
G02*
X142625000Y-81350000I250000J0D01*
G01*
X143575000Y-81350000D01*
G75*
G02*
X143825000Y-81600000I0J-250000D01*
G01*
X143825000Y-82275000D01*
G75*
G02*
X143575000Y-82525000I-250000J0D01*
G01*
G37*
G36*
G01*
X143575000Y-80450000D02*
X142625000Y-80450000D01*
G75*
G02*
X142375000Y-80200000I0J250000D01*
G01*
X142375000Y-79525000D01*
G75*
G02*
X142625000Y-79275000I250000J0D01*
G01*
X143575000Y-79275000D01*
G75*
G02*
X143825000Y-79525000I0J-250000D01*
G01*
X143825000Y-80200000D01*
G75*
G02*
X143575000Y-80450000I-250000J0D01*
G01*
G37*
G36*
G01*
X134859000Y-49137500D02*
X133909000Y-49137500D01*
G75*
G02*
X133659000Y-48887500I0J250000D01*
G01*
X133659000Y-48212500D01*
G75*
G02*
X133909000Y-47962500I250000J0D01*
G01*
X134859000Y-47962500D01*
G75*
G02*
X135109000Y-48212500I0J-250000D01*
G01*
X135109000Y-48887500D01*
G75*
G02*
X134859000Y-49137500I-250000J0D01*
G01*
G37*
G36*
G01*
X134859000Y-51212500D02*
X133909000Y-51212500D01*
G75*
G02*
X133659000Y-50962500I0J250000D01*
G01*
X133659000Y-50287500D01*
G75*
G02*
X133909000Y-50037500I250000J0D01*
G01*
X134859000Y-50037500D01*
G75*
G02*
X135109000Y-50287500I0J-250000D01*
G01*
X135109000Y-50962500D01*
G75*
G02*
X134859000Y-51212500I-250000J0D01*
G01*
G37*
G36*
G01*
X132212500Y-66725000D02*
X132212500Y-67675000D01*
G75*
G02*
X131962500Y-67925000I-250000J0D01*
G01*
X131287500Y-67925000D01*
G75*
G02*
X131037500Y-67675000I0J250000D01*
G01*
X131037500Y-66725000D01*
G75*
G02*
X131287500Y-66475000I250000J0D01*
G01*
X131962500Y-66475000D01*
G75*
G02*
X132212500Y-66725000I0J-250000D01*
G01*
G37*
G36*
G01*
X134287500Y-66725000D02*
X134287500Y-67675000D01*
G75*
G02*
X134037500Y-67925000I-250000J0D01*
G01*
X133362500Y-67925000D01*
G75*
G02*
X133112500Y-67675000I0J250000D01*
G01*
X133112500Y-66725000D01*
G75*
G02*
X133362500Y-66475000I250000J0D01*
G01*
X134037500Y-66475000D01*
G75*
G02*
X134287500Y-66725000I0J-250000D01*
G01*
G37*
G36*
G01*
X180625000Y-72250000D02*
X181575000Y-72250000D01*
G75*
G02*
X181825000Y-72500000I0J-250000D01*
G01*
X181825000Y-73175000D01*
G75*
G02*
X181575000Y-73425000I-250000J0D01*
G01*
X180625000Y-73425000D01*
G75*
G02*
X180375000Y-73175000I0J250000D01*
G01*
X180375000Y-72500000D01*
G75*
G02*
X180625000Y-72250000I250000J0D01*
G01*
G37*
G36*
G01*
X180625000Y-70175000D02*
X181575000Y-70175000D01*
G75*
G02*
X181825000Y-70425000I0J-250000D01*
G01*
X181825000Y-71100000D01*
G75*
G02*
X181575000Y-71350000I-250000J0D01*
G01*
X180625000Y-71350000D01*
G75*
G02*
X180375000Y-71100000I0J250000D01*
G01*
X180375000Y-70425000D01*
G75*
G02*
X180625000Y-70175000I250000J0D01*
G01*
G37*
G36*
G01*
X184012500Y-75825000D02*
X184012500Y-76775000D01*
G75*
G02*
X183762500Y-77025000I-250000J0D01*
G01*
X183087500Y-77025000D01*
G75*
G02*
X182837500Y-76775000I0J250000D01*
G01*
X182837500Y-75825000D01*
G75*
G02*
X183087500Y-75575000I250000J0D01*
G01*
X183762500Y-75575000D01*
G75*
G02*
X184012500Y-75825000I0J-250000D01*
G01*
G37*
G36*
G01*
X186087500Y-75825000D02*
X186087500Y-76775000D01*
G75*
G02*
X185837500Y-77025000I-250000J0D01*
G01*
X185162500Y-77025000D01*
G75*
G02*
X184912500Y-76775000I0J250000D01*
G01*
X184912500Y-75825000D01*
G75*
G02*
X185162500Y-75575000I250000J0D01*
G01*
X185837500Y-75575000D01*
G75*
G02*
X186087500Y-75825000I0J-250000D01*
G01*
G37*
G36*
G01*
X141475000Y-70650000D02*
X140525000Y-70650000D01*
G75*
G02*
X140275000Y-70400000I0J250000D01*
G01*
X140275000Y-69725000D01*
G75*
G02*
X140525000Y-69475000I250000J0D01*
G01*
X141475000Y-69475000D01*
G75*
G02*
X141725000Y-69725000I0J-250000D01*
G01*
X141725000Y-70400000D01*
G75*
G02*
X141475000Y-70650000I-250000J0D01*
G01*
G37*
G36*
G01*
X141475000Y-72725000D02*
X140525000Y-72725000D01*
G75*
G02*
X140275000Y-72475000I0J250000D01*
G01*
X140275000Y-71800000D01*
G75*
G02*
X140525000Y-71550000I250000J0D01*
G01*
X141475000Y-71550000D01*
G75*
G02*
X141725000Y-71800000I0J-250000D01*
G01*
X141725000Y-72475000D01*
G75*
G02*
X141475000Y-72725000I-250000J0D01*
G01*
G37*
G36*
G01*
X131812500Y-57625000D02*
X131812500Y-58575000D01*
G75*
G02*
X131562500Y-58825000I-250000J0D01*
G01*
X130887500Y-58825000D01*
G75*
G02*
X130637500Y-58575000I0J250000D01*
G01*
X130637500Y-57625000D01*
G75*
G02*
X130887500Y-57375000I250000J0D01*
G01*
X131562500Y-57375000D01*
G75*
G02*
X131812500Y-57625000I0J-250000D01*
G01*
G37*
G36*
G01*
X133887500Y-57625000D02*
X133887500Y-58575000D01*
G75*
G02*
X133637500Y-58825000I-250000J0D01*
G01*
X132962500Y-58825000D01*
G75*
G02*
X132712500Y-58575000I0J250000D01*
G01*
X132712500Y-57625000D01*
G75*
G02*
X132962500Y-57375000I250000J0D01*
G01*
X133637500Y-57375000D01*
G75*
G02*
X133887500Y-57625000I0J-250000D01*
G01*
G37*
M02*
