M48
INCH,TZ
T1C0.0134
T2C0.0157
T3C0.0299
T4C0.0394
T5C0.0472
T6C0.0551
T7C0.0728
T8C0.0787
T9C0.1260
%
G90
G05
T1
X52717Y-32638
X53110Y-22953
X53898Y-32795
X53898Y-36339
X54094Y-29370
X54370Y-29134
X54409Y-31654
X54409Y-36339
X54606Y-29409
X54882Y-29213
X54882Y-31417
X54882Y-36339
X55079Y-29409
X55079Y-30787
X55394Y-20551
X55394Y-31614
X55394Y-36339
X55906Y-32874
X55906Y-34803
X56339Y-25472
X56614Y-24921
X56850Y-24409
X56870Y-40374
X56929Y-46496
X57081Y-23892
X57323Y-23425
X57559Y-22913
X57913Y-22441
X57992Y-42008
X58199Y-45354
X58346Y-19409
X59646Y-25472
X60472Y-29488
X60472Y-29843
X60551Y-27244
X61260Y-28189
X63228Y-28386
X64094Y-27520
X64094Y-29961
X64449Y-25354
X64724Y-25354
X64951Y-23386
X66575Y-25906
X67087Y-33110
X67480Y-33661
X69567Y-33701
X69587Y-33091
X69843Y-26575
X71476Y-29114
T2
X50197Y-19409
X51457Y-34449
X52126Y-29488
X53504Y-27047
X53937Y-22795
X54331Y-19016
X54370Y-26339
X54685Y-21417
X55551Y-41417
X55551Y-44291
X55591Y-26220
X55984Y-26929
X56260Y-20787
X56417Y-30394
X56417Y-36457
X56457Y-32795
X57559Y-40630
X57756Y-21457
X58071Y-26654
X58150Y-38780
X58268Y-18898
X58583Y-43228
X59724Y-28228
X61614Y-39449
X61614Y-41417
X61614Y-44291
X65157Y-40079
X66929Y-21102
X66929Y-22362
X66929Y-23976
X69134Y-30709
X69213Y-21417
X69213Y-26811
X70945Y-32874
X71929Y-27283
T3
X49307Y-21431
X49307Y-22431
X49307Y-23431
X50307Y-20931
X50307Y-21931
X50307Y-22931
X49307Y-27931
X49307Y-28931
X49307Y-29931
X50307Y-27431
X50307Y-28431
X50307Y-29431
T4
X58835Y-32559
X59835Y-32559
X60835Y-32559
X61835Y-32559
X62835Y-32559
T5
X45307Y-35041
X45307Y-37797
X45307Y-40553
X45307Y-43309
X45307Y-46065
X45307Y-48821
X47276Y-33663
X47276Y-36419
X47276Y-39175
X47276Y-41931
X47276Y-44687
X47276Y-47443
X47276Y-50199
X49508Y-47992
X50886Y-49961
X52264Y-47992
X53642Y-49961
X55020Y-47992
X56398Y-49961
X57776Y-47992
X59154Y-49961
X60531Y-47992
X61909Y-49961
X63287Y-47992
X64665Y-49961
T6
X74307Y-19931
X74307Y-21900
X74307Y-23931
X74307Y-25900
T7
X75057Y-27831
X75057Y-29681
X75057Y-31531
T8
X61929Y-22323
T9
X53150Y-24606
X69803Y-24606
X69803Y-44685
X53150Y-44685
T0
M30
