G04 #@! TF.GenerationSoftware,KiCad,Pcbnew,(5.1.7)-1*
G04 #@! TF.CreationDate,2021-05-21T19:56:49+02:00*
G04 #@! TF.ProjectId,hlavniDPS,686c6176-6e69-4445-9053-2e6b69636164,rev?*
G04 #@! TF.SameCoordinates,Original*
G04 #@! TF.FileFunction,Soldermask,Bot*
G04 #@! TF.FilePolarity,Negative*
%FSLAX46Y46*%
G04 Gerber Fmt 4.6, Leading zero omitted, Abs format (unit mm)*
G04 Created by KiCad (PCBNEW (5.1.7)-1) date 2021-05-21 19:56:49*
%MOMM*%
%LPD*%
G01*
G04 APERTURE LIST*
%ADD10C,2.000000*%
%ADD11C,3.250000*%
%ADD12C,1.520000*%
%ADD13R,1.520000X1.520000*%
%ADD14C,2.400000*%
%ADD15C,5.700000*%
%ADD16R,1.700000X1.700000*%
%ADD17O,1.700000X1.700000*%
%ADD18C,3.000000*%
G04 APERTURE END LIST*
D10*
X160750000Y-121900000D03*
X164250000Y-126900000D03*
X153750000Y-121900000D03*
X157250000Y-126900000D03*
X146750000Y-121900000D03*
X150250000Y-126900000D03*
X139750000Y-121900000D03*
X143250000Y-126900000D03*
X132750000Y-121900000D03*
X136250000Y-126900000D03*
X125750000Y-121900000D03*
X129250000Y-126900000D03*
D11*
X118890000Y-77925000D03*
D12*
X125240000Y-76025000D03*
X127780000Y-74755000D03*
X125240000Y-73485000D03*
X127780000Y-72215000D03*
X125240000Y-70945000D03*
D11*
X118890000Y-67765000D03*
D13*
X127780000Y-69675000D03*
D14*
X188740000Y-60785000D03*
X188740000Y-65785000D03*
X188740000Y-50625000D03*
X188740000Y-55625000D03*
D15*
X177300000Y-62500000D03*
X135000000Y-113500000D03*
X177300000Y-113500000D03*
X135000000Y-62500000D03*
D11*
X118890000Y-61415000D03*
D12*
X125240000Y-59515000D03*
X127780000Y-58245000D03*
X125240000Y-56975000D03*
X127780000Y-55705000D03*
X125240000Y-54435000D03*
D11*
X118890000Y-51255000D03*
D13*
X127780000Y-53165000D03*
D16*
X159600000Y-82700000D03*
D17*
X157060000Y-82700000D03*
X154520000Y-82700000D03*
X151980000Y-82700000D03*
X149440000Y-82700000D03*
D18*
X190645000Y-80090000D03*
X190645000Y-75390000D03*
X190645000Y-70690000D03*
D10*
X115080000Y-89005000D03*
X120080000Y-85505000D03*
X115080000Y-96005000D03*
X120080000Y-92505000D03*
X115080000Y-103005000D03*
X120080000Y-99505000D03*
X115080000Y-110005000D03*
X120080000Y-106505000D03*
X115080000Y-117005000D03*
X120080000Y-113505000D03*
X115080000Y-124005000D03*
X120080000Y-120505000D03*
X120080000Y-127505000D03*
M02*
