G04 #@! TF.GenerationSoftware,KiCad,Pcbnew,(5.1.7)-1*
G04 #@! TF.CreationDate,2021-05-21T19:56:49+02:00*
G04 #@! TF.ProjectId,hlavniDPS,686c6176-6e69-4445-9053-2e6b69636164,rev?*
G04 #@! TF.SameCoordinates,Original*
G04 #@! TF.FileFunction,Legend,Top*
G04 #@! TF.FilePolarity,Positive*
%FSLAX46Y46*%
G04 Gerber Fmt 4.6, Leading zero omitted, Abs format (unit mm)*
G04 Created by KiCad (PCBNEW (5.1.7)-1) date 2021-05-21 19:56:49*
%MOMM*%
%LPD*%
G01*
G04 APERTURE LIST*
%ADD10C,0.150000*%
%ADD11C,0.100000*%
%ADD12C,0.120000*%
%ADD13C,0.200000*%
%ADD14C,0.127000*%
G04 APERTURE END LIST*
D10*
X158457142Y-85252380D02*
X158457142Y-84252380D01*
X158695238Y-84252380D01*
X158838095Y-84300000D01*
X158933333Y-84395238D01*
X158980952Y-84490476D01*
X159028571Y-84680952D01*
X159028571Y-84823809D01*
X158980952Y-85014285D01*
X158933333Y-85109523D01*
X158838095Y-85204761D01*
X158695238Y-85252380D01*
X158457142Y-85252380D01*
X159314285Y-84252380D02*
X159885714Y-84252380D01*
X159600000Y-85252380D02*
X159600000Y-84252380D01*
X160790476Y-85252380D02*
X160457142Y-84776190D01*
X160219047Y-85252380D02*
X160219047Y-84252380D01*
X160600000Y-84252380D01*
X160695238Y-84300000D01*
X160742857Y-84347619D01*
X160790476Y-84442857D01*
X160790476Y-84585714D01*
X160742857Y-84680952D01*
X160695238Y-84728571D01*
X160600000Y-84776190D01*
X160219047Y-84776190D01*
X156452380Y-85652380D02*
X156119047Y-85176190D01*
X155880952Y-85652380D02*
X155880952Y-84652380D01*
X156261904Y-84652380D01*
X156357142Y-84700000D01*
X156404761Y-84747619D01*
X156452380Y-84842857D01*
X156452380Y-84985714D01*
X156404761Y-85080952D01*
X156357142Y-85128571D01*
X156261904Y-85176190D01*
X155880952Y-85176190D01*
X156738095Y-84652380D02*
X157309523Y-84652380D01*
X157023809Y-85652380D02*
X157023809Y-84652380D01*
X157595238Y-85604761D02*
X157738095Y-85652380D01*
X157976190Y-85652380D01*
X158071428Y-85604761D01*
X158119047Y-85557142D01*
X158166666Y-85461904D01*
X158166666Y-85366666D01*
X158119047Y-85271428D01*
X158071428Y-85223809D01*
X157976190Y-85176190D01*
X157785714Y-85128571D01*
X157690476Y-85080952D01*
X157642857Y-85033333D01*
X157595238Y-84938095D01*
X157595238Y-84842857D01*
X157642857Y-84747619D01*
X157690476Y-84700000D01*
X157785714Y-84652380D01*
X158023809Y-84652380D01*
X158166666Y-84700000D01*
X151238095Y-84652380D02*
X151809523Y-84652380D01*
X151523809Y-85652380D02*
X151523809Y-84652380D01*
X152047619Y-84652380D02*
X152714285Y-85652380D01*
X152714285Y-84652380D02*
X152047619Y-85652380D01*
X154333333Y-85252380D02*
X154000000Y-84776190D01*
X153761904Y-85252380D02*
X153761904Y-84252380D01*
X154142857Y-84252380D01*
X154238095Y-84300000D01*
X154285714Y-84347619D01*
X154333333Y-84442857D01*
X154333333Y-84585714D01*
X154285714Y-84680952D01*
X154238095Y-84728571D01*
X154142857Y-84776190D01*
X153761904Y-84776190D01*
X154666666Y-84252380D02*
X155333333Y-85252380D01*
X155333333Y-84252380D02*
X154666666Y-85252380D01*
X148638095Y-84300000D02*
X148542857Y-84252380D01*
X148400000Y-84252380D01*
X148257142Y-84300000D01*
X148161904Y-84395238D01*
X148114285Y-84490476D01*
X148066666Y-84680952D01*
X148066666Y-84823809D01*
X148114285Y-85014285D01*
X148161904Y-85109523D01*
X148257142Y-85204761D01*
X148400000Y-85252380D01*
X148495238Y-85252380D01*
X148638095Y-85204761D01*
X148685714Y-85157142D01*
X148685714Y-84823809D01*
X148495238Y-84823809D01*
X149114285Y-85252380D02*
X149114285Y-84252380D01*
X149685714Y-85252380D01*
X149685714Y-84252380D01*
X150161904Y-85252380D02*
X150161904Y-84252380D01*
X150400000Y-84252380D01*
X150542857Y-84300000D01*
X150638095Y-84395238D01*
X150685714Y-84490476D01*
X150733333Y-84680952D01*
X150733333Y-84823809D01*
X150685714Y-85014285D01*
X150638095Y-85109523D01*
X150542857Y-85204761D01*
X150400000Y-85252380D01*
X150161904Y-85252380D01*
X182242857Y-65885714D02*
X183157142Y-65885714D01*
X182342857Y-60785714D02*
X183257142Y-60785714D01*
X182800000Y-61242857D02*
X182800000Y-60328571D01*
X182242857Y-55585714D02*
X183157142Y-55585714D01*
X182342857Y-50385714D02*
X183257142Y-50385714D01*
X182800000Y-50842857D02*
X182800000Y-49928571D01*
X166052380Y-94852380D02*
X165719047Y-94376190D01*
X165480952Y-94852380D02*
X165480952Y-93852380D01*
X165861904Y-93852380D01*
X165957142Y-93900000D01*
X166004761Y-93947619D01*
X166052380Y-94042857D01*
X166052380Y-94185714D01*
X166004761Y-94280952D01*
X165957142Y-94328571D01*
X165861904Y-94376190D01*
X165480952Y-94376190D01*
X166480952Y-94328571D02*
X166814285Y-94328571D01*
X166957142Y-94852380D02*
X166480952Y-94852380D01*
X166480952Y-93852380D01*
X166957142Y-93852380D01*
X167338095Y-94804761D02*
X167480952Y-94852380D01*
X167719047Y-94852380D01*
X167814285Y-94804761D01*
X167861904Y-94757142D01*
X167909523Y-94661904D01*
X167909523Y-94566666D01*
X167861904Y-94471428D01*
X167814285Y-94423809D01*
X167719047Y-94376190D01*
X167528571Y-94328571D01*
X167433333Y-94280952D01*
X167385714Y-94233333D01*
X167338095Y-94138095D01*
X167338095Y-94042857D01*
X167385714Y-93947619D01*
X167433333Y-93900000D01*
X167528571Y-93852380D01*
X167766666Y-93852380D01*
X167909523Y-93900000D01*
X168338095Y-94328571D02*
X168671428Y-94328571D01*
X168814285Y-94852380D02*
X168338095Y-94852380D01*
X168338095Y-93852380D01*
X168814285Y-93852380D01*
X169100000Y-93852380D02*
X169671428Y-93852380D01*
X169385714Y-94852380D02*
X169385714Y-93852380D01*
X169766666Y-94947619D02*
X170528571Y-94947619D01*
X171338095Y-94757142D02*
X171290476Y-94804761D01*
X171147619Y-94852380D01*
X171052380Y-94852380D01*
X170909523Y-94804761D01*
X170814285Y-94709523D01*
X170766666Y-94614285D01*
X170719047Y-94423809D01*
X170719047Y-94280952D01*
X170766666Y-94090476D01*
X170814285Y-93995238D01*
X170909523Y-93900000D01*
X171052380Y-93852380D01*
X171147619Y-93852380D01*
X171290476Y-93900000D01*
X171338095Y-93947619D01*
X171957142Y-93852380D02*
X172147619Y-93852380D01*
X172242857Y-93900000D01*
X172338095Y-93995238D01*
X172385714Y-94185714D01*
X172385714Y-94519047D01*
X172338095Y-94709523D01*
X172242857Y-94804761D01*
X172147619Y-94852380D01*
X171957142Y-94852380D01*
X171861904Y-94804761D01*
X171766666Y-94709523D01*
X171719047Y-94519047D01*
X171719047Y-94185714D01*
X171766666Y-93995238D01*
X171861904Y-93900000D01*
X171957142Y-93852380D01*
X172814285Y-94852380D02*
X172814285Y-93852380D01*
X173385714Y-94852380D01*
X173385714Y-93852380D01*
X174195238Y-94328571D02*
X173861904Y-94328571D01*
X173861904Y-94852380D02*
X173861904Y-93852380D01*
X174338095Y-93852380D01*
X174719047Y-94852380D02*
X174719047Y-93852380D01*
X175719047Y-93900000D02*
X175623809Y-93852380D01*
X175480952Y-93852380D01*
X175338095Y-93900000D01*
X175242857Y-93995238D01*
X175195238Y-94090476D01*
X175147619Y-94280952D01*
X175147619Y-94423809D01*
X175195238Y-94614285D01*
X175242857Y-94709523D01*
X175338095Y-94804761D01*
X175480952Y-94852380D01*
X175576190Y-94852380D01*
X175719047Y-94804761D01*
X175766666Y-94757142D01*
X175766666Y-94423809D01*
X175576190Y-94423809D01*
X154690476Y-94852380D02*
X154357142Y-94376190D01*
X154119047Y-94852380D02*
X154119047Y-93852380D01*
X154500000Y-93852380D01*
X154595238Y-93900000D01*
X154642857Y-93947619D01*
X154690476Y-94042857D01*
X154690476Y-94185714D01*
X154642857Y-94280952D01*
X154595238Y-94328571D01*
X154500000Y-94376190D01*
X154119047Y-94376190D01*
X155119047Y-94328571D02*
X155452380Y-94328571D01*
X155595238Y-94852380D02*
X155119047Y-94852380D01*
X155119047Y-93852380D01*
X155595238Y-93852380D01*
X155976190Y-94804761D02*
X156119047Y-94852380D01*
X156357142Y-94852380D01*
X156452380Y-94804761D01*
X156500000Y-94757142D01*
X156547619Y-94661904D01*
X156547619Y-94566666D01*
X156500000Y-94471428D01*
X156452380Y-94423809D01*
X156357142Y-94376190D01*
X156166666Y-94328571D01*
X156071428Y-94280952D01*
X156023809Y-94233333D01*
X155976190Y-94138095D01*
X155976190Y-94042857D01*
X156023809Y-93947619D01*
X156071428Y-93900000D01*
X156166666Y-93852380D01*
X156404761Y-93852380D01*
X156547619Y-93900000D01*
X156833333Y-93852380D02*
X157404761Y-93852380D01*
X157119047Y-94852380D02*
X157119047Y-93852380D01*
X157690476Y-94566666D02*
X158166666Y-94566666D01*
X157595238Y-94852380D02*
X157928571Y-93852380D01*
X158261904Y-94852380D01*
X159166666Y-94852380D02*
X158833333Y-94376190D01*
X158595238Y-94852380D02*
X158595238Y-93852380D01*
X158976190Y-93852380D01*
X159071428Y-93900000D01*
X159119047Y-93947619D01*
X159166666Y-94042857D01*
X159166666Y-94185714D01*
X159119047Y-94280952D01*
X159071428Y-94328571D01*
X158976190Y-94376190D01*
X158595238Y-94376190D01*
X159452380Y-93852380D02*
X160023809Y-93852380D01*
X159738095Y-94852380D02*
X159738095Y-93852380D01*
X163761904Y-116692738D02*
X163761904Y-116197500D01*
X164066666Y-116464166D01*
X164066666Y-116349880D01*
X164104761Y-116273690D01*
X164142857Y-116235595D01*
X164219047Y-116197500D01*
X164409523Y-116197500D01*
X164485714Y-116235595D01*
X164523809Y-116273690D01*
X164561904Y-116349880D01*
X164561904Y-116578452D01*
X164523809Y-116654642D01*
X164485714Y-116692738D01*
X163761904Y-115968928D02*
X164561904Y-115702261D01*
X163761904Y-115435595D01*
X163761904Y-115245119D02*
X163761904Y-114749880D01*
X164066666Y-115016547D01*
X164066666Y-114902261D01*
X164104761Y-114826071D01*
X164142857Y-114787976D01*
X164219047Y-114749880D01*
X164409523Y-114749880D01*
X164485714Y-114787976D01*
X164523809Y-114826071D01*
X164561904Y-114902261D01*
X164561904Y-115130833D01*
X164523809Y-115207023D01*
X164485714Y-115245119D01*
X157661904Y-116411785D02*
X157280952Y-116678452D01*
X157661904Y-116868928D02*
X156861904Y-116868928D01*
X156861904Y-116564166D01*
X156900000Y-116487976D01*
X156938095Y-116449880D01*
X157014285Y-116411785D01*
X157128571Y-116411785D01*
X157204761Y-116449880D01*
X157242857Y-116487976D01*
X157280952Y-116564166D01*
X157280952Y-116868928D01*
X156861904Y-116145119D02*
X157661904Y-115611785D01*
X156861904Y-115611785D02*
X157661904Y-116145119D01*
X160261904Y-116892738D02*
X160261904Y-116435595D01*
X161061904Y-116664166D02*
X160261904Y-116664166D01*
X160261904Y-116245119D02*
X161061904Y-115711785D01*
X160261904Y-115711785D02*
X161061904Y-116245119D01*
X149961904Y-116792738D02*
X149961904Y-116297500D01*
X150266666Y-116564166D01*
X150266666Y-116449880D01*
X150304761Y-116373690D01*
X150342857Y-116335595D01*
X150419047Y-116297500D01*
X150609523Y-116297500D01*
X150685714Y-116335595D01*
X150723809Y-116373690D01*
X150761904Y-116449880D01*
X150761904Y-116678452D01*
X150723809Y-116754642D01*
X150685714Y-116792738D01*
X149961904Y-116068928D02*
X150761904Y-115802261D01*
X149961904Y-115535595D01*
X149961904Y-115345119D02*
X149961904Y-114849880D01*
X150266666Y-115116547D01*
X150266666Y-115002261D01*
X150304761Y-114926071D01*
X150342857Y-114887976D01*
X150419047Y-114849880D01*
X150609523Y-114849880D01*
X150685714Y-114887976D01*
X150723809Y-114926071D01*
X150761904Y-115002261D01*
X150761904Y-115230833D01*
X150723809Y-115307023D01*
X150685714Y-115345119D01*
X153400000Y-116426071D02*
X153361904Y-116502261D01*
X153361904Y-116616547D01*
X153400000Y-116730833D01*
X153476190Y-116807023D01*
X153552380Y-116845119D01*
X153704761Y-116883214D01*
X153819047Y-116883214D01*
X153971428Y-116845119D01*
X154047619Y-116807023D01*
X154123809Y-116730833D01*
X154161904Y-116616547D01*
X154161904Y-116540357D01*
X154123809Y-116426071D01*
X154085714Y-116387976D01*
X153819047Y-116387976D01*
X153819047Y-116540357D01*
X154161904Y-116045119D02*
X153361904Y-116045119D01*
X154161904Y-115587976D01*
X153361904Y-115587976D01*
X154161904Y-115207023D02*
X153361904Y-115207023D01*
X153361904Y-115016547D01*
X153400000Y-114902261D01*
X153476190Y-114826071D01*
X153552380Y-114787976D01*
X153704761Y-114749880D01*
X153819047Y-114749880D01*
X153971428Y-114787976D01*
X154047619Y-114826071D01*
X154123809Y-114902261D01*
X154161904Y-115016547D01*
X154161904Y-115207023D01*
X146261904Y-116892738D02*
X146261904Y-116435595D01*
X147061904Y-116664166D02*
X146261904Y-116664166D01*
X146261904Y-116245119D02*
X147061904Y-115711785D01*
X146261904Y-115711785D02*
X147061904Y-116245119D01*
X143661904Y-116411785D02*
X143280952Y-116678452D01*
X143661904Y-116868928D02*
X142861904Y-116868928D01*
X142861904Y-116564166D01*
X142900000Y-116487976D01*
X142938095Y-116449880D01*
X143014285Y-116411785D01*
X143128571Y-116411785D01*
X143204761Y-116449880D01*
X143242857Y-116487976D01*
X143280952Y-116564166D01*
X143280952Y-116868928D01*
X142861904Y-116145119D02*
X143661904Y-115611785D01*
X142861904Y-115611785D02*
X143661904Y-116145119D01*
X139400000Y-116426071D02*
X139361904Y-116502261D01*
X139361904Y-116616547D01*
X139400000Y-116730833D01*
X139476190Y-116807023D01*
X139552380Y-116845119D01*
X139704761Y-116883214D01*
X139819047Y-116883214D01*
X139971428Y-116845119D01*
X140047619Y-116807023D01*
X140123809Y-116730833D01*
X140161904Y-116616547D01*
X140161904Y-116540357D01*
X140123809Y-116426071D01*
X140085714Y-116387976D01*
X139819047Y-116387976D01*
X139819047Y-116540357D01*
X140161904Y-116045119D02*
X139361904Y-116045119D01*
X140161904Y-115587976D01*
X139361904Y-115587976D01*
X140161904Y-115207023D02*
X139361904Y-115207023D01*
X139361904Y-115016547D01*
X139400000Y-114902261D01*
X139476190Y-114826071D01*
X139552380Y-114787976D01*
X139704761Y-114749880D01*
X139819047Y-114749880D01*
X139971428Y-114787976D01*
X140047619Y-114826071D01*
X140123809Y-114902261D01*
X140161904Y-115016547D01*
X140161904Y-115207023D01*
X137861904Y-116792738D02*
X137861904Y-116297500D01*
X138166666Y-116564166D01*
X138166666Y-116449880D01*
X138204761Y-116373690D01*
X138242857Y-116335595D01*
X138319047Y-116297500D01*
X138509523Y-116297500D01*
X138585714Y-116335595D01*
X138623809Y-116373690D01*
X138661904Y-116449880D01*
X138661904Y-116678452D01*
X138623809Y-116754642D01*
X138585714Y-116792738D01*
X137861904Y-116068928D02*
X138661904Y-115802261D01*
X137861904Y-115535595D01*
X137861904Y-115345119D02*
X137861904Y-114849880D01*
X138166666Y-115116547D01*
X138166666Y-115002261D01*
X138204761Y-114926071D01*
X138242857Y-114887976D01*
X138319047Y-114849880D01*
X138509523Y-114849880D01*
X138585714Y-114887976D01*
X138623809Y-114926071D01*
X138661904Y-115002261D01*
X138661904Y-115230833D01*
X138623809Y-115307023D01*
X138585714Y-115345119D01*
X131261904Y-116892738D02*
X131261904Y-116435595D01*
X132061904Y-116664166D02*
X131261904Y-116664166D01*
X131261904Y-116245119D02*
X132061904Y-115711785D01*
X131261904Y-115711785D02*
X132061904Y-116245119D01*
X129661904Y-116411785D02*
X129280952Y-116678452D01*
X129661904Y-116868928D02*
X128861904Y-116868928D01*
X128861904Y-116564166D01*
X128900000Y-116487976D01*
X128938095Y-116449880D01*
X129014285Y-116411785D01*
X129128571Y-116411785D01*
X129204761Y-116449880D01*
X129242857Y-116487976D01*
X129280952Y-116564166D01*
X129280952Y-116868928D01*
X128861904Y-116145119D02*
X129661904Y-115611785D01*
X128861904Y-115611785D02*
X129661904Y-116145119D01*
X126100000Y-116426071D02*
X126061904Y-116502261D01*
X126061904Y-116616547D01*
X126100000Y-116730833D01*
X126176190Y-116807023D01*
X126252380Y-116845119D01*
X126404761Y-116883214D01*
X126519047Y-116883214D01*
X126671428Y-116845119D01*
X126747619Y-116807023D01*
X126823809Y-116730833D01*
X126861904Y-116616547D01*
X126861904Y-116540357D01*
X126823809Y-116426071D01*
X126785714Y-116387976D01*
X126519047Y-116387976D01*
X126519047Y-116540357D01*
X126861904Y-116045119D02*
X126061904Y-116045119D01*
X126861904Y-115587976D01*
X126061904Y-115587976D01*
X126861904Y-115207023D02*
X126061904Y-115207023D01*
X126061904Y-115016547D01*
X126100000Y-114902261D01*
X126176190Y-114826071D01*
X126252380Y-114787976D01*
X126404761Y-114749880D01*
X126519047Y-114749880D01*
X126671428Y-114787976D01*
X126747619Y-114826071D01*
X126823809Y-114902261D01*
X126861904Y-115016547D01*
X126861904Y-115207023D01*
X123345357Y-96423809D02*
X123459642Y-96461904D01*
X123650119Y-96461904D01*
X123726309Y-96423809D01*
X123764404Y-96385714D01*
X123802500Y-96309523D01*
X123802500Y-96233333D01*
X123764404Y-96157142D01*
X123726309Y-96119047D01*
X123650119Y-96080952D01*
X123497738Y-96042857D01*
X123421547Y-96004761D01*
X123383452Y-95966666D01*
X123345357Y-95890476D01*
X123345357Y-95814285D01*
X123383452Y-95738095D01*
X123421547Y-95700000D01*
X123497738Y-95661904D01*
X123688214Y-95661904D01*
X123802500Y-95700000D01*
X124602500Y-96385714D02*
X124564404Y-96423809D01*
X124450119Y-96461904D01*
X124373928Y-96461904D01*
X124259642Y-96423809D01*
X124183452Y-96347619D01*
X124145357Y-96271428D01*
X124107261Y-96119047D01*
X124107261Y-96004761D01*
X124145357Y-95852380D01*
X124183452Y-95776190D01*
X124259642Y-95700000D01*
X124373928Y-95661904D01*
X124450119Y-95661904D01*
X124564404Y-95700000D01*
X124602500Y-95738095D01*
X125326309Y-96461904D02*
X124945357Y-96461904D01*
X124945357Y-95661904D01*
X123307261Y-92823809D02*
X123421547Y-92861904D01*
X123612023Y-92861904D01*
X123688214Y-92823809D01*
X123726309Y-92785714D01*
X123764404Y-92709523D01*
X123764404Y-92633333D01*
X123726309Y-92557142D01*
X123688214Y-92519047D01*
X123612023Y-92480952D01*
X123459642Y-92442857D01*
X123383452Y-92404761D01*
X123345357Y-92366666D01*
X123307261Y-92290476D01*
X123307261Y-92214285D01*
X123345357Y-92138095D01*
X123383452Y-92100000D01*
X123459642Y-92061904D01*
X123650119Y-92061904D01*
X123764404Y-92100000D01*
X124107261Y-92861904D02*
X124107261Y-92061904D01*
X124297738Y-92061904D01*
X124412023Y-92100000D01*
X124488214Y-92176190D01*
X124526309Y-92252380D01*
X124564404Y-92404761D01*
X124564404Y-92519047D01*
X124526309Y-92671428D01*
X124488214Y-92747619D01*
X124412023Y-92823809D01*
X124297738Y-92861904D01*
X124107261Y-92861904D01*
X124869166Y-92633333D02*
X125250119Y-92633333D01*
X124792976Y-92861904D02*
X125059642Y-92061904D01*
X125326309Y-92861904D01*
X123573928Y-88800000D02*
X123497738Y-88761904D01*
X123383452Y-88761904D01*
X123269166Y-88800000D01*
X123192976Y-88876190D01*
X123154880Y-88952380D01*
X123116785Y-89104761D01*
X123116785Y-89219047D01*
X123154880Y-89371428D01*
X123192976Y-89447619D01*
X123269166Y-89523809D01*
X123383452Y-89561904D01*
X123459642Y-89561904D01*
X123573928Y-89523809D01*
X123612023Y-89485714D01*
X123612023Y-89219047D01*
X123459642Y-89219047D01*
X123954880Y-89561904D02*
X123954880Y-88761904D01*
X124412023Y-89561904D01*
X124412023Y-88761904D01*
X124792976Y-89561904D02*
X124792976Y-88761904D01*
X124983452Y-88761904D01*
X125097738Y-88800000D01*
X125173928Y-88876190D01*
X125212023Y-88952380D01*
X125250119Y-89104761D01*
X125250119Y-89219047D01*
X125212023Y-89371428D01*
X125173928Y-89447619D01*
X125097738Y-89523809D01*
X124983452Y-89561904D01*
X124792976Y-89561904D01*
X123107261Y-85161904D02*
X123602500Y-85161904D01*
X123335833Y-85466666D01*
X123450119Y-85466666D01*
X123526309Y-85504761D01*
X123564404Y-85542857D01*
X123602500Y-85619047D01*
X123602500Y-85809523D01*
X123564404Y-85885714D01*
X123526309Y-85923809D01*
X123450119Y-85961904D01*
X123221547Y-85961904D01*
X123145357Y-85923809D01*
X123107261Y-85885714D01*
X123831071Y-85161904D02*
X124097738Y-85961904D01*
X124364404Y-85161904D01*
X124554880Y-85161904D02*
X125050119Y-85161904D01*
X124783452Y-85466666D01*
X124897738Y-85466666D01*
X124973928Y-85504761D01*
X125012023Y-85542857D01*
X125050119Y-85619047D01*
X125050119Y-85809523D01*
X125012023Y-85885714D01*
X124973928Y-85923809D01*
X124897738Y-85961904D01*
X124669166Y-85961904D01*
X124592976Y-85923809D01*
X124554880Y-85885714D01*
X123590476Y-106300000D02*
X123514285Y-106261904D01*
X123400000Y-106261904D01*
X123285714Y-106300000D01*
X123209523Y-106376190D01*
X123171428Y-106452380D01*
X123133333Y-106604761D01*
X123133333Y-106719047D01*
X123171428Y-106871428D01*
X123209523Y-106947619D01*
X123285714Y-107023809D01*
X123400000Y-107061904D01*
X123476190Y-107061904D01*
X123590476Y-107023809D01*
X123628571Y-106985714D01*
X123628571Y-106719047D01*
X123476190Y-106719047D01*
X123971428Y-107061904D02*
X123971428Y-106261904D01*
X124428571Y-107061904D01*
X124428571Y-106261904D01*
X124809523Y-107061904D02*
X124809523Y-106261904D01*
X125000000Y-106261904D01*
X125114285Y-106300000D01*
X125190476Y-106376190D01*
X125228571Y-106452380D01*
X125266666Y-106604761D01*
X125266666Y-106719047D01*
X125228571Y-106871428D01*
X125190476Y-106947619D01*
X125114285Y-107023809D01*
X125000000Y-107061904D01*
X124809523Y-107061904D01*
X123207261Y-99261904D02*
X123702500Y-99261904D01*
X123435833Y-99566666D01*
X123550119Y-99566666D01*
X123626309Y-99604761D01*
X123664404Y-99642857D01*
X123702500Y-99719047D01*
X123702500Y-99909523D01*
X123664404Y-99985714D01*
X123626309Y-100023809D01*
X123550119Y-100061904D01*
X123321547Y-100061904D01*
X123245357Y-100023809D01*
X123207261Y-99985714D01*
X123931071Y-99261904D02*
X124197738Y-100061904D01*
X124464404Y-99261904D01*
X124654880Y-99261904D02*
X125150119Y-99261904D01*
X124883452Y-99566666D01*
X124997738Y-99566666D01*
X125073928Y-99604761D01*
X125112023Y-99642857D01*
X125150119Y-99719047D01*
X125150119Y-99909523D01*
X125112023Y-99985714D01*
X125073928Y-100023809D01*
X124997738Y-100061904D01*
X124769166Y-100061904D01*
X124692976Y-100023809D01*
X124654880Y-99985714D01*
X123333333Y-102561904D02*
X123485714Y-102561904D01*
X123561904Y-102600000D01*
X123638095Y-102676190D01*
X123676190Y-102828571D01*
X123676190Y-103095238D01*
X123638095Y-103247619D01*
X123561904Y-103323809D01*
X123485714Y-103361904D01*
X123333333Y-103361904D01*
X123257142Y-103323809D01*
X123180952Y-103247619D01*
X123142857Y-103095238D01*
X123142857Y-102828571D01*
X123180952Y-102676190D01*
X123257142Y-102600000D01*
X123333333Y-102561904D01*
X124019047Y-103361904D02*
X124019047Y-102561904D01*
X124476190Y-103361904D01*
X124476190Y-102561904D01*
X124857142Y-102942857D02*
X125123809Y-102942857D01*
X125238095Y-103361904D02*
X124857142Y-103361904D01*
X124857142Y-102561904D01*
X125238095Y-102561904D01*
X125504761Y-102561904D02*
X125695238Y-103361904D01*
X125847619Y-102790476D01*
X126000000Y-103361904D01*
X126190476Y-102561904D01*
X126495238Y-103361904D02*
X126495238Y-102561904D01*
X127333333Y-103361904D02*
X127066666Y-102980952D01*
X126876190Y-103361904D02*
X126876190Y-102561904D01*
X127180952Y-102561904D01*
X127257142Y-102600000D01*
X127295238Y-102638095D01*
X127333333Y-102714285D01*
X127333333Y-102828571D01*
X127295238Y-102904761D01*
X127257142Y-102942857D01*
X127180952Y-102980952D01*
X126876190Y-102980952D01*
X127676190Y-102942857D02*
X127942857Y-102942857D01*
X128057142Y-103361904D02*
X127676190Y-103361904D01*
X127676190Y-102561904D01*
X128057142Y-102561904D01*
X123690476Y-111100000D02*
X123614285Y-111061904D01*
X123500000Y-111061904D01*
X123385714Y-111100000D01*
X123309523Y-111176190D01*
X123271428Y-111252380D01*
X123233333Y-111404761D01*
X123233333Y-111519047D01*
X123271428Y-111671428D01*
X123309523Y-111747619D01*
X123385714Y-111823809D01*
X123500000Y-111861904D01*
X123576190Y-111861904D01*
X123690476Y-111823809D01*
X123728571Y-111785714D01*
X123728571Y-111519047D01*
X123576190Y-111519047D01*
X124071428Y-111861904D02*
X124071428Y-111061904D01*
X124528571Y-111861904D01*
X124528571Y-111061904D01*
X124909523Y-111861904D02*
X124909523Y-111061904D01*
X125100000Y-111061904D01*
X125214285Y-111100000D01*
X125290476Y-111176190D01*
X125328571Y-111252380D01*
X125366666Y-111404761D01*
X125366666Y-111519047D01*
X125328571Y-111671428D01*
X125290476Y-111747619D01*
X125214285Y-111823809D01*
X125100000Y-111861904D01*
X124909523Y-111861904D01*
X123207261Y-108861904D02*
X123702500Y-108861904D01*
X123435833Y-109166666D01*
X123550119Y-109166666D01*
X123626309Y-109204761D01*
X123664404Y-109242857D01*
X123702500Y-109319047D01*
X123702500Y-109509523D01*
X123664404Y-109585714D01*
X123626309Y-109623809D01*
X123550119Y-109661904D01*
X123321547Y-109661904D01*
X123245357Y-109623809D01*
X123207261Y-109585714D01*
X123931071Y-108861904D02*
X124197738Y-109661904D01*
X124464404Y-108861904D01*
X124654880Y-108861904D02*
X125150119Y-108861904D01*
X124883452Y-109166666D01*
X124997738Y-109166666D01*
X125073928Y-109204761D01*
X125112023Y-109242857D01*
X125150119Y-109319047D01*
X125150119Y-109509523D01*
X125112023Y-109585714D01*
X125073928Y-109623809D01*
X124997738Y-109661904D01*
X124769166Y-109661904D01*
X124692976Y-109623809D01*
X124654880Y-109585714D01*
X123433333Y-109961904D02*
X123585714Y-109961904D01*
X123661904Y-110000000D01*
X123738095Y-110076190D01*
X123776190Y-110228571D01*
X123776190Y-110495238D01*
X123738095Y-110647619D01*
X123661904Y-110723809D01*
X123585714Y-110761904D01*
X123433333Y-110761904D01*
X123357142Y-110723809D01*
X123280952Y-110647619D01*
X123242857Y-110495238D01*
X123242857Y-110228571D01*
X123280952Y-110076190D01*
X123357142Y-110000000D01*
X123433333Y-109961904D01*
X124119047Y-110761904D02*
X124119047Y-109961904D01*
X124576190Y-110761904D01*
X124576190Y-109961904D01*
X124957142Y-110342857D02*
X125223809Y-110342857D01*
X125338095Y-110761904D02*
X124957142Y-110761904D01*
X124957142Y-109961904D01*
X125338095Y-109961904D01*
X125604761Y-109961904D02*
X125795238Y-110761904D01*
X125947619Y-110190476D01*
X126100000Y-110761904D01*
X126290476Y-109961904D01*
X126595238Y-110761904D02*
X126595238Y-109961904D01*
X127433333Y-110761904D02*
X127166666Y-110380952D01*
X126976190Y-110761904D02*
X126976190Y-109961904D01*
X127280952Y-109961904D01*
X127357142Y-110000000D01*
X127395238Y-110038095D01*
X127433333Y-110114285D01*
X127433333Y-110228571D01*
X127395238Y-110304761D01*
X127357142Y-110342857D01*
X127280952Y-110380952D01*
X126976190Y-110380952D01*
X127776190Y-110342857D02*
X128042857Y-110342857D01*
X128157142Y-110761904D02*
X127776190Y-110761904D01*
X127776190Y-109961904D01*
X128157142Y-109961904D01*
X123307261Y-112161904D02*
X123802500Y-112161904D01*
X123535833Y-112466666D01*
X123650119Y-112466666D01*
X123726309Y-112504761D01*
X123764404Y-112542857D01*
X123802500Y-112619047D01*
X123802500Y-112809523D01*
X123764404Y-112885714D01*
X123726309Y-112923809D01*
X123650119Y-112961904D01*
X123421547Y-112961904D01*
X123345357Y-112923809D01*
X123307261Y-112885714D01*
X124031071Y-112161904D02*
X124297738Y-112961904D01*
X124564404Y-112161904D01*
X124754880Y-112161904D02*
X125250119Y-112161904D01*
X124983452Y-112466666D01*
X125097738Y-112466666D01*
X125173928Y-112504761D01*
X125212023Y-112542857D01*
X125250119Y-112619047D01*
X125250119Y-112809523D01*
X125212023Y-112885714D01*
X125173928Y-112923809D01*
X125097738Y-112961904D01*
X124869166Y-112961904D01*
X124792976Y-112923809D01*
X124754880Y-112885714D01*
X123533333Y-113261904D02*
X123685714Y-113261904D01*
X123761904Y-113300000D01*
X123838095Y-113376190D01*
X123876190Y-113528571D01*
X123876190Y-113795238D01*
X123838095Y-113947619D01*
X123761904Y-114023809D01*
X123685714Y-114061904D01*
X123533333Y-114061904D01*
X123457142Y-114023809D01*
X123380952Y-113947619D01*
X123342857Y-113795238D01*
X123342857Y-113528571D01*
X123380952Y-113376190D01*
X123457142Y-113300000D01*
X123533333Y-113261904D01*
X124219047Y-114061904D02*
X124219047Y-113261904D01*
X124676190Y-114061904D01*
X124676190Y-113261904D01*
X125057142Y-113642857D02*
X125323809Y-113642857D01*
X125438095Y-114061904D02*
X125057142Y-114061904D01*
X125057142Y-113261904D01*
X125438095Y-113261904D01*
X125704761Y-113261904D02*
X125895238Y-114061904D01*
X126047619Y-113490476D01*
X126200000Y-114061904D01*
X126390476Y-113261904D01*
X126695238Y-114061904D02*
X126695238Y-113261904D01*
X127533333Y-114061904D02*
X127266666Y-113680952D01*
X127076190Y-114061904D02*
X127076190Y-113261904D01*
X127380952Y-113261904D01*
X127457142Y-113300000D01*
X127495238Y-113338095D01*
X127533333Y-113414285D01*
X127533333Y-113528571D01*
X127495238Y-113604761D01*
X127457142Y-113642857D01*
X127380952Y-113680952D01*
X127076190Y-113680952D01*
X127876190Y-113642857D02*
X128142857Y-113642857D01*
X128257142Y-114061904D02*
X127876190Y-114061904D01*
X127876190Y-113261904D01*
X128257142Y-113261904D01*
X123790476Y-114400000D02*
X123714285Y-114361904D01*
X123600000Y-114361904D01*
X123485714Y-114400000D01*
X123409523Y-114476190D01*
X123371428Y-114552380D01*
X123333333Y-114704761D01*
X123333333Y-114819047D01*
X123371428Y-114971428D01*
X123409523Y-115047619D01*
X123485714Y-115123809D01*
X123600000Y-115161904D01*
X123676190Y-115161904D01*
X123790476Y-115123809D01*
X123828571Y-115085714D01*
X123828571Y-114819047D01*
X123676190Y-114819047D01*
X124171428Y-115161904D02*
X124171428Y-114361904D01*
X124628571Y-115161904D01*
X124628571Y-114361904D01*
X125009523Y-115161904D02*
X125009523Y-114361904D01*
X125200000Y-114361904D01*
X125314285Y-114400000D01*
X125390476Y-114476190D01*
X125428571Y-114552380D01*
X125466666Y-114704761D01*
X125466666Y-114819047D01*
X125428571Y-114971428D01*
X125390476Y-115047619D01*
X125314285Y-115123809D01*
X125200000Y-115161904D01*
X125009523Y-115161904D01*
D11*
X173625000Y-93125000D02*
X173250000Y-93125000D01*
X173625000Y-92750000D02*
X173625000Y-93125000D01*
X167375000Y-93125000D02*
X167375000Y-92725000D01*
X167775000Y-93125000D02*
X167375000Y-93125000D01*
X173625000Y-86875000D02*
X173125000Y-86875000D01*
X173625000Y-87425000D02*
X173625000Y-86875000D01*
X167075000Y-86975000D02*
X165425000Y-86975000D01*
X167075000Y-87200000D02*
X167075000Y-86975000D01*
X167375000Y-87200000D02*
X167075000Y-87200000D01*
X167725000Y-86875000D02*
X167375000Y-87200000D01*
X167725000Y-86875000D02*
X168025000Y-86875000D01*
D12*
X143835000Y-105976248D02*
X143835000Y-106498752D01*
X142365000Y-105976248D02*
X142365000Y-106498752D01*
D11*
X147500000Y-102350000D02*
X147500000Y-102500000D01*
X147450000Y-102350000D02*
X147500000Y-102350000D01*
X147150000Y-102050000D02*
X147450000Y-102350000D01*
X147150000Y-101700000D02*
X147150000Y-102050000D01*
X147150000Y-100450000D02*
X147400000Y-100450000D01*
X147150000Y-100700000D02*
X147150000Y-100450000D01*
X150450000Y-100450000D02*
X150450000Y-100800000D01*
X150200000Y-100450000D02*
X150450000Y-100450000D01*
X150450000Y-102350000D02*
X150450000Y-102000000D01*
X150200000Y-102350000D02*
X150450000Y-102350000D01*
D12*
X145772936Y-109165000D02*
X146227064Y-109165000D01*
X145772936Y-110635000D02*
X146227064Y-110635000D01*
X151927064Y-110635000D02*
X151472936Y-110635000D01*
X151927064Y-109165000D02*
X151472936Y-109165000D01*
X151927064Y-112835000D02*
X151472936Y-112835000D01*
X151927064Y-111365000D02*
X151472936Y-111365000D01*
X145772936Y-111365000D02*
X146227064Y-111365000D01*
X145772936Y-112835000D02*
X146227064Y-112835000D01*
X142365000Y-102427064D02*
X142365000Y-101972936D01*
X143835000Y-102427064D02*
X143835000Y-101972936D01*
X155135000Y-105976248D02*
X155135000Y-106498752D01*
X153665000Y-105976248D02*
X153665000Y-106498752D01*
X152835000Y-101076248D02*
X152835000Y-101598752D01*
X151365000Y-101076248D02*
X151365000Y-101598752D01*
D11*
X149800000Y-107150000D02*
X149800000Y-107300000D01*
X149750000Y-107150000D02*
X149800000Y-107150000D01*
X149450000Y-106850000D02*
X149750000Y-107150000D01*
X149450000Y-106500000D02*
X149450000Y-106850000D01*
X149450000Y-105250000D02*
X149700000Y-105250000D01*
X149450000Y-105500000D02*
X149450000Y-105250000D01*
X152750000Y-105250000D02*
X152750000Y-105600000D01*
X152500000Y-105250000D02*
X152750000Y-105250000D01*
X152750000Y-107150000D02*
X152750000Y-106800000D01*
X152500000Y-107150000D02*
X152750000Y-107150000D01*
X145100000Y-107150000D02*
X145100000Y-107300000D01*
X145050000Y-107150000D02*
X145100000Y-107150000D01*
X144750000Y-106850000D02*
X145050000Y-107150000D01*
X144750000Y-106500000D02*
X144750000Y-106850000D01*
X144750000Y-105250000D02*
X145000000Y-105250000D01*
X144750000Y-105500000D02*
X144750000Y-105250000D01*
X148050000Y-105250000D02*
X148050000Y-105600000D01*
X147800000Y-105250000D02*
X148050000Y-105250000D01*
X148050000Y-107150000D02*
X148050000Y-106800000D01*
X147800000Y-107150000D02*
X148050000Y-107150000D01*
D12*
X149190000Y-66600000D02*
X149190000Y-67220000D01*
X149190000Y-67220000D02*
X150190000Y-67220000D01*
X167430000Y-66600000D02*
X167430000Y-67220000D01*
X167430000Y-67220000D02*
X166430000Y-67220000D01*
X149190000Y-47780000D02*
X167430000Y-47780000D01*
X167430000Y-47780000D02*
X167430000Y-48200000D01*
X149190000Y-47780000D02*
X149190000Y-48200000D01*
X149190000Y-48200000D02*
X148810000Y-48200000D01*
X136435000Y-54887064D02*
X136435000Y-54432936D01*
X134965000Y-54887064D02*
X134965000Y-54432936D01*
D13*
X139402000Y-69000000D02*
G75*
G03*
X139402000Y-69000000I-100000J0D01*
G01*
D14*
X137330000Y-70475000D02*
X137330000Y-71725000D01*
X139670000Y-70475000D02*
X139670000Y-71725000D01*
D12*
X145761252Y-48935000D02*
X145238748Y-48935000D01*
X145761252Y-47465000D02*
X145238748Y-47465000D01*
X124000000Y-129200000D02*
X124000000Y-117200000D01*
X132500000Y-129200000D02*
X124000000Y-129200000D01*
X132500000Y-117200000D02*
X124000000Y-117200000D01*
X124000000Y-117200000D02*
X124000000Y-129200000D01*
X131000000Y-129200000D02*
X131000000Y-117200000D01*
X139500000Y-129200000D02*
X131000000Y-129200000D01*
X139500000Y-117200000D02*
X131000000Y-117200000D01*
X131000000Y-117200000D02*
X131000000Y-129200000D01*
X138000000Y-129200000D02*
X138000000Y-117200000D01*
X146500000Y-129200000D02*
X138000000Y-129200000D01*
X146500000Y-117200000D02*
X138000000Y-117200000D01*
X138000000Y-117200000D02*
X138000000Y-129200000D01*
X145000000Y-129200000D02*
X145000000Y-117200000D01*
X153500000Y-129200000D02*
X145000000Y-129200000D01*
X153500000Y-117200000D02*
X145000000Y-117200000D01*
X145000000Y-117200000D02*
X145000000Y-129200000D01*
X152000000Y-129200000D02*
X152000000Y-117200000D01*
X160500000Y-129200000D02*
X152000000Y-129200000D01*
X160500000Y-117200000D02*
X152000000Y-117200000D01*
X152000000Y-117200000D02*
X152000000Y-129200000D01*
X159000000Y-129200000D02*
X159000000Y-117200000D01*
X167500000Y-129200000D02*
X167500000Y-117200000D01*
X167500000Y-129200000D02*
X159000000Y-129200000D01*
X167500000Y-117200000D02*
X159000000Y-117200000D01*
X159000000Y-117200000D02*
X159000000Y-129200000D01*
X166000000Y-129200000D02*
X166000000Y-117200000D01*
X127010000Y-65775000D02*
X128540000Y-65775000D01*
X119990000Y-66245000D02*
X129010000Y-66245000D01*
D11*
X120060000Y-66245000D02*
X119990000Y-66245000D01*
D12*
X111010000Y-66245000D02*
X117790000Y-66245000D01*
X111010000Y-79445000D02*
X111010000Y-66245000D01*
D11*
X111020000Y-79445000D02*
X111010000Y-79445000D01*
D12*
X111010000Y-79445000D02*
X117790000Y-79445000D01*
D11*
X111130000Y-79445000D02*
X111010000Y-79445000D01*
D12*
X129010000Y-79445000D02*
X119990000Y-79445000D01*
X129010000Y-66245000D02*
X129010000Y-79445000D01*
X145935000Y-89572936D02*
X145935000Y-90027064D01*
X144465000Y-89572936D02*
X144465000Y-90027064D01*
X193740000Y-58285000D02*
X183540000Y-58285000D01*
X193740000Y-68285000D02*
X183540000Y-68285000D01*
X183540000Y-58285000D02*
X183540000Y-68285000D01*
X193740000Y-58285000D02*
X193740000Y-68285000D01*
X193740000Y-48125000D02*
X183540000Y-48125000D01*
X193740000Y-58125000D02*
X183540000Y-58125000D01*
X183540000Y-48125000D02*
X183540000Y-58125000D01*
X193740000Y-48125000D02*
X193740000Y-58125000D01*
X145798752Y-52365000D02*
X145276248Y-52365000D01*
X145798752Y-53835000D02*
X145276248Y-53835000D01*
X176865000Y-53427064D02*
X176865000Y-52972936D01*
X178335000Y-53427064D02*
X178335000Y-52972936D01*
X179872936Y-67665000D02*
X180327064Y-67665000D01*
X179872936Y-69135000D02*
X180327064Y-69135000D01*
X176865000Y-57327064D02*
X176865000Y-56872936D01*
X178335000Y-57327064D02*
X178335000Y-56872936D01*
X180327064Y-67135000D02*
X179872936Y-67135000D01*
X180327064Y-65665000D02*
X179872936Y-65665000D01*
X180172936Y-49865000D02*
X180627064Y-49865000D01*
X180172936Y-51335000D02*
X180627064Y-51335000D01*
X179640000Y-55620000D02*
X181100000Y-55620000D01*
X179640000Y-58780000D02*
X181800000Y-58780000D01*
X179640000Y-58780000D02*
X179640000Y-57850000D01*
X179640000Y-55620000D02*
X179640000Y-56550000D01*
X178820000Y-54260000D02*
X178820000Y-52800000D01*
X181980000Y-54260000D02*
X181980000Y-52100000D01*
X181980000Y-54260000D02*
X181050000Y-54260000D01*
X178820000Y-54260000D02*
X179750000Y-54260000D01*
X178120000Y-82760000D02*
X179050000Y-82760000D01*
X181280000Y-82760000D02*
X180350000Y-82760000D01*
X181280000Y-82760000D02*
X181280000Y-80600000D01*
X178120000Y-82760000D02*
X178120000Y-81300000D01*
D11*
X154225000Y-86875000D02*
X154525000Y-86875000D01*
X154225000Y-86875000D02*
X153875000Y-87200000D01*
X153875000Y-87200000D02*
X153575000Y-87200000D01*
X153575000Y-87200000D02*
X153575000Y-86975000D01*
X153575000Y-86975000D02*
X151925000Y-86975000D01*
X160125000Y-87425000D02*
X160125000Y-86875000D01*
X160125000Y-86875000D02*
X159625000Y-86875000D01*
X154275000Y-93125000D02*
X153875000Y-93125000D01*
X153875000Y-93125000D02*
X153875000Y-92725000D01*
X160125000Y-92750000D02*
X160125000Y-93125000D01*
X160125000Y-93125000D02*
X159750000Y-93125000D01*
D12*
X127010000Y-49265000D02*
X128540000Y-49265000D01*
X119990000Y-49735000D02*
X129010000Y-49735000D01*
D11*
X120060000Y-49735000D02*
X119990000Y-49735000D01*
D12*
X111010000Y-49735000D02*
X117790000Y-49735000D01*
X111010000Y-62935000D02*
X111010000Y-49735000D01*
D11*
X111020000Y-62935000D02*
X111010000Y-62935000D01*
D12*
X111010000Y-62935000D02*
X117790000Y-62935000D01*
D11*
X111130000Y-62935000D02*
X111010000Y-62935000D01*
D12*
X129010000Y-62935000D02*
X119990000Y-62935000D01*
X129010000Y-49735000D02*
X129010000Y-62935000D01*
X143860000Y-87900000D02*
X143860000Y-85950000D01*
X143860000Y-87900000D02*
X143860000Y-89850000D01*
X133740000Y-87900000D02*
X133740000Y-85950000D01*
X133740000Y-87900000D02*
X133740000Y-91350000D01*
X135015000Y-78900000D02*
X135015000Y-81100000D01*
X135015000Y-78900000D02*
X135015000Y-76700000D01*
X141785000Y-78900000D02*
X141785000Y-81100000D01*
X141785000Y-78900000D02*
X141785000Y-75300000D01*
X162080000Y-73540000D02*
X161150000Y-73540000D01*
X158920000Y-73540000D02*
X159850000Y-73540000D01*
X158920000Y-73540000D02*
X158920000Y-75700000D01*
X162080000Y-73540000D02*
X162080000Y-75000000D01*
X157880000Y-73640000D02*
X156950000Y-73640000D01*
X154720000Y-73640000D02*
X155650000Y-73640000D01*
X154720000Y-73640000D02*
X154720000Y-75800000D01*
X157880000Y-73640000D02*
X157880000Y-75100000D01*
X178120000Y-76460000D02*
X179050000Y-76460000D01*
X181280000Y-76460000D02*
X180350000Y-76460000D01*
X181280000Y-76460000D02*
X181280000Y-74300000D01*
X178120000Y-76460000D02*
X178120000Y-75000000D01*
X148110000Y-81370000D02*
X148110000Y-84030000D01*
X158330000Y-81370000D02*
X148110000Y-81370000D01*
X158330000Y-84030000D02*
X148110000Y-84030000D01*
X158330000Y-81370000D02*
X158330000Y-84030000D01*
X159600000Y-81370000D02*
X160930000Y-81370000D01*
X160930000Y-81370000D02*
X160930000Y-82700000D01*
X188560000Y-96300000D02*
X188560000Y-92440000D01*
X188560000Y-92440000D02*
X188305000Y-92440000D01*
X188560000Y-96300000D02*
X188560000Y-100160000D01*
X188560000Y-100160000D02*
X188305000Y-100160000D01*
X178040000Y-96300000D02*
X178040000Y-92440000D01*
X178040000Y-92440000D02*
X178295000Y-92440000D01*
X178040000Y-96300000D02*
X178040000Y-100160000D01*
X178040000Y-100160000D02*
X178295000Y-100160000D01*
X178295000Y-100160000D02*
X178295000Y-101975000D01*
X186010000Y-72700000D02*
X186010000Y-70900000D01*
X182790000Y-70900000D02*
X182790000Y-73350000D01*
X193945000Y-69040000D02*
X187345000Y-69040000D01*
X187345000Y-69040000D02*
X187345000Y-81740000D01*
X187345000Y-81740000D02*
X193945000Y-81740000D01*
X193945000Y-81740000D02*
X193945000Y-69040000D01*
X156365000Y-78727064D02*
X156365000Y-78272936D01*
X157835000Y-78727064D02*
X157835000Y-78272936D01*
X158865000Y-78727064D02*
X158865000Y-78272936D01*
X160335000Y-78727064D02*
X160335000Y-78272936D01*
X131565000Y-82427064D02*
X131565000Y-81972936D01*
X133035000Y-82427064D02*
X133035000Y-81972936D01*
X148035000Y-89572936D02*
X148035000Y-90027064D01*
X146565000Y-89572936D02*
X146565000Y-90027064D01*
X139665000Y-49627064D02*
X139665000Y-49172936D01*
X141135000Y-49627064D02*
X141135000Y-49172936D01*
X133035000Y-89772936D02*
X133035000Y-90227064D01*
X131565000Y-89772936D02*
X131565000Y-90227064D01*
X140727064Y-65035000D02*
X140272936Y-65035000D01*
X140727064Y-63565000D02*
X140272936Y-63565000D01*
X133035000Y-78072936D02*
X133035000Y-78527064D01*
X131565000Y-78072936D02*
X131565000Y-78527064D01*
X140272936Y-55465000D02*
X140727064Y-55465000D01*
X140272936Y-56935000D02*
X140727064Y-56935000D01*
X140272936Y-57465000D02*
X140727064Y-57465000D01*
X140272936Y-58935000D02*
X140727064Y-58935000D01*
X140272936Y-59465000D02*
X140727064Y-59465000D01*
X140272936Y-60935000D02*
X140727064Y-60935000D01*
X140272936Y-61565000D02*
X140727064Y-61565000D01*
X140272936Y-63035000D02*
X140727064Y-63035000D01*
X177335000Y-71572936D02*
X177335000Y-72027064D01*
X175865000Y-71572936D02*
X175865000Y-72027064D01*
X178165000Y-72027064D02*
X178165000Y-71572936D01*
X179635000Y-72027064D02*
X179635000Y-71572936D01*
X134535000Y-70892936D02*
X134535000Y-71347064D01*
X133065000Y-70892936D02*
X133065000Y-71347064D01*
X179427064Y-87835000D02*
X178972936Y-87835000D01*
X179427064Y-86365000D02*
X178972936Y-86365000D01*
X179427064Y-85735000D02*
X178972936Y-85735000D01*
X179427064Y-84265000D02*
X178972936Y-84265000D01*
X132960000Y-49397936D02*
X132960000Y-49852064D01*
X131490000Y-49397936D02*
X131490000Y-49852064D01*
X136805000Y-70892936D02*
X136805000Y-71347064D01*
X135335000Y-70892936D02*
X135335000Y-71347064D01*
X179472936Y-77865000D02*
X179927064Y-77865000D01*
X179472936Y-79335000D02*
X179927064Y-79335000D01*
X152735000Y-78272936D02*
X152735000Y-78727064D01*
X151265000Y-78272936D02*
X151265000Y-78727064D01*
X132695000Y-54887064D02*
X132695000Y-54432936D01*
X134165000Y-54887064D02*
X134165000Y-54432936D01*
X155235000Y-78272936D02*
X155235000Y-78727064D01*
X153765000Y-78272936D02*
X153765000Y-78727064D01*
X122380000Y-129255000D02*
X110380000Y-129255000D01*
X122380000Y-83755000D02*
X110380000Y-83755000D01*
X110380000Y-90755000D02*
X122380000Y-90755000D01*
X110380000Y-82255000D02*
X110380000Y-90755000D01*
X122380000Y-82255000D02*
X122380000Y-90755000D01*
X122380000Y-82255000D02*
X110380000Y-82255000D01*
X122380000Y-90755000D02*
X110380000Y-90755000D01*
X110380000Y-97755000D02*
X122380000Y-97755000D01*
X110380000Y-89255000D02*
X110380000Y-97755000D01*
X122380000Y-89255000D02*
X122380000Y-97755000D01*
X122380000Y-97755000D02*
X110380000Y-97755000D01*
X110380000Y-104755000D02*
X122380000Y-104755000D01*
X110380000Y-96255000D02*
X110380000Y-104755000D01*
X122380000Y-96255000D02*
X122380000Y-104755000D01*
X122380000Y-104755000D02*
X110380000Y-104755000D01*
X110380000Y-111755000D02*
X122380000Y-111755000D01*
X110380000Y-103255000D02*
X110380000Y-111755000D01*
X122380000Y-103255000D02*
X122380000Y-111755000D01*
X122380000Y-111755000D02*
X110380000Y-111755000D01*
X110380000Y-118755000D02*
X122380000Y-118755000D01*
X110380000Y-110255000D02*
X110380000Y-118755000D01*
X122380000Y-110255000D02*
X122380000Y-118755000D01*
X122380000Y-118755000D02*
X110380000Y-118755000D01*
X110380000Y-125755000D02*
X122380000Y-125755000D01*
X110380000Y-117255000D02*
X110380000Y-125755000D01*
X122380000Y-117255000D02*
X122380000Y-125755000D01*
X122380000Y-125755000D02*
X110380000Y-125755000D01*
X110380000Y-124255000D02*
X110380000Y-129255000D01*
X122380000Y-124255000D02*
X122380000Y-129255000D01*
X132300000Y-68350000D02*
X130300000Y-68350000D01*
X130300000Y-68350000D02*
X130300000Y-72250000D01*
X132300000Y-68350000D02*
X132300000Y-72250000D01*
X129890000Y-56640000D02*
X131890000Y-56640000D01*
X131890000Y-56640000D02*
X131890000Y-52740000D01*
X129890000Y-56640000D02*
X129890000Y-52740000D01*
X133035000Y-85838748D02*
X133035000Y-86361252D01*
X131565000Y-85838748D02*
X131565000Y-86361252D01*
X141765000Y-49661252D02*
X141765000Y-49138748D01*
X143235000Y-49661252D02*
X143235000Y-49138748D01*
X182938748Y-87665000D02*
X183461252Y-87665000D01*
X182938748Y-89135000D02*
X183461252Y-89135000D01*
X145761252Y-51035000D02*
X145238748Y-51035000D01*
X145761252Y-49565000D02*
X145238748Y-49565000D01*
X143835000Y-81161252D02*
X143835000Y-80638748D01*
X142365000Y-81161252D02*
X142365000Y-80638748D01*
X133649000Y-49848752D02*
X133649000Y-49326248D01*
X135119000Y-49848752D02*
X135119000Y-49326248D01*
X132923752Y-67935000D02*
X132401248Y-67935000D01*
X132923752Y-66465000D02*
X132401248Y-66465000D01*
X181835000Y-71538748D02*
X181835000Y-72061252D01*
X180365000Y-71538748D02*
X180365000Y-72061252D01*
X184723752Y-77035000D02*
X184201248Y-77035000D01*
X184723752Y-75565000D02*
X184201248Y-75565000D01*
X140265000Y-71361252D02*
X140265000Y-70838748D01*
X141735000Y-71361252D02*
X141735000Y-70838748D01*
X132523752Y-58835000D02*
X132001248Y-58835000D01*
X132523752Y-57365000D02*
X132001248Y-57365000D01*
D10*
X177704761Y-90861904D02*
X177752380Y-90719047D01*
X177752380Y-90480952D01*
X177704761Y-90385714D01*
X177657142Y-90338095D01*
X177561904Y-90290476D01*
X177466666Y-90290476D01*
X177371428Y-90338095D01*
X177323809Y-90385714D01*
X177276190Y-90480952D01*
X177228571Y-90671428D01*
X177180952Y-90766666D01*
X177133333Y-90814285D01*
X177038095Y-90861904D01*
X176942857Y-90861904D01*
X176847619Y-90814285D01*
X176800000Y-90766666D01*
X176752380Y-90671428D01*
X176752380Y-90433333D01*
X176800000Y-90290476D01*
X176847619Y-89909523D02*
X176800000Y-89861904D01*
X176752380Y-89766666D01*
X176752380Y-89528571D01*
X176800000Y-89433333D01*
X176847619Y-89385714D01*
X176942857Y-89338095D01*
X177038095Y-89338095D01*
X177180952Y-89385714D01*
X177752380Y-89957142D01*
X177752380Y-89338095D01*
X141657142Y-107742857D02*
X141704761Y-107790476D01*
X141752380Y-107933333D01*
X141752380Y-108028571D01*
X141704761Y-108171428D01*
X141609523Y-108266666D01*
X141514285Y-108314285D01*
X141323809Y-108361904D01*
X141180952Y-108361904D01*
X140990476Y-108314285D01*
X140895238Y-108266666D01*
X140800000Y-108171428D01*
X140752380Y-108028571D01*
X140752380Y-107933333D01*
X140800000Y-107790476D01*
X140847619Y-107742857D01*
X141752380Y-106790476D02*
X141752380Y-107361904D01*
X141752380Y-107076190D02*
X140752380Y-107076190D01*
X140895238Y-107171428D01*
X140990476Y-107266666D01*
X141038095Y-107361904D01*
X140752380Y-105933333D02*
X140752380Y-106123809D01*
X140800000Y-106219047D01*
X140847619Y-106266666D01*
X140990476Y-106361904D01*
X141180952Y-106409523D01*
X141561904Y-106409523D01*
X141657142Y-106361904D01*
X141704761Y-106314285D01*
X141752380Y-106219047D01*
X141752380Y-106028571D01*
X141704761Y-105933333D01*
X141657142Y-105885714D01*
X141561904Y-105838095D01*
X141323809Y-105838095D01*
X141228571Y-105885714D01*
X141180952Y-105933333D01*
X141133333Y-106028571D01*
X141133333Y-106219047D01*
X141180952Y-106314285D01*
X141228571Y-106361904D01*
X141323809Y-106409523D01*
X145852380Y-100761904D02*
X146661904Y-100761904D01*
X146757142Y-100714285D01*
X146804761Y-100666666D01*
X146852380Y-100571428D01*
X146852380Y-100380952D01*
X146804761Y-100285714D01*
X146757142Y-100238095D01*
X146661904Y-100190476D01*
X145852380Y-100190476D01*
X146185714Y-99285714D02*
X146852380Y-99285714D01*
X145804761Y-99523809D02*
X146519047Y-99761904D01*
X146519047Y-99142857D01*
X142257142Y-110352380D02*
X141923809Y-109876190D01*
X141685714Y-110352380D02*
X141685714Y-109352380D01*
X142066666Y-109352380D01*
X142161904Y-109400000D01*
X142209523Y-109447619D01*
X142257142Y-109542857D01*
X142257142Y-109685714D01*
X142209523Y-109780952D01*
X142161904Y-109828571D01*
X142066666Y-109876190D01*
X141685714Y-109876190D01*
X142638095Y-109447619D02*
X142685714Y-109400000D01*
X142780952Y-109352380D01*
X143019047Y-109352380D01*
X143114285Y-109400000D01*
X143161904Y-109447619D01*
X143209523Y-109542857D01*
X143209523Y-109638095D01*
X143161904Y-109780952D01*
X142590476Y-110352380D01*
X143209523Y-110352380D01*
X144114285Y-109352380D02*
X143638095Y-109352380D01*
X143590476Y-109828571D01*
X143638095Y-109780952D01*
X143733333Y-109733333D01*
X143971428Y-109733333D01*
X144066666Y-109780952D01*
X144114285Y-109828571D01*
X144161904Y-109923809D01*
X144161904Y-110161904D01*
X144114285Y-110257142D01*
X144066666Y-110304761D01*
X143971428Y-110352380D01*
X143733333Y-110352380D01*
X143638095Y-110304761D01*
X143590476Y-110257142D01*
X154257142Y-110352380D02*
X153923809Y-109876190D01*
X153685714Y-110352380D02*
X153685714Y-109352380D01*
X154066666Y-109352380D01*
X154161904Y-109400000D01*
X154209523Y-109447619D01*
X154257142Y-109542857D01*
X154257142Y-109685714D01*
X154209523Y-109780952D01*
X154161904Y-109828571D01*
X154066666Y-109876190D01*
X153685714Y-109876190D01*
X154638095Y-109447619D02*
X154685714Y-109400000D01*
X154780952Y-109352380D01*
X155019047Y-109352380D01*
X155114285Y-109400000D01*
X155161904Y-109447619D01*
X155209523Y-109542857D01*
X155209523Y-109638095D01*
X155161904Y-109780952D01*
X154590476Y-110352380D01*
X155209523Y-110352380D01*
X155542857Y-109352380D02*
X156161904Y-109352380D01*
X155828571Y-109733333D01*
X155971428Y-109733333D01*
X156066666Y-109780952D01*
X156114285Y-109828571D01*
X156161904Y-109923809D01*
X156161904Y-110161904D01*
X156114285Y-110257142D01*
X156066666Y-110304761D01*
X155971428Y-110352380D01*
X155685714Y-110352380D01*
X155590476Y-110304761D01*
X155542857Y-110257142D01*
X151057142Y-114202380D02*
X150723809Y-113726190D01*
X150485714Y-114202380D02*
X150485714Y-113202380D01*
X150866666Y-113202380D01*
X150961904Y-113250000D01*
X151009523Y-113297619D01*
X151057142Y-113392857D01*
X151057142Y-113535714D01*
X151009523Y-113630952D01*
X150961904Y-113678571D01*
X150866666Y-113726190D01*
X150485714Y-113726190D01*
X151438095Y-113297619D02*
X151485714Y-113250000D01*
X151580952Y-113202380D01*
X151819047Y-113202380D01*
X151914285Y-113250000D01*
X151961904Y-113297619D01*
X152009523Y-113392857D01*
X152009523Y-113488095D01*
X151961904Y-113630952D01*
X151390476Y-114202380D01*
X152009523Y-114202380D01*
X152628571Y-113202380D02*
X152723809Y-113202380D01*
X152819047Y-113250000D01*
X152866666Y-113297619D01*
X152914285Y-113392857D01*
X152961904Y-113583333D01*
X152961904Y-113821428D01*
X152914285Y-114011904D01*
X152866666Y-114107142D01*
X152819047Y-114154761D01*
X152723809Y-114202380D01*
X152628571Y-114202380D01*
X152533333Y-114154761D01*
X152485714Y-114107142D01*
X152438095Y-114011904D01*
X152390476Y-113821428D01*
X152390476Y-113583333D01*
X152438095Y-113392857D01*
X152485714Y-113297619D01*
X152533333Y-113250000D01*
X152628571Y-113202380D01*
X145257142Y-114252380D02*
X144923809Y-113776190D01*
X144685714Y-114252380D02*
X144685714Y-113252380D01*
X145066666Y-113252380D01*
X145161904Y-113300000D01*
X145209523Y-113347619D01*
X145257142Y-113442857D01*
X145257142Y-113585714D01*
X145209523Y-113680952D01*
X145161904Y-113728571D01*
X145066666Y-113776190D01*
X144685714Y-113776190D01*
X146209523Y-114252380D02*
X145638095Y-114252380D01*
X145923809Y-114252380D02*
X145923809Y-113252380D01*
X145828571Y-113395238D01*
X145733333Y-113490476D01*
X145638095Y-113538095D01*
X146780952Y-113680952D02*
X146685714Y-113633333D01*
X146638095Y-113585714D01*
X146590476Y-113490476D01*
X146590476Y-113442857D01*
X146638095Y-113347619D01*
X146685714Y-113300000D01*
X146780952Y-113252380D01*
X146971428Y-113252380D01*
X147066666Y-113300000D01*
X147114285Y-113347619D01*
X147161904Y-113442857D01*
X147161904Y-113490476D01*
X147114285Y-113585714D01*
X147066666Y-113633333D01*
X146971428Y-113680952D01*
X146780952Y-113680952D01*
X146685714Y-113728571D01*
X146638095Y-113776190D01*
X146590476Y-113871428D01*
X146590476Y-114061904D01*
X146638095Y-114157142D01*
X146685714Y-114204761D01*
X146780952Y-114252380D01*
X146971428Y-114252380D01*
X147066666Y-114204761D01*
X147114285Y-114157142D01*
X147161904Y-114061904D01*
X147161904Y-113871428D01*
X147114285Y-113776190D01*
X147066666Y-113728571D01*
X146971428Y-113680952D01*
X141902380Y-102842857D02*
X141426190Y-103176190D01*
X141902380Y-103414285D02*
X140902380Y-103414285D01*
X140902380Y-103033333D01*
X140950000Y-102938095D01*
X140997619Y-102890476D01*
X141092857Y-102842857D01*
X141235714Y-102842857D01*
X141330952Y-102890476D01*
X141378571Y-102938095D01*
X141426190Y-103033333D01*
X141426190Y-103414285D01*
X141902380Y-101890476D02*
X141902380Y-102461904D01*
X141902380Y-102176190D02*
X140902380Y-102176190D01*
X141045238Y-102271428D01*
X141140476Y-102366666D01*
X141188095Y-102461904D01*
X140902380Y-101271428D02*
X140902380Y-101176190D01*
X140950000Y-101080952D01*
X140997619Y-101033333D01*
X141092857Y-100985714D01*
X141283333Y-100938095D01*
X141521428Y-100938095D01*
X141711904Y-100985714D01*
X141807142Y-101033333D01*
X141854761Y-101080952D01*
X141902380Y-101176190D01*
X141902380Y-101271428D01*
X141854761Y-101366666D01*
X141807142Y-101414285D01*
X141711904Y-101461904D01*
X141521428Y-101509523D01*
X141283333Y-101509523D01*
X141092857Y-101461904D01*
X140997619Y-101414285D01*
X140950000Y-101366666D01*
X140902380Y-101271428D01*
X156437142Y-106666666D02*
X156484761Y-106714285D01*
X156532380Y-106857142D01*
X156532380Y-106952380D01*
X156484761Y-107095238D01*
X156389523Y-107190476D01*
X156294285Y-107238095D01*
X156103809Y-107285714D01*
X155960952Y-107285714D01*
X155770476Y-107238095D01*
X155675238Y-107190476D01*
X155580000Y-107095238D01*
X155532380Y-106952380D01*
X155532380Y-106857142D01*
X155580000Y-106714285D01*
X155627619Y-106666666D01*
X156532380Y-106190476D02*
X156532380Y-106000000D01*
X156484761Y-105904761D01*
X156437142Y-105857142D01*
X156294285Y-105761904D01*
X156103809Y-105714285D01*
X155722857Y-105714285D01*
X155627619Y-105761904D01*
X155580000Y-105809523D01*
X155532380Y-105904761D01*
X155532380Y-106095238D01*
X155580000Y-106190476D01*
X155627619Y-106238095D01*
X155722857Y-106285714D01*
X155960952Y-106285714D01*
X156056190Y-106238095D01*
X156103809Y-106190476D01*
X156151428Y-106095238D01*
X156151428Y-105904761D01*
X156103809Y-105809523D01*
X156056190Y-105761904D01*
X155960952Y-105714285D01*
X154137142Y-101504166D02*
X154184761Y-101551785D01*
X154232380Y-101694642D01*
X154232380Y-101789880D01*
X154184761Y-101932738D01*
X154089523Y-102027976D01*
X153994285Y-102075595D01*
X153803809Y-102123214D01*
X153660952Y-102123214D01*
X153470476Y-102075595D01*
X153375238Y-102027976D01*
X153280000Y-101932738D01*
X153232380Y-101789880D01*
X153232380Y-101694642D01*
X153280000Y-101551785D01*
X153327619Y-101504166D01*
X153232380Y-101170833D02*
X153232380Y-100504166D01*
X154232380Y-100932738D01*
X152852380Y-104461904D02*
X153661904Y-104461904D01*
X153757142Y-104414285D01*
X153804761Y-104366666D01*
X153852380Y-104271428D01*
X153852380Y-104080952D01*
X153804761Y-103985714D01*
X153757142Y-103938095D01*
X153661904Y-103890476D01*
X152852380Y-103890476D01*
X153852380Y-103366666D02*
X153852380Y-103176190D01*
X153804761Y-103080952D01*
X153757142Y-103033333D01*
X153614285Y-102938095D01*
X153423809Y-102890476D01*
X153042857Y-102890476D01*
X152947619Y-102938095D01*
X152900000Y-102985714D01*
X152852380Y-103080952D01*
X152852380Y-103271428D01*
X152900000Y-103366666D01*
X152947619Y-103414285D01*
X153042857Y-103461904D01*
X153280952Y-103461904D01*
X153376190Y-103414285D01*
X153423809Y-103366666D01*
X153471428Y-103271428D01*
X153471428Y-103080952D01*
X153423809Y-102985714D01*
X153376190Y-102938095D01*
X153280952Y-102890476D01*
X148252380Y-105361904D02*
X149061904Y-105361904D01*
X149157142Y-105314285D01*
X149204761Y-105266666D01*
X149252380Y-105171428D01*
X149252380Y-104980952D01*
X149204761Y-104885714D01*
X149157142Y-104838095D01*
X149061904Y-104790476D01*
X148252380Y-104790476D01*
X148252380Y-103838095D02*
X148252380Y-104314285D01*
X148728571Y-104361904D01*
X148680952Y-104314285D01*
X148633333Y-104219047D01*
X148633333Y-103980952D01*
X148680952Y-103885714D01*
X148728571Y-103838095D01*
X148823809Y-103790476D01*
X149061904Y-103790476D01*
X149157142Y-103838095D01*
X149204761Y-103885714D01*
X149252380Y-103980952D01*
X149252380Y-104219047D01*
X149204761Y-104314285D01*
X149157142Y-104361904D01*
X149968095Y-46452380D02*
X149968095Y-47261904D01*
X150015714Y-47357142D01*
X150063333Y-47404761D01*
X150158571Y-47452380D01*
X150349047Y-47452380D01*
X150444285Y-47404761D01*
X150491904Y-47357142D01*
X150539523Y-47261904D01*
X150539523Y-46452380D01*
X151158571Y-46880952D02*
X151063333Y-46833333D01*
X151015714Y-46785714D01*
X150968095Y-46690476D01*
X150968095Y-46642857D01*
X151015714Y-46547619D01*
X151063333Y-46500000D01*
X151158571Y-46452380D01*
X151349047Y-46452380D01*
X151444285Y-46500000D01*
X151491904Y-46547619D01*
X151539523Y-46642857D01*
X151539523Y-46690476D01*
X151491904Y-46785714D01*
X151444285Y-46833333D01*
X151349047Y-46880952D01*
X151158571Y-46880952D01*
X151063333Y-46928571D01*
X151015714Y-46976190D01*
X150968095Y-47071428D01*
X150968095Y-47261904D01*
X151015714Y-47357142D01*
X151063333Y-47404761D01*
X151158571Y-47452380D01*
X151349047Y-47452380D01*
X151444285Y-47404761D01*
X151491904Y-47357142D01*
X151539523Y-47261904D01*
X151539523Y-47071428D01*
X151491904Y-46976190D01*
X151444285Y-46928571D01*
X151349047Y-46880952D01*
X137752380Y-54266666D02*
X137276190Y-54600000D01*
X137752380Y-54838095D02*
X136752380Y-54838095D01*
X136752380Y-54457142D01*
X136800000Y-54361904D01*
X136847619Y-54314285D01*
X136942857Y-54266666D01*
X137085714Y-54266666D01*
X137180952Y-54314285D01*
X137228571Y-54361904D01*
X137276190Y-54457142D01*
X137276190Y-54838095D01*
X137752380Y-53314285D02*
X137752380Y-53885714D01*
X137752380Y-53600000D02*
X136752380Y-53600000D01*
X136895238Y-53695238D01*
X136990476Y-53790476D01*
X137038095Y-53885714D01*
X139661904Y-69109523D02*
X140309523Y-69109523D01*
X140385714Y-69071428D01*
X140423809Y-69033333D01*
X140461904Y-68957142D01*
X140461904Y-68804761D01*
X140423809Y-68728571D01*
X140385714Y-68690476D01*
X140309523Y-68652380D01*
X139661904Y-68652380D01*
X140461904Y-67852380D02*
X140461904Y-68309523D01*
X140461904Y-68080952D02*
X139661904Y-68080952D01*
X139776190Y-68157142D01*
X139852380Y-68233333D01*
X139890476Y-68309523D01*
X144857142Y-47057142D02*
X144809523Y-47104761D01*
X144666666Y-47152380D01*
X144571428Y-47152380D01*
X144428571Y-47104761D01*
X144333333Y-47009523D01*
X144285714Y-46914285D01*
X144238095Y-46723809D01*
X144238095Y-46580952D01*
X144285714Y-46390476D01*
X144333333Y-46295238D01*
X144428571Y-46200000D01*
X144571428Y-46152380D01*
X144666666Y-46152380D01*
X144809523Y-46200000D01*
X144857142Y-46247619D01*
X145809523Y-47152380D02*
X145238095Y-47152380D01*
X145523809Y-47152380D02*
X145523809Y-46152380D01*
X145428571Y-46295238D01*
X145333333Y-46390476D01*
X145238095Y-46438095D01*
X146761904Y-47152380D02*
X146190476Y-47152380D01*
X146476190Y-47152380D02*
X146476190Y-46152380D01*
X146380952Y-46295238D01*
X146285714Y-46390476D01*
X146190476Y-46438095D01*
X165833333Y-115961904D02*
X165833333Y-116533333D01*
X165795238Y-116647619D01*
X165719047Y-116723809D01*
X165604761Y-116761904D01*
X165528571Y-116761904D01*
X166138095Y-115961904D02*
X166633333Y-115961904D01*
X166366666Y-116266666D01*
X166480952Y-116266666D01*
X166557142Y-116304761D01*
X166595238Y-116342857D01*
X166633333Y-116419047D01*
X166633333Y-116609523D01*
X166595238Y-116685714D01*
X166557142Y-116723809D01*
X166480952Y-116761904D01*
X166252380Y-116761904D01*
X166176190Y-116723809D01*
X166138095Y-116685714D01*
X129392380Y-68338333D02*
X130106666Y-68338333D01*
X130249523Y-68385952D01*
X130344761Y-68481190D01*
X130392380Y-68624047D01*
X130392380Y-68719285D01*
X129392380Y-67385952D02*
X129392380Y-67862142D01*
X129868571Y-67909761D01*
X129820952Y-67862142D01*
X129773333Y-67766904D01*
X129773333Y-67528809D01*
X129820952Y-67433571D01*
X129868571Y-67385952D01*
X129963809Y-67338333D01*
X130201904Y-67338333D01*
X130297142Y-67385952D01*
X130344761Y-67433571D01*
X130392380Y-67528809D01*
X130392380Y-67766904D01*
X130344761Y-67862142D01*
X130297142Y-67909761D01*
X145652380Y-93642857D02*
X145176190Y-93976190D01*
X145652380Y-94214285D02*
X144652380Y-94214285D01*
X144652380Y-93833333D01*
X144700000Y-93738095D01*
X144747619Y-93690476D01*
X144842857Y-93642857D01*
X144985714Y-93642857D01*
X145080952Y-93690476D01*
X145128571Y-93738095D01*
X145176190Y-93833333D01*
X145176190Y-94214285D01*
X144652380Y-93309523D02*
X144652380Y-92690476D01*
X145033333Y-93023809D01*
X145033333Y-92880952D01*
X145080952Y-92785714D01*
X145128571Y-92738095D01*
X145223809Y-92690476D01*
X145461904Y-92690476D01*
X145557142Y-92738095D01*
X145604761Y-92785714D01*
X145652380Y-92880952D01*
X145652380Y-93166666D01*
X145604761Y-93261904D01*
X145557142Y-93309523D01*
X144747619Y-92309523D02*
X144700000Y-92261904D01*
X144652380Y-92166666D01*
X144652380Y-91928571D01*
X144700000Y-91833333D01*
X144747619Y-91785714D01*
X144842857Y-91738095D01*
X144938095Y-91738095D01*
X145080952Y-91785714D01*
X145652380Y-92357142D01*
X145652380Y-91738095D01*
X180692380Y-61118333D02*
X181406666Y-61118333D01*
X181549523Y-61165952D01*
X181644761Y-61261190D01*
X181692380Y-61404047D01*
X181692380Y-61499285D01*
X180692380Y-60737380D02*
X180692380Y-60070714D01*
X181692380Y-60499285D01*
X180692380Y-50958333D02*
X181406666Y-50958333D01*
X181549523Y-51005952D01*
X181644761Y-51101190D01*
X181692380Y-51244047D01*
X181692380Y-51339285D01*
X180692380Y-50053571D02*
X180692380Y-50244047D01*
X180740000Y-50339285D01*
X180787619Y-50386904D01*
X180930476Y-50482142D01*
X181120952Y-50529761D01*
X181501904Y-50529761D01*
X181597142Y-50482142D01*
X181644761Y-50434523D01*
X181692380Y-50339285D01*
X181692380Y-50148809D01*
X181644761Y-50053571D01*
X181597142Y-50005952D01*
X181501904Y-49958333D01*
X181263809Y-49958333D01*
X181168571Y-50005952D01*
X181120952Y-50053571D01*
X181073333Y-50148809D01*
X181073333Y-50339285D01*
X181120952Y-50434523D01*
X181168571Y-50482142D01*
X181263809Y-50529761D01*
X172538095Y-63052380D02*
X172538095Y-62052380D01*
X172538095Y-62528571D02*
X173109523Y-62528571D01*
X173109523Y-63052380D02*
X173109523Y-62052380D01*
X174014285Y-62385714D02*
X174014285Y-63052380D01*
X173776190Y-62004761D02*
X173538095Y-62719047D01*
X174157142Y-62719047D01*
X134238095Y-110102380D02*
X134238095Y-109102380D01*
X134238095Y-109578571D02*
X134809523Y-109578571D01*
X134809523Y-110102380D02*
X134809523Y-109102380D01*
X135190476Y-109102380D02*
X135809523Y-109102380D01*
X135476190Y-109483333D01*
X135619047Y-109483333D01*
X135714285Y-109530952D01*
X135761904Y-109578571D01*
X135809523Y-109673809D01*
X135809523Y-109911904D01*
X135761904Y-110007142D01*
X135714285Y-110054761D01*
X135619047Y-110102380D01*
X135333333Y-110102380D01*
X135238095Y-110054761D01*
X135190476Y-110007142D01*
X176538095Y-110102380D02*
X176538095Y-109102380D01*
X176538095Y-109578571D02*
X177109523Y-109578571D01*
X177109523Y-110102380D02*
X177109523Y-109102380D01*
X177538095Y-109197619D02*
X177585714Y-109150000D01*
X177680952Y-109102380D01*
X177919047Y-109102380D01*
X178014285Y-109150000D01*
X178061904Y-109197619D01*
X178109523Y-109292857D01*
X178109523Y-109388095D01*
X178061904Y-109530952D01*
X177490476Y-110102380D01*
X178109523Y-110102380D01*
X130338095Y-62852380D02*
X130338095Y-61852380D01*
X130338095Y-62328571D02*
X130909523Y-62328571D01*
X130909523Y-62852380D02*
X130909523Y-61852380D01*
X131909523Y-62852380D02*
X131338095Y-62852380D01*
X131623809Y-62852380D02*
X131623809Y-61852380D01*
X131528571Y-61995238D01*
X131433333Y-62090476D01*
X131338095Y-62138095D01*
X143957142Y-55257142D02*
X143909523Y-55304761D01*
X143766666Y-55352380D01*
X143671428Y-55352380D01*
X143528571Y-55304761D01*
X143433333Y-55209523D01*
X143385714Y-55114285D01*
X143338095Y-54923809D01*
X143338095Y-54780952D01*
X143385714Y-54590476D01*
X143433333Y-54495238D01*
X143528571Y-54400000D01*
X143671428Y-54352380D01*
X143766666Y-54352380D01*
X143909523Y-54400000D01*
X143957142Y-54447619D01*
X144909523Y-55352380D02*
X144338095Y-55352380D01*
X144623809Y-55352380D02*
X144623809Y-54352380D01*
X144528571Y-54495238D01*
X144433333Y-54590476D01*
X144338095Y-54638095D01*
X145814285Y-54352380D02*
X145338095Y-54352380D01*
X145290476Y-54828571D01*
X145338095Y-54780952D01*
X145433333Y-54733333D01*
X145671428Y-54733333D01*
X145766666Y-54780952D01*
X145814285Y-54828571D01*
X145861904Y-54923809D01*
X145861904Y-55161904D01*
X145814285Y-55257142D01*
X145766666Y-55304761D01*
X145671428Y-55352380D01*
X145433333Y-55352380D01*
X145338095Y-55304761D01*
X145290476Y-55257142D01*
X176402380Y-53242857D02*
X175926190Y-53576190D01*
X176402380Y-53814285D02*
X175402380Y-53814285D01*
X175402380Y-53433333D01*
X175450000Y-53338095D01*
X175497619Y-53290476D01*
X175592857Y-53242857D01*
X175735714Y-53242857D01*
X175830952Y-53290476D01*
X175878571Y-53338095D01*
X175926190Y-53433333D01*
X175926190Y-53814285D01*
X175402380Y-52909523D02*
X175402380Y-52290476D01*
X175783333Y-52623809D01*
X175783333Y-52480952D01*
X175830952Y-52385714D01*
X175878571Y-52338095D01*
X175973809Y-52290476D01*
X176211904Y-52290476D01*
X176307142Y-52338095D01*
X176354761Y-52385714D01*
X176402380Y-52480952D01*
X176402380Y-52766666D01*
X176354761Y-52861904D01*
X176307142Y-52909523D01*
X176402380Y-51814285D02*
X176402380Y-51623809D01*
X176354761Y-51528571D01*
X176307142Y-51480952D01*
X176164285Y-51385714D01*
X175973809Y-51338095D01*
X175592857Y-51338095D01*
X175497619Y-51385714D01*
X175450000Y-51433333D01*
X175402380Y-51528571D01*
X175402380Y-51719047D01*
X175450000Y-51814285D01*
X175497619Y-51861904D01*
X175592857Y-51909523D01*
X175830952Y-51909523D01*
X175926190Y-51861904D01*
X175973809Y-51814285D01*
X176021428Y-51719047D01*
X176021428Y-51528571D01*
X175973809Y-51433333D01*
X175926190Y-51385714D01*
X175830952Y-51338095D01*
X182757142Y-68752380D02*
X182423809Y-68276190D01*
X182185714Y-68752380D02*
X182185714Y-67752380D01*
X182566666Y-67752380D01*
X182661904Y-67800000D01*
X182709523Y-67847619D01*
X182757142Y-67942857D01*
X182757142Y-68085714D01*
X182709523Y-68180952D01*
X182661904Y-68228571D01*
X182566666Y-68276190D01*
X182185714Y-68276190D01*
X183090476Y-67752380D02*
X183709523Y-67752380D01*
X183376190Y-68133333D01*
X183519047Y-68133333D01*
X183614285Y-68180952D01*
X183661904Y-68228571D01*
X183709523Y-68323809D01*
X183709523Y-68561904D01*
X183661904Y-68657142D01*
X183614285Y-68704761D01*
X183519047Y-68752380D01*
X183233333Y-68752380D01*
X183138095Y-68704761D01*
X183090476Y-68657142D01*
X184280952Y-68180952D02*
X184185714Y-68133333D01*
X184138095Y-68085714D01*
X184090476Y-67990476D01*
X184090476Y-67942857D01*
X184138095Y-67847619D01*
X184185714Y-67800000D01*
X184280952Y-67752380D01*
X184471428Y-67752380D01*
X184566666Y-67800000D01*
X184614285Y-67847619D01*
X184661904Y-67942857D01*
X184661904Y-67990476D01*
X184614285Y-68085714D01*
X184566666Y-68133333D01*
X184471428Y-68180952D01*
X184280952Y-68180952D01*
X184185714Y-68228571D01*
X184138095Y-68276190D01*
X184090476Y-68371428D01*
X184090476Y-68561904D01*
X184138095Y-68657142D01*
X184185714Y-68704761D01*
X184280952Y-68752380D01*
X184471428Y-68752380D01*
X184566666Y-68704761D01*
X184614285Y-68657142D01*
X184661904Y-68561904D01*
X184661904Y-68371428D01*
X184614285Y-68276190D01*
X184566666Y-68228571D01*
X184471428Y-68180952D01*
X176402380Y-57542857D02*
X175926190Y-57876190D01*
X176402380Y-58114285D02*
X175402380Y-58114285D01*
X175402380Y-57733333D01*
X175450000Y-57638095D01*
X175497619Y-57590476D01*
X175592857Y-57542857D01*
X175735714Y-57542857D01*
X175830952Y-57590476D01*
X175878571Y-57638095D01*
X175926190Y-57733333D01*
X175926190Y-58114285D01*
X175402380Y-57209523D02*
X175402380Y-56590476D01*
X175783333Y-56923809D01*
X175783333Y-56780952D01*
X175830952Y-56685714D01*
X175878571Y-56638095D01*
X175973809Y-56590476D01*
X176211904Y-56590476D01*
X176307142Y-56638095D01*
X176354761Y-56685714D01*
X176402380Y-56780952D01*
X176402380Y-57066666D01*
X176354761Y-57161904D01*
X176307142Y-57209523D01*
X175402380Y-56257142D02*
X175402380Y-55590476D01*
X176402380Y-56019047D01*
X176157142Y-66852380D02*
X175823809Y-66376190D01*
X175585714Y-66852380D02*
X175585714Y-65852380D01*
X175966666Y-65852380D01*
X176061904Y-65900000D01*
X176109523Y-65947619D01*
X176157142Y-66042857D01*
X176157142Y-66185714D01*
X176109523Y-66280952D01*
X176061904Y-66328571D01*
X175966666Y-66376190D01*
X175585714Y-66376190D01*
X176490476Y-65852380D02*
X177109523Y-65852380D01*
X176776190Y-66233333D01*
X176919047Y-66233333D01*
X177014285Y-66280952D01*
X177061904Y-66328571D01*
X177109523Y-66423809D01*
X177109523Y-66661904D01*
X177061904Y-66757142D01*
X177014285Y-66804761D01*
X176919047Y-66852380D01*
X176633333Y-66852380D01*
X176538095Y-66804761D01*
X176490476Y-66757142D01*
X177966666Y-65852380D02*
X177776190Y-65852380D01*
X177680952Y-65900000D01*
X177633333Y-65947619D01*
X177538095Y-66090476D01*
X177490476Y-66280952D01*
X177490476Y-66661904D01*
X177538095Y-66757142D01*
X177585714Y-66804761D01*
X177680952Y-66852380D01*
X177871428Y-66852380D01*
X177966666Y-66804761D01*
X178014285Y-66757142D01*
X178061904Y-66661904D01*
X178061904Y-66423809D01*
X178014285Y-66328571D01*
X177966666Y-66280952D01*
X177871428Y-66233333D01*
X177680952Y-66233333D01*
X177585714Y-66280952D01*
X177538095Y-66328571D01*
X177490476Y-66423809D01*
X179857142Y-49352380D02*
X179523809Y-48876190D01*
X179285714Y-49352380D02*
X179285714Y-48352380D01*
X179666666Y-48352380D01*
X179761904Y-48400000D01*
X179809523Y-48447619D01*
X179857142Y-48542857D01*
X179857142Y-48685714D01*
X179809523Y-48780952D01*
X179761904Y-48828571D01*
X179666666Y-48876190D01*
X179285714Y-48876190D01*
X180190476Y-48352380D02*
X180809523Y-48352380D01*
X180476190Y-48733333D01*
X180619047Y-48733333D01*
X180714285Y-48780952D01*
X180761904Y-48828571D01*
X180809523Y-48923809D01*
X180809523Y-49161904D01*
X180761904Y-49257142D01*
X180714285Y-49304761D01*
X180619047Y-49352380D01*
X180333333Y-49352380D01*
X180238095Y-49304761D01*
X180190476Y-49257142D01*
X181714285Y-48352380D02*
X181238095Y-48352380D01*
X181190476Y-48828571D01*
X181238095Y-48780952D01*
X181333333Y-48733333D01*
X181571428Y-48733333D01*
X181666666Y-48780952D01*
X181714285Y-48828571D01*
X181761904Y-48923809D01*
X181761904Y-49161904D01*
X181714285Y-49257142D01*
X181666666Y-49304761D01*
X181571428Y-49352380D01*
X181333333Y-49352380D01*
X181238095Y-49304761D01*
X181190476Y-49257142D01*
X183447619Y-57295238D02*
X183400000Y-57390476D01*
X183304761Y-57485714D01*
X183161904Y-57628571D01*
X183114285Y-57723809D01*
X183114285Y-57819047D01*
X183352380Y-57771428D02*
X183304761Y-57866666D01*
X183209523Y-57961904D01*
X183019047Y-58009523D01*
X182685714Y-58009523D01*
X182495238Y-57961904D01*
X182400000Y-57866666D01*
X182352380Y-57771428D01*
X182352380Y-57580952D01*
X182400000Y-57485714D01*
X182495238Y-57390476D01*
X182685714Y-57342857D01*
X183019047Y-57342857D01*
X183209523Y-57390476D01*
X183304761Y-57485714D01*
X183352380Y-57580952D01*
X183352380Y-57771428D01*
X182352380Y-56485714D02*
X182352380Y-56676190D01*
X182400000Y-56771428D01*
X182447619Y-56819047D01*
X182590476Y-56914285D01*
X182780952Y-56961904D01*
X183161904Y-56961904D01*
X183257142Y-56914285D01*
X183304761Y-56866666D01*
X183352380Y-56771428D01*
X183352380Y-56580952D01*
X183304761Y-56485714D01*
X183257142Y-56438095D01*
X183161904Y-56390476D01*
X182923809Y-56390476D01*
X182828571Y-56438095D01*
X182780952Y-56485714D01*
X182733333Y-56580952D01*
X182733333Y-56771428D01*
X182780952Y-56866666D01*
X182828571Y-56914285D01*
X182923809Y-56961904D01*
X183447619Y-53595238D02*
X183400000Y-53690476D01*
X183304761Y-53785714D01*
X183161904Y-53928571D01*
X183114285Y-54023809D01*
X183114285Y-54119047D01*
X183352380Y-54071428D02*
X183304761Y-54166666D01*
X183209523Y-54261904D01*
X183019047Y-54309523D01*
X182685714Y-54309523D01*
X182495238Y-54261904D01*
X182400000Y-54166666D01*
X182352380Y-54071428D01*
X182352380Y-53880952D01*
X182400000Y-53785714D01*
X182495238Y-53690476D01*
X182685714Y-53642857D01*
X183019047Y-53642857D01*
X183209523Y-53690476D01*
X183304761Y-53785714D01*
X183352380Y-53880952D01*
X183352380Y-54071428D01*
X182352380Y-52738095D02*
X182352380Y-53214285D01*
X182828571Y-53261904D01*
X182780952Y-53214285D01*
X182733333Y-53119047D01*
X182733333Y-52880952D01*
X182780952Y-52785714D01*
X182828571Y-52738095D01*
X182923809Y-52690476D01*
X183161904Y-52690476D01*
X183257142Y-52738095D01*
X183304761Y-52785714D01*
X183352380Y-52880952D01*
X183352380Y-53119047D01*
X183304761Y-53214285D01*
X183257142Y-53261904D01*
X182747619Y-82095238D02*
X182700000Y-82190476D01*
X182604761Y-82285714D01*
X182461904Y-82428571D01*
X182414285Y-82523809D01*
X182414285Y-82619047D01*
X182652380Y-82571428D02*
X182604761Y-82666666D01*
X182509523Y-82761904D01*
X182319047Y-82809523D01*
X181985714Y-82809523D01*
X181795238Y-82761904D01*
X181700000Y-82666666D01*
X181652380Y-82571428D01*
X181652380Y-82380952D01*
X181700000Y-82285714D01*
X181795238Y-82190476D01*
X181985714Y-82142857D01*
X182319047Y-82142857D01*
X182509523Y-82190476D01*
X182604761Y-82285714D01*
X182652380Y-82380952D01*
X182652380Y-82571428D01*
X182652380Y-81190476D02*
X182652380Y-81761904D01*
X182652380Y-81476190D02*
X181652380Y-81476190D01*
X181795238Y-81571428D01*
X181890476Y-81666666D01*
X181938095Y-81761904D01*
X164104761Y-90761904D02*
X164152380Y-90619047D01*
X164152380Y-90380952D01*
X164104761Y-90285714D01*
X164057142Y-90238095D01*
X163961904Y-90190476D01*
X163866666Y-90190476D01*
X163771428Y-90238095D01*
X163723809Y-90285714D01*
X163676190Y-90380952D01*
X163628571Y-90571428D01*
X163580952Y-90666666D01*
X163533333Y-90714285D01*
X163438095Y-90761904D01*
X163342857Y-90761904D01*
X163247619Y-90714285D01*
X163200000Y-90666666D01*
X163152380Y-90571428D01*
X163152380Y-90333333D01*
X163200000Y-90190476D01*
X164152380Y-89238095D02*
X164152380Y-89809523D01*
X164152380Y-89523809D02*
X163152380Y-89523809D01*
X163295238Y-89619047D01*
X163390476Y-89714285D01*
X163438095Y-89809523D01*
X129392380Y-51828333D02*
X130106666Y-51828333D01*
X130249523Y-51875952D01*
X130344761Y-51971190D01*
X130392380Y-52114047D01*
X130392380Y-52209285D01*
X129725714Y-50923571D02*
X130392380Y-50923571D01*
X129344761Y-51161666D02*
X130059047Y-51399761D01*
X130059047Y-50780714D01*
X144252380Y-86761904D02*
X145061904Y-86761904D01*
X145157142Y-86714285D01*
X145204761Y-86666666D01*
X145252380Y-86571428D01*
X145252380Y-86380952D01*
X145204761Y-86285714D01*
X145157142Y-86238095D01*
X145061904Y-86190476D01*
X144252380Y-86190476D01*
X144252380Y-85809523D02*
X144252380Y-85142857D01*
X145252380Y-85571428D01*
X142152380Y-76661904D02*
X142961904Y-76661904D01*
X143057142Y-76614285D01*
X143104761Y-76566666D01*
X143152380Y-76471428D01*
X143152380Y-76280952D01*
X143104761Y-76185714D01*
X143057142Y-76138095D01*
X142961904Y-76090476D01*
X142152380Y-76090476D01*
X142152380Y-75709523D02*
X142152380Y-75090476D01*
X142533333Y-75423809D01*
X142533333Y-75280952D01*
X142580952Y-75185714D01*
X142628571Y-75138095D01*
X142723809Y-75090476D01*
X142961904Y-75090476D01*
X143057142Y-75138095D01*
X143104761Y-75185714D01*
X143152380Y-75280952D01*
X143152380Y-75566666D01*
X143104761Y-75661904D01*
X143057142Y-75709523D01*
X163547619Y-74295238D02*
X163500000Y-74390476D01*
X163404761Y-74485714D01*
X163261904Y-74628571D01*
X163214285Y-74723809D01*
X163214285Y-74819047D01*
X163452380Y-74771428D02*
X163404761Y-74866666D01*
X163309523Y-74961904D01*
X163119047Y-75009523D01*
X162785714Y-75009523D01*
X162595238Y-74961904D01*
X162500000Y-74866666D01*
X162452380Y-74771428D01*
X162452380Y-74580952D01*
X162500000Y-74485714D01*
X162595238Y-74390476D01*
X162785714Y-74342857D01*
X163119047Y-74342857D01*
X163309523Y-74390476D01*
X163404761Y-74485714D01*
X163452380Y-74580952D01*
X163452380Y-74771428D01*
X162785714Y-73485714D02*
X163452380Y-73485714D01*
X162404761Y-73723809D02*
X163119047Y-73961904D01*
X163119047Y-73342857D01*
X154347619Y-74495238D02*
X154300000Y-74590476D01*
X154204761Y-74685714D01*
X154061904Y-74828571D01*
X154014285Y-74923809D01*
X154014285Y-75019047D01*
X154252380Y-74971428D02*
X154204761Y-75066666D01*
X154109523Y-75161904D01*
X153919047Y-75209523D01*
X153585714Y-75209523D01*
X153395238Y-75161904D01*
X153300000Y-75066666D01*
X153252380Y-74971428D01*
X153252380Y-74780952D01*
X153300000Y-74685714D01*
X153395238Y-74590476D01*
X153585714Y-74542857D01*
X153919047Y-74542857D01*
X154109523Y-74590476D01*
X154204761Y-74685714D01*
X154252380Y-74780952D01*
X154252380Y-74971428D01*
X153252380Y-74209523D02*
X153252380Y-73590476D01*
X153633333Y-73923809D01*
X153633333Y-73780952D01*
X153680952Y-73685714D01*
X153728571Y-73638095D01*
X153823809Y-73590476D01*
X154061904Y-73590476D01*
X154157142Y-73638095D01*
X154204761Y-73685714D01*
X154252380Y-73780952D01*
X154252380Y-74066666D01*
X154204761Y-74161904D01*
X154157142Y-74209523D01*
X182547619Y-76095238D02*
X182500000Y-76190476D01*
X182404761Y-76285714D01*
X182261904Y-76428571D01*
X182214285Y-76523809D01*
X182214285Y-76619047D01*
X182452380Y-76571428D02*
X182404761Y-76666666D01*
X182309523Y-76761904D01*
X182119047Y-76809523D01*
X181785714Y-76809523D01*
X181595238Y-76761904D01*
X181500000Y-76666666D01*
X181452380Y-76571428D01*
X181452380Y-76380952D01*
X181500000Y-76285714D01*
X181595238Y-76190476D01*
X181785714Y-76142857D01*
X182119047Y-76142857D01*
X182309523Y-76190476D01*
X182404761Y-76285714D01*
X182452380Y-76380952D01*
X182452380Y-76571428D01*
X181547619Y-75761904D02*
X181500000Y-75714285D01*
X181452380Y-75619047D01*
X181452380Y-75380952D01*
X181500000Y-75285714D01*
X181547619Y-75238095D01*
X181642857Y-75190476D01*
X181738095Y-75190476D01*
X181880952Y-75238095D01*
X182452380Y-75809523D01*
X182452380Y-75190476D01*
X161382380Y-83033333D02*
X162096666Y-83033333D01*
X162239523Y-83080952D01*
X162334761Y-83176190D01*
X162382380Y-83319047D01*
X162382380Y-83414285D01*
X162382380Y-82033333D02*
X162382380Y-82604761D01*
X162382380Y-82319047D02*
X161382380Y-82319047D01*
X161525238Y-82414285D01*
X161620476Y-82509523D01*
X161668095Y-82604761D01*
X176652380Y-97061904D02*
X177461904Y-97061904D01*
X177557142Y-97014285D01*
X177604761Y-96966666D01*
X177652380Y-96871428D01*
X177652380Y-96680952D01*
X177604761Y-96585714D01*
X177557142Y-96538095D01*
X177461904Y-96490476D01*
X176652380Y-96490476D01*
X176652380Y-95585714D02*
X176652380Y-95776190D01*
X176700000Y-95871428D01*
X176747619Y-95919047D01*
X176890476Y-96014285D01*
X177080952Y-96061904D01*
X177461904Y-96061904D01*
X177557142Y-96014285D01*
X177604761Y-95966666D01*
X177652380Y-95871428D01*
X177652380Y-95680952D01*
X177604761Y-95585714D01*
X177557142Y-95538095D01*
X177461904Y-95490476D01*
X177223809Y-95490476D01*
X177128571Y-95538095D01*
X177080952Y-95585714D01*
X177033333Y-95680952D01*
X177033333Y-95871428D01*
X177080952Y-95966666D01*
X177128571Y-96014285D01*
X177223809Y-96061904D01*
X186152380Y-70561904D02*
X186961904Y-70561904D01*
X187057142Y-70514285D01*
X187104761Y-70466666D01*
X187152380Y-70371428D01*
X187152380Y-70180952D01*
X187104761Y-70085714D01*
X187057142Y-70038095D01*
X186961904Y-69990476D01*
X186152380Y-69990476D01*
X186247619Y-69561904D02*
X186200000Y-69514285D01*
X186152380Y-69419047D01*
X186152380Y-69180952D01*
X186200000Y-69085714D01*
X186247619Y-69038095D01*
X186342857Y-68990476D01*
X186438095Y-68990476D01*
X186580952Y-69038095D01*
X187152380Y-69609523D01*
X187152380Y-68990476D01*
X187104761Y-81733333D02*
X187152380Y-81590476D01*
X187152380Y-81352380D01*
X187104761Y-81257142D01*
X187057142Y-81209523D01*
X186961904Y-81161904D01*
X186866666Y-81161904D01*
X186771428Y-81209523D01*
X186723809Y-81257142D01*
X186676190Y-81352380D01*
X186628571Y-81542857D01*
X186580952Y-81638095D01*
X186533333Y-81685714D01*
X186438095Y-81733333D01*
X186342857Y-81733333D01*
X186247619Y-81685714D01*
X186200000Y-81638095D01*
X186152380Y-81542857D01*
X186152380Y-81304761D01*
X186200000Y-81161904D01*
X186152380Y-80828571D02*
X187152380Y-80590476D01*
X186438095Y-80400000D01*
X187152380Y-80209523D01*
X186152380Y-79971428D01*
X187152380Y-79066666D02*
X187152380Y-79638095D01*
X187152380Y-79352380D02*
X186152380Y-79352380D01*
X186295238Y-79447619D01*
X186390476Y-79542857D01*
X186438095Y-79638095D01*
X156657142Y-81252380D02*
X156323809Y-80776190D01*
X156085714Y-81252380D02*
X156085714Y-80252380D01*
X156466666Y-80252380D01*
X156561904Y-80300000D01*
X156609523Y-80347619D01*
X156657142Y-80442857D01*
X156657142Y-80585714D01*
X156609523Y-80680952D01*
X156561904Y-80728571D01*
X156466666Y-80776190D01*
X156085714Y-80776190D01*
X156990476Y-80252380D02*
X157609523Y-80252380D01*
X157276190Y-80633333D01*
X157419047Y-80633333D01*
X157514285Y-80680952D01*
X157561904Y-80728571D01*
X157609523Y-80823809D01*
X157609523Y-81061904D01*
X157561904Y-81157142D01*
X157514285Y-81204761D01*
X157419047Y-81252380D01*
X157133333Y-81252380D01*
X157038095Y-81204761D01*
X156990476Y-81157142D01*
X158466666Y-80585714D02*
X158466666Y-81252380D01*
X158228571Y-80204761D02*
X157990476Y-80919047D01*
X158609523Y-80919047D01*
X159857142Y-81252380D02*
X159523809Y-80776190D01*
X159285714Y-81252380D02*
X159285714Y-80252380D01*
X159666666Y-80252380D01*
X159761904Y-80300000D01*
X159809523Y-80347619D01*
X159857142Y-80442857D01*
X159857142Y-80585714D01*
X159809523Y-80680952D01*
X159761904Y-80728571D01*
X159666666Y-80776190D01*
X159285714Y-80776190D01*
X160190476Y-80252380D02*
X160809523Y-80252380D01*
X160476190Y-80633333D01*
X160619047Y-80633333D01*
X160714285Y-80680952D01*
X160761904Y-80728571D01*
X160809523Y-80823809D01*
X160809523Y-81061904D01*
X160761904Y-81157142D01*
X160714285Y-81204761D01*
X160619047Y-81252380D01*
X160333333Y-81252380D01*
X160238095Y-81204761D01*
X160190476Y-81157142D01*
X161142857Y-80252380D02*
X161761904Y-80252380D01*
X161428571Y-80633333D01*
X161571428Y-80633333D01*
X161666666Y-80680952D01*
X161714285Y-80728571D01*
X161761904Y-80823809D01*
X161761904Y-81061904D01*
X161714285Y-81157142D01*
X161666666Y-81204761D01*
X161571428Y-81252380D01*
X161285714Y-81252380D01*
X161190476Y-81204761D01*
X161142857Y-81157142D01*
X131102380Y-82842857D02*
X130626190Y-83176190D01*
X131102380Y-83414285D02*
X130102380Y-83414285D01*
X130102380Y-83033333D01*
X130150000Y-82938095D01*
X130197619Y-82890476D01*
X130292857Y-82842857D01*
X130435714Y-82842857D01*
X130530952Y-82890476D01*
X130578571Y-82938095D01*
X130626190Y-83033333D01*
X130626190Y-83414285D01*
X130102380Y-82509523D02*
X130102380Y-81890476D01*
X130483333Y-82223809D01*
X130483333Y-82080952D01*
X130530952Y-81985714D01*
X130578571Y-81938095D01*
X130673809Y-81890476D01*
X130911904Y-81890476D01*
X131007142Y-81938095D01*
X131054761Y-81985714D01*
X131102380Y-82080952D01*
X131102380Y-82366666D01*
X131054761Y-82461904D01*
X131007142Y-82509523D01*
X131102380Y-80938095D02*
X131102380Y-81509523D01*
X131102380Y-81223809D02*
X130102380Y-81223809D01*
X130245238Y-81319047D01*
X130340476Y-81414285D01*
X130388095Y-81509523D01*
X147752380Y-93642857D02*
X147276190Y-93976190D01*
X147752380Y-94214285D02*
X146752380Y-94214285D01*
X146752380Y-93833333D01*
X146800000Y-93738095D01*
X146847619Y-93690476D01*
X146942857Y-93642857D01*
X147085714Y-93642857D01*
X147180952Y-93690476D01*
X147228571Y-93738095D01*
X147276190Y-93833333D01*
X147276190Y-94214285D01*
X146752380Y-93309523D02*
X146752380Y-92690476D01*
X147133333Y-93023809D01*
X147133333Y-92880952D01*
X147180952Y-92785714D01*
X147228571Y-92738095D01*
X147323809Y-92690476D01*
X147561904Y-92690476D01*
X147657142Y-92738095D01*
X147704761Y-92785714D01*
X147752380Y-92880952D01*
X147752380Y-93166666D01*
X147704761Y-93261904D01*
X147657142Y-93309523D01*
X146752380Y-92071428D02*
X146752380Y-91976190D01*
X146800000Y-91880952D01*
X146847619Y-91833333D01*
X146942857Y-91785714D01*
X147133333Y-91738095D01*
X147371428Y-91738095D01*
X147561904Y-91785714D01*
X147657142Y-91833333D01*
X147704761Y-91880952D01*
X147752380Y-91976190D01*
X147752380Y-92071428D01*
X147704761Y-92166666D01*
X147657142Y-92214285D01*
X147561904Y-92261904D01*
X147371428Y-92309523D01*
X147133333Y-92309523D01*
X146942857Y-92261904D01*
X146847619Y-92214285D01*
X146800000Y-92166666D01*
X146752380Y-92071428D01*
X139252380Y-50742857D02*
X138776190Y-51076190D01*
X139252380Y-51314285D02*
X138252380Y-51314285D01*
X138252380Y-50933333D01*
X138300000Y-50838095D01*
X138347619Y-50790476D01*
X138442857Y-50742857D01*
X138585714Y-50742857D01*
X138680952Y-50790476D01*
X138728571Y-50838095D01*
X138776190Y-50933333D01*
X138776190Y-51314285D01*
X138347619Y-50361904D02*
X138300000Y-50314285D01*
X138252380Y-50219047D01*
X138252380Y-49980952D01*
X138300000Y-49885714D01*
X138347619Y-49838095D01*
X138442857Y-49790476D01*
X138538095Y-49790476D01*
X138680952Y-49838095D01*
X139252380Y-50409523D01*
X139252380Y-49790476D01*
X139252380Y-49314285D02*
X139252380Y-49123809D01*
X139204761Y-49028571D01*
X139157142Y-48980952D01*
X139014285Y-48885714D01*
X138823809Y-48838095D01*
X138442857Y-48838095D01*
X138347619Y-48885714D01*
X138300000Y-48933333D01*
X138252380Y-49028571D01*
X138252380Y-49219047D01*
X138300000Y-49314285D01*
X138347619Y-49361904D01*
X138442857Y-49409523D01*
X138680952Y-49409523D01*
X138776190Y-49361904D01*
X138823809Y-49314285D01*
X138871428Y-49219047D01*
X138871428Y-49028571D01*
X138823809Y-48933333D01*
X138776190Y-48885714D01*
X138680952Y-48838095D01*
X131052380Y-90642857D02*
X130576190Y-90976190D01*
X131052380Y-91214285D02*
X130052380Y-91214285D01*
X130052380Y-90833333D01*
X130100000Y-90738095D01*
X130147619Y-90690476D01*
X130242857Y-90642857D01*
X130385714Y-90642857D01*
X130480952Y-90690476D01*
X130528571Y-90738095D01*
X130576190Y-90833333D01*
X130576190Y-91214285D01*
X130147619Y-90261904D02*
X130100000Y-90214285D01*
X130052380Y-90119047D01*
X130052380Y-89880952D01*
X130100000Y-89785714D01*
X130147619Y-89738095D01*
X130242857Y-89690476D01*
X130338095Y-89690476D01*
X130480952Y-89738095D01*
X131052380Y-90309523D01*
X131052380Y-89690476D01*
X130480952Y-89119047D02*
X130433333Y-89214285D01*
X130385714Y-89261904D01*
X130290476Y-89309523D01*
X130242857Y-89309523D01*
X130147619Y-89261904D01*
X130100000Y-89214285D01*
X130052380Y-89119047D01*
X130052380Y-88928571D01*
X130100000Y-88833333D01*
X130147619Y-88785714D01*
X130242857Y-88738095D01*
X130290476Y-88738095D01*
X130385714Y-88785714D01*
X130433333Y-88833333D01*
X130480952Y-88928571D01*
X130480952Y-89119047D01*
X130528571Y-89214285D01*
X130576190Y-89261904D01*
X130671428Y-89309523D01*
X130861904Y-89309523D01*
X130957142Y-89261904D01*
X131004761Y-89214285D01*
X131052380Y-89119047D01*
X131052380Y-88928571D01*
X131004761Y-88833333D01*
X130957142Y-88785714D01*
X130861904Y-88738095D01*
X130671428Y-88738095D01*
X130576190Y-88785714D01*
X130528571Y-88833333D01*
X130480952Y-88928571D01*
X143157142Y-64752380D02*
X142823809Y-64276190D01*
X142585714Y-64752380D02*
X142585714Y-63752380D01*
X142966666Y-63752380D01*
X143061904Y-63800000D01*
X143109523Y-63847619D01*
X143157142Y-63942857D01*
X143157142Y-64085714D01*
X143109523Y-64180952D01*
X143061904Y-64228571D01*
X142966666Y-64276190D01*
X142585714Y-64276190D01*
X143538095Y-63847619D02*
X143585714Y-63800000D01*
X143680952Y-63752380D01*
X143919047Y-63752380D01*
X144014285Y-63800000D01*
X144061904Y-63847619D01*
X144109523Y-63942857D01*
X144109523Y-64038095D01*
X144061904Y-64180952D01*
X143490476Y-64752380D01*
X144109523Y-64752380D01*
X144442857Y-63752380D02*
X145109523Y-63752380D01*
X144680952Y-64752380D01*
X131152380Y-78842857D02*
X130676190Y-79176190D01*
X131152380Y-79414285D02*
X130152380Y-79414285D01*
X130152380Y-79033333D01*
X130200000Y-78938095D01*
X130247619Y-78890476D01*
X130342857Y-78842857D01*
X130485714Y-78842857D01*
X130580952Y-78890476D01*
X130628571Y-78938095D01*
X130676190Y-79033333D01*
X130676190Y-79414285D01*
X130247619Y-78461904D02*
X130200000Y-78414285D01*
X130152380Y-78319047D01*
X130152380Y-78080952D01*
X130200000Y-77985714D01*
X130247619Y-77938095D01*
X130342857Y-77890476D01*
X130438095Y-77890476D01*
X130580952Y-77938095D01*
X131152380Y-78509523D01*
X131152380Y-77890476D01*
X130152380Y-77033333D02*
X130152380Y-77223809D01*
X130200000Y-77319047D01*
X130247619Y-77366666D01*
X130390476Y-77461904D01*
X130580952Y-77509523D01*
X130961904Y-77509523D01*
X131057142Y-77461904D01*
X131104761Y-77414285D01*
X131152380Y-77319047D01*
X131152380Y-77128571D01*
X131104761Y-77033333D01*
X131057142Y-76985714D01*
X130961904Y-76938095D01*
X130723809Y-76938095D01*
X130628571Y-76985714D01*
X130580952Y-77033333D01*
X130533333Y-77128571D01*
X130533333Y-77319047D01*
X130580952Y-77414285D01*
X130628571Y-77461904D01*
X130723809Y-77509523D01*
X143157142Y-56752380D02*
X142823809Y-56276190D01*
X142585714Y-56752380D02*
X142585714Y-55752380D01*
X142966666Y-55752380D01*
X143061904Y-55800000D01*
X143109523Y-55847619D01*
X143157142Y-55942857D01*
X143157142Y-56085714D01*
X143109523Y-56180952D01*
X143061904Y-56228571D01*
X142966666Y-56276190D01*
X142585714Y-56276190D01*
X144109523Y-56752380D02*
X143538095Y-56752380D01*
X143823809Y-56752380D02*
X143823809Y-55752380D01*
X143728571Y-55895238D01*
X143633333Y-55990476D01*
X143538095Y-56038095D01*
X144442857Y-55752380D02*
X145109523Y-55752380D01*
X144680952Y-56752380D01*
X143157142Y-58652380D02*
X142823809Y-58176190D01*
X142585714Y-58652380D02*
X142585714Y-57652380D01*
X142966666Y-57652380D01*
X143061904Y-57700000D01*
X143109523Y-57747619D01*
X143157142Y-57842857D01*
X143157142Y-57985714D01*
X143109523Y-58080952D01*
X143061904Y-58128571D01*
X142966666Y-58176190D01*
X142585714Y-58176190D01*
X144109523Y-58652380D02*
X143538095Y-58652380D01*
X143823809Y-58652380D02*
X143823809Y-57652380D01*
X143728571Y-57795238D01*
X143633333Y-57890476D01*
X143538095Y-57938095D01*
X144966666Y-57652380D02*
X144776190Y-57652380D01*
X144680952Y-57700000D01*
X144633333Y-57747619D01*
X144538095Y-57890476D01*
X144490476Y-58080952D01*
X144490476Y-58461904D01*
X144538095Y-58557142D01*
X144585714Y-58604761D01*
X144680952Y-58652380D01*
X144871428Y-58652380D01*
X144966666Y-58604761D01*
X145014285Y-58557142D01*
X145061904Y-58461904D01*
X145061904Y-58223809D01*
X145014285Y-58128571D01*
X144966666Y-58080952D01*
X144871428Y-58033333D01*
X144680952Y-58033333D01*
X144585714Y-58080952D01*
X144538095Y-58128571D01*
X144490476Y-58223809D01*
X143157142Y-60752380D02*
X142823809Y-60276190D01*
X142585714Y-60752380D02*
X142585714Y-59752380D01*
X142966666Y-59752380D01*
X143061904Y-59800000D01*
X143109523Y-59847619D01*
X143157142Y-59942857D01*
X143157142Y-60085714D01*
X143109523Y-60180952D01*
X143061904Y-60228571D01*
X142966666Y-60276190D01*
X142585714Y-60276190D01*
X144109523Y-60752380D02*
X143538095Y-60752380D01*
X143823809Y-60752380D02*
X143823809Y-59752380D01*
X143728571Y-59895238D01*
X143633333Y-59990476D01*
X143538095Y-60038095D01*
X145014285Y-59752380D02*
X144538095Y-59752380D01*
X144490476Y-60228571D01*
X144538095Y-60180952D01*
X144633333Y-60133333D01*
X144871428Y-60133333D01*
X144966666Y-60180952D01*
X145014285Y-60228571D01*
X145061904Y-60323809D01*
X145061904Y-60561904D01*
X145014285Y-60657142D01*
X144966666Y-60704761D01*
X144871428Y-60752380D01*
X144633333Y-60752380D01*
X144538095Y-60704761D01*
X144490476Y-60657142D01*
X143157142Y-62752380D02*
X142823809Y-62276190D01*
X142585714Y-62752380D02*
X142585714Y-61752380D01*
X142966666Y-61752380D01*
X143061904Y-61800000D01*
X143109523Y-61847619D01*
X143157142Y-61942857D01*
X143157142Y-62085714D01*
X143109523Y-62180952D01*
X143061904Y-62228571D01*
X142966666Y-62276190D01*
X142585714Y-62276190D01*
X144109523Y-62752380D02*
X143538095Y-62752380D01*
X143823809Y-62752380D02*
X143823809Y-61752380D01*
X143728571Y-61895238D01*
X143633333Y-61990476D01*
X143538095Y-62038095D01*
X144966666Y-62085714D02*
X144966666Y-62752380D01*
X144728571Y-61704761D02*
X144490476Y-62419047D01*
X145109523Y-62419047D01*
X175452380Y-72442857D02*
X174976190Y-72776190D01*
X175452380Y-73014285D02*
X174452380Y-73014285D01*
X174452380Y-72633333D01*
X174500000Y-72538095D01*
X174547619Y-72490476D01*
X174642857Y-72442857D01*
X174785714Y-72442857D01*
X174880952Y-72490476D01*
X174928571Y-72538095D01*
X174976190Y-72633333D01*
X174976190Y-73014285D01*
X175452380Y-71490476D02*
X175452380Y-72061904D01*
X175452380Y-71776190D02*
X174452380Y-71776190D01*
X174595238Y-71871428D01*
X174690476Y-71966666D01*
X174738095Y-72061904D01*
X174452380Y-71157142D02*
X174452380Y-70538095D01*
X174833333Y-70871428D01*
X174833333Y-70728571D01*
X174880952Y-70633333D01*
X174928571Y-70585714D01*
X175023809Y-70538095D01*
X175261904Y-70538095D01*
X175357142Y-70585714D01*
X175404761Y-70633333D01*
X175452380Y-70728571D01*
X175452380Y-71014285D01*
X175404761Y-71109523D01*
X175357142Y-71157142D01*
X178152380Y-69542857D02*
X177676190Y-69876190D01*
X178152380Y-70114285D02*
X177152380Y-70114285D01*
X177152380Y-69733333D01*
X177200000Y-69638095D01*
X177247619Y-69590476D01*
X177342857Y-69542857D01*
X177485714Y-69542857D01*
X177580952Y-69590476D01*
X177628571Y-69638095D01*
X177676190Y-69733333D01*
X177676190Y-70114285D01*
X178152380Y-68590476D02*
X178152380Y-69161904D01*
X178152380Y-68876190D02*
X177152380Y-68876190D01*
X177295238Y-68971428D01*
X177390476Y-69066666D01*
X177438095Y-69161904D01*
X177247619Y-68209523D02*
X177200000Y-68161904D01*
X177152380Y-68066666D01*
X177152380Y-67828571D01*
X177200000Y-67733333D01*
X177247619Y-67685714D01*
X177342857Y-67638095D01*
X177438095Y-67638095D01*
X177580952Y-67685714D01*
X178152380Y-68257142D01*
X178152380Y-67638095D01*
X134152380Y-74742857D02*
X133676190Y-75076190D01*
X134152380Y-75314285D02*
X133152380Y-75314285D01*
X133152380Y-74933333D01*
X133200000Y-74838095D01*
X133247619Y-74790476D01*
X133342857Y-74742857D01*
X133485714Y-74742857D01*
X133580952Y-74790476D01*
X133628571Y-74838095D01*
X133676190Y-74933333D01*
X133676190Y-75314285D01*
X134152380Y-73790476D02*
X134152380Y-74361904D01*
X134152380Y-74076190D02*
X133152380Y-74076190D01*
X133295238Y-74171428D01*
X133390476Y-74266666D01*
X133438095Y-74361904D01*
X134152380Y-72838095D02*
X134152380Y-73409523D01*
X134152380Y-73123809D02*
X133152380Y-73123809D01*
X133295238Y-73219047D01*
X133390476Y-73314285D01*
X133438095Y-73409523D01*
X181733333Y-87252380D02*
X181400000Y-86776190D01*
X181161904Y-87252380D02*
X181161904Y-86252380D01*
X181542857Y-86252380D01*
X181638095Y-86300000D01*
X181685714Y-86347619D01*
X181733333Y-86442857D01*
X181733333Y-86585714D01*
X181685714Y-86680952D01*
X181638095Y-86728571D01*
X181542857Y-86776190D01*
X181161904Y-86776190D01*
X182209523Y-87252380D02*
X182400000Y-87252380D01*
X182495238Y-87204761D01*
X182542857Y-87157142D01*
X182638095Y-87014285D01*
X182685714Y-86823809D01*
X182685714Y-86442857D01*
X182638095Y-86347619D01*
X182590476Y-86300000D01*
X182495238Y-86252380D01*
X182304761Y-86252380D01*
X182209523Y-86300000D01*
X182161904Y-86347619D01*
X182114285Y-86442857D01*
X182114285Y-86680952D01*
X182161904Y-86776190D01*
X182209523Y-86823809D01*
X182304761Y-86871428D01*
X182495238Y-86871428D01*
X182590476Y-86823809D01*
X182638095Y-86776190D01*
X182685714Y-86680952D01*
X181733333Y-85552380D02*
X181400000Y-85076190D01*
X181161904Y-85552380D02*
X181161904Y-84552380D01*
X181542857Y-84552380D01*
X181638095Y-84600000D01*
X181685714Y-84647619D01*
X181733333Y-84742857D01*
X181733333Y-84885714D01*
X181685714Y-84980952D01*
X181638095Y-85028571D01*
X181542857Y-85076190D01*
X181161904Y-85076190D01*
X182304761Y-84980952D02*
X182209523Y-84933333D01*
X182161904Y-84885714D01*
X182114285Y-84790476D01*
X182114285Y-84742857D01*
X182161904Y-84647619D01*
X182209523Y-84600000D01*
X182304761Y-84552380D01*
X182495238Y-84552380D01*
X182590476Y-84600000D01*
X182638095Y-84647619D01*
X182685714Y-84742857D01*
X182685714Y-84790476D01*
X182638095Y-84885714D01*
X182590476Y-84933333D01*
X182495238Y-84980952D01*
X182304761Y-84980952D01*
X182209523Y-85028571D01*
X182161904Y-85076190D01*
X182114285Y-85171428D01*
X182114285Y-85361904D01*
X182161904Y-85457142D01*
X182209523Y-85504761D01*
X182304761Y-85552380D01*
X182495238Y-85552380D01*
X182590476Y-85504761D01*
X182638095Y-85457142D01*
X182685714Y-85361904D01*
X182685714Y-85171428D01*
X182638095Y-85076190D01*
X182590476Y-85028571D01*
X182495238Y-84980952D01*
X134852380Y-47066666D02*
X134376190Y-47400000D01*
X134852380Y-47638095D02*
X133852380Y-47638095D01*
X133852380Y-47257142D01*
X133900000Y-47161904D01*
X133947619Y-47114285D01*
X134042857Y-47066666D01*
X134185714Y-47066666D01*
X134280952Y-47114285D01*
X134328571Y-47161904D01*
X134376190Y-47257142D01*
X134376190Y-47638095D01*
X133852380Y-46733333D02*
X133852380Y-46066666D01*
X134852380Y-46495238D01*
X136452380Y-74066666D02*
X135976190Y-74400000D01*
X136452380Y-74638095D02*
X135452380Y-74638095D01*
X135452380Y-74257142D01*
X135500000Y-74161904D01*
X135547619Y-74114285D01*
X135642857Y-74066666D01*
X135785714Y-74066666D01*
X135880952Y-74114285D01*
X135928571Y-74161904D01*
X135976190Y-74257142D01*
X135976190Y-74638095D01*
X135452380Y-73209523D02*
X135452380Y-73400000D01*
X135500000Y-73495238D01*
X135547619Y-73542857D01*
X135690476Y-73638095D01*
X135880952Y-73685714D01*
X136261904Y-73685714D01*
X136357142Y-73638095D01*
X136404761Y-73590476D01*
X136452380Y-73495238D01*
X136452380Y-73304761D01*
X136404761Y-73209523D01*
X136357142Y-73161904D01*
X136261904Y-73114285D01*
X136023809Y-73114285D01*
X135928571Y-73161904D01*
X135880952Y-73209523D01*
X135833333Y-73304761D01*
X135833333Y-73495238D01*
X135880952Y-73590476D01*
X135928571Y-73638095D01*
X136023809Y-73685714D01*
X182233333Y-79152380D02*
X181900000Y-78676190D01*
X181661904Y-79152380D02*
X181661904Y-78152380D01*
X182042857Y-78152380D01*
X182138095Y-78200000D01*
X182185714Y-78247619D01*
X182233333Y-78342857D01*
X182233333Y-78485714D01*
X182185714Y-78580952D01*
X182138095Y-78628571D01*
X182042857Y-78676190D01*
X181661904Y-78676190D01*
X183138095Y-78152380D02*
X182661904Y-78152380D01*
X182614285Y-78628571D01*
X182661904Y-78580952D01*
X182757142Y-78533333D01*
X182995238Y-78533333D01*
X183090476Y-78580952D01*
X183138095Y-78628571D01*
X183185714Y-78723809D01*
X183185714Y-78961904D01*
X183138095Y-79057142D01*
X183090476Y-79104761D01*
X182995238Y-79152380D01*
X182757142Y-79152380D01*
X182661904Y-79104761D01*
X182614285Y-79057142D01*
X150852380Y-78666666D02*
X150376190Y-79000000D01*
X150852380Y-79238095D02*
X149852380Y-79238095D01*
X149852380Y-78857142D01*
X149900000Y-78761904D01*
X149947619Y-78714285D01*
X150042857Y-78666666D01*
X150185714Y-78666666D01*
X150280952Y-78714285D01*
X150328571Y-78761904D01*
X150376190Y-78857142D01*
X150376190Y-79238095D01*
X150185714Y-77809523D02*
X150852380Y-77809523D01*
X149804761Y-78047619D02*
X150519047Y-78285714D01*
X150519047Y-77666666D01*
X133752380Y-52266666D02*
X133276190Y-52600000D01*
X133752380Y-52838095D02*
X132752380Y-52838095D01*
X132752380Y-52457142D01*
X132800000Y-52361904D01*
X132847619Y-52314285D01*
X132942857Y-52266666D01*
X133085714Y-52266666D01*
X133180952Y-52314285D01*
X133228571Y-52361904D01*
X133276190Y-52457142D01*
X133276190Y-52838095D01*
X132752380Y-51933333D02*
X132752380Y-51314285D01*
X133133333Y-51647619D01*
X133133333Y-51504761D01*
X133180952Y-51409523D01*
X133228571Y-51361904D01*
X133323809Y-51314285D01*
X133561904Y-51314285D01*
X133657142Y-51361904D01*
X133704761Y-51409523D01*
X133752380Y-51504761D01*
X133752380Y-51790476D01*
X133704761Y-51885714D01*
X133657142Y-51933333D01*
X154333333Y-81252380D02*
X154000000Y-80776190D01*
X153761904Y-81252380D02*
X153761904Y-80252380D01*
X154142857Y-80252380D01*
X154238095Y-80300000D01*
X154285714Y-80347619D01*
X154333333Y-80442857D01*
X154333333Y-80585714D01*
X154285714Y-80680952D01*
X154238095Y-80728571D01*
X154142857Y-80776190D01*
X153761904Y-80776190D01*
X154714285Y-80347619D02*
X154761904Y-80300000D01*
X154857142Y-80252380D01*
X155095238Y-80252380D01*
X155190476Y-80300000D01*
X155238095Y-80347619D01*
X155285714Y-80442857D01*
X155285714Y-80538095D01*
X155238095Y-80680952D01*
X154666666Y-81252380D01*
X155285714Y-81252380D01*
X122891904Y-83066666D02*
X123463333Y-83066666D01*
X123577619Y-83104761D01*
X123653809Y-83180952D01*
X123691904Y-83295238D01*
X123691904Y-83371428D01*
X122968095Y-82723809D02*
X122930000Y-82685714D01*
X122891904Y-82609523D01*
X122891904Y-82419047D01*
X122930000Y-82342857D01*
X122968095Y-82304761D01*
X123044285Y-82266666D01*
X123120476Y-82266666D01*
X123234761Y-82304761D01*
X123691904Y-82761904D01*
X123691904Y-82266666D01*
X131652380Y-74638095D02*
X130652380Y-74638095D01*
X130652380Y-74400000D01*
X130700000Y-74257142D01*
X130795238Y-74161904D01*
X130890476Y-74114285D01*
X131080952Y-74066666D01*
X131223809Y-74066666D01*
X131414285Y-74114285D01*
X131509523Y-74161904D01*
X131604761Y-74257142D01*
X131652380Y-74400000D01*
X131652380Y-74638095D01*
X130747619Y-73685714D02*
X130700000Y-73638095D01*
X130652380Y-73542857D01*
X130652380Y-73304761D01*
X130700000Y-73209523D01*
X130747619Y-73161904D01*
X130842857Y-73114285D01*
X130938095Y-73114285D01*
X131080952Y-73161904D01*
X131652380Y-73733333D01*
X131652380Y-73114285D01*
X130252380Y-58303095D02*
X129252380Y-58303095D01*
X129252380Y-58065000D01*
X129300000Y-57922142D01*
X129395238Y-57826904D01*
X129490476Y-57779285D01*
X129680952Y-57731666D01*
X129823809Y-57731666D01*
X130014285Y-57779285D01*
X130109523Y-57826904D01*
X130204761Y-57922142D01*
X130252380Y-58065000D01*
X130252380Y-58303095D01*
X130252380Y-56779285D02*
X130252380Y-57350714D01*
X130252380Y-57065000D02*
X129252380Y-57065000D01*
X129395238Y-57160238D01*
X129490476Y-57255476D01*
X129538095Y-57350714D01*
X131057142Y-86242857D02*
X131104761Y-86290476D01*
X131152380Y-86433333D01*
X131152380Y-86528571D01*
X131104761Y-86671428D01*
X131009523Y-86766666D01*
X130914285Y-86814285D01*
X130723809Y-86861904D01*
X130580952Y-86861904D01*
X130390476Y-86814285D01*
X130295238Y-86766666D01*
X130200000Y-86671428D01*
X130152380Y-86528571D01*
X130152380Y-86433333D01*
X130200000Y-86290476D01*
X130247619Y-86242857D01*
X131152380Y-85290476D02*
X131152380Y-85861904D01*
X131152380Y-85576190D02*
X130152380Y-85576190D01*
X130295238Y-85671428D01*
X130390476Y-85766666D01*
X130438095Y-85861904D01*
X130485714Y-84433333D02*
X131152380Y-84433333D01*
X130104761Y-84671428D02*
X130819047Y-84909523D01*
X130819047Y-84290476D01*
X142157142Y-53142857D02*
X142204761Y-53190476D01*
X142252380Y-53333333D01*
X142252380Y-53428571D01*
X142204761Y-53571428D01*
X142109523Y-53666666D01*
X142014285Y-53714285D01*
X141823809Y-53761904D01*
X141680952Y-53761904D01*
X141490476Y-53714285D01*
X141395238Y-53666666D01*
X141300000Y-53571428D01*
X141252380Y-53428571D01*
X141252380Y-53333333D01*
X141300000Y-53190476D01*
X141347619Y-53142857D01*
X142252380Y-52190476D02*
X142252380Y-52761904D01*
X142252380Y-52476190D02*
X141252380Y-52476190D01*
X141395238Y-52571428D01*
X141490476Y-52666666D01*
X141538095Y-52761904D01*
X141252380Y-51857142D02*
X141252380Y-51238095D01*
X141633333Y-51571428D01*
X141633333Y-51428571D01*
X141680952Y-51333333D01*
X141728571Y-51285714D01*
X141823809Y-51238095D01*
X142061904Y-51238095D01*
X142157142Y-51285714D01*
X142204761Y-51333333D01*
X142252380Y-51428571D01*
X142252380Y-51714285D01*
X142204761Y-51809523D01*
X142157142Y-51857142D01*
X185757142Y-88857142D02*
X185709523Y-88904761D01*
X185566666Y-88952380D01*
X185471428Y-88952380D01*
X185328571Y-88904761D01*
X185233333Y-88809523D01*
X185185714Y-88714285D01*
X185138095Y-88523809D01*
X185138095Y-88380952D01*
X185185714Y-88190476D01*
X185233333Y-88095238D01*
X185328571Y-88000000D01*
X185471428Y-87952380D01*
X185566666Y-87952380D01*
X185709523Y-88000000D01*
X185757142Y-88047619D01*
X186709523Y-88952380D02*
X186138095Y-88952380D01*
X186423809Y-88952380D02*
X186423809Y-87952380D01*
X186328571Y-88095238D01*
X186233333Y-88190476D01*
X186138095Y-88238095D01*
X187090476Y-88047619D02*
X187138095Y-88000000D01*
X187233333Y-87952380D01*
X187471428Y-87952380D01*
X187566666Y-88000000D01*
X187614285Y-88047619D01*
X187661904Y-88142857D01*
X187661904Y-88238095D01*
X187614285Y-88380952D01*
X187042857Y-88952380D01*
X187661904Y-88952380D01*
X144857142Y-52057142D02*
X144809523Y-52104761D01*
X144666666Y-52152380D01*
X144571428Y-52152380D01*
X144428571Y-52104761D01*
X144333333Y-52009523D01*
X144285714Y-51914285D01*
X144238095Y-51723809D01*
X144238095Y-51580952D01*
X144285714Y-51390476D01*
X144333333Y-51295238D01*
X144428571Y-51200000D01*
X144571428Y-51152380D01*
X144666666Y-51152380D01*
X144809523Y-51200000D01*
X144857142Y-51247619D01*
X145809523Y-52152380D02*
X145238095Y-52152380D01*
X145523809Y-52152380D02*
X145523809Y-51152380D01*
X145428571Y-51295238D01*
X145333333Y-51390476D01*
X145238095Y-51438095D01*
X146428571Y-51152380D02*
X146523809Y-51152380D01*
X146619047Y-51200000D01*
X146666666Y-51247619D01*
X146714285Y-51342857D01*
X146761904Y-51533333D01*
X146761904Y-51771428D01*
X146714285Y-51961904D01*
X146666666Y-52057142D01*
X146619047Y-52104761D01*
X146523809Y-52152380D01*
X146428571Y-52152380D01*
X146333333Y-52104761D01*
X146285714Y-52057142D01*
X146238095Y-51961904D01*
X146190476Y-51771428D01*
X146190476Y-51533333D01*
X146238095Y-51342857D01*
X146285714Y-51247619D01*
X146333333Y-51200000D01*
X146428571Y-51152380D01*
X145157142Y-81066666D02*
X145204761Y-81114285D01*
X145252380Y-81257142D01*
X145252380Y-81352380D01*
X145204761Y-81495238D01*
X145109523Y-81590476D01*
X145014285Y-81638095D01*
X144823809Y-81685714D01*
X144680952Y-81685714D01*
X144490476Y-81638095D01*
X144395238Y-81590476D01*
X144300000Y-81495238D01*
X144252380Y-81352380D01*
X144252380Y-81257142D01*
X144300000Y-81114285D01*
X144347619Y-81066666D01*
X144680952Y-80495238D02*
X144633333Y-80590476D01*
X144585714Y-80638095D01*
X144490476Y-80685714D01*
X144442857Y-80685714D01*
X144347619Y-80638095D01*
X144300000Y-80590476D01*
X144252380Y-80495238D01*
X144252380Y-80304761D01*
X144300000Y-80209523D01*
X144347619Y-80161904D01*
X144442857Y-80114285D01*
X144490476Y-80114285D01*
X144585714Y-80161904D01*
X144633333Y-80209523D01*
X144680952Y-80304761D01*
X144680952Y-80495238D01*
X144728571Y-80590476D01*
X144776190Y-80638095D01*
X144871428Y-80685714D01*
X145061904Y-80685714D01*
X145157142Y-80638095D01*
X145204761Y-80590476D01*
X145252380Y-80495238D01*
X145252380Y-80304761D01*
X145204761Y-80209523D01*
X145157142Y-80161904D01*
X145061904Y-80114285D01*
X144871428Y-80114285D01*
X144776190Y-80161904D01*
X144728571Y-80209523D01*
X144680952Y-80304761D01*
X132557142Y-47066666D02*
X132604761Y-47114285D01*
X132652380Y-47257142D01*
X132652380Y-47352380D01*
X132604761Y-47495238D01*
X132509523Y-47590476D01*
X132414285Y-47638095D01*
X132223809Y-47685714D01*
X132080952Y-47685714D01*
X131890476Y-47638095D01*
X131795238Y-47590476D01*
X131700000Y-47495238D01*
X131652380Y-47352380D01*
X131652380Y-47257142D01*
X131700000Y-47114285D01*
X131747619Y-47066666D01*
X131652380Y-46209523D02*
X131652380Y-46400000D01*
X131700000Y-46495238D01*
X131747619Y-46542857D01*
X131890476Y-46638095D01*
X132080952Y-46685714D01*
X132461904Y-46685714D01*
X132557142Y-46638095D01*
X132604761Y-46590476D01*
X132652380Y-46495238D01*
X132652380Y-46304761D01*
X132604761Y-46209523D01*
X132557142Y-46161904D01*
X132461904Y-46114285D01*
X132223809Y-46114285D01*
X132128571Y-46161904D01*
X132080952Y-46209523D01*
X132033333Y-46304761D01*
X132033333Y-46495238D01*
X132080952Y-46590476D01*
X132128571Y-46638095D01*
X132223809Y-46685714D01*
X130657142Y-65966666D02*
X130704761Y-66014285D01*
X130752380Y-66157142D01*
X130752380Y-66252380D01*
X130704761Y-66395238D01*
X130609523Y-66490476D01*
X130514285Y-66538095D01*
X130323809Y-66585714D01*
X130180952Y-66585714D01*
X129990476Y-66538095D01*
X129895238Y-66490476D01*
X129800000Y-66395238D01*
X129752380Y-66252380D01*
X129752380Y-66157142D01*
X129800000Y-66014285D01*
X129847619Y-65966666D01*
X129752380Y-65061904D02*
X129752380Y-65538095D01*
X130228571Y-65585714D01*
X130180952Y-65538095D01*
X130133333Y-65442857D01*
X130133333Y-65204761D01*
X130180952Y-65109523D01*
X130228571Y-65061904D01*
X130323809Y-65014285D01*
X130561904Y-65014285D01*
X130657142Y-65061904D01*
X130704761Y-65109523D01*
X130752380Y-65204761D01*
X130752380Y-65442857D01*
X130704761Y-65538095D01*
X130657142Y-65585714D01*
X182657142Y-74266666D02*
X182704761Y-74314285D01*
X182752380Y-74457142D01*
X182752380Y-74552380D01*
X182704761Y-74695238D01*
X182609523Y-74790476D01*
X182514285Y-74838095D01*
X182323809Y-74885714D01*
X182180952Y-74885714D01*
X181990476Y-74838095D01*
X181895238Y-74790476D01*
X181800000Y-74695238D01*
X181752380Y-74552380D01*
X181752380Y-74457142D01*
X181800000Y-74314285D01*
X181847619Y-74266666D01*
X182085714Y-73409523D02*
X182752380Y-73409523D01*
X181704761Y-73647619D02*
X182419047Y-73885714D01*
X182419047Y-73266666D01*
X184333333Y-78357142D02*
X184285714Y-78404761D01*
X184142857Y-78452380D01*
X184047619Y-78452380D01*
X183904761Y-78404761D01*
X183809523Y-78309523D01*
X183761904Y-78214285D01*
X183714285Y-78023809D01*
X183714285Y-77880952D01*
X183761904Y-77690476D01*
X183809523Y-77595238D01*
X183904761Y-77500000D01*
X184047619Y-77452380D01*
X184142857Y-77452380D01*
X184285714Y-77500000D01*
X184333333Y-77547619D01*
X184666666Y-77452380D02*
X185285714Y-77452380D01*
X184952380Y-77833333D01*
X185095238Y-77833333D01*
X185190476Y-77880952D01*
X185238095Y-77928571D01*
X185285714Y-78023809D01*
X185285714Y-78261904D01*
X185238095Y-78357142D01*
X185190476Y-78404761D01*
X185095238Y-78452380D01*
X184809523Y-78452380D01*
X184714285Y-78404761D01*
X184666666Y-78357142D01*
X141357142Y-74066666D02*
X141404761Y-74114285D01*
X141452380Y-74257142D01*
X141452380Y-74352380D01*
X141404761Y-74495238D01*
X141309523Y-74590476D01*
X141214285Y-74638095D01*
X141023809Y-74685714D01*
X140880952Y-74685714D01*
X140690476Y-74638095D01*
X140595238Y-74590476D01*
X140500000Y-74495238D01*
X140452380Y-74352380D01*
X140452380Y-74257142D01*
X140500000Y-74114285D01*
X140547619Y-74066666D01*
X140547619Y-73685714D02*
X140500000Y-73638095D01*
X140452380Y-73542857D01*
X140452380Y-73304761D01*
X140500000Y-73209523D01*
X140547619Y-73161904D01*
X140642857Y-73114285D01*
X140738095Y-73114285D01*
X140880952Y-73161904D01*
X141452380Y-73733333D01*
X141452380Y-73114285D01*
X134833333Y-58357142D02*
X134785714Y-58404761D01*
X134642857Y-58452380D01*
X134547619Y-58452380D01*
X134404761Y-58404761D01*
X134309523Y-58309523D01*
X134261904Y-58214285D01*
X134214285Y-58023809D01*
X134214285Y-57880952D01*
X134261904Y-57690476D01*
X134309523Y-57595238D01*
X134404761Y-57500000D01*
X134547619Y-57452380D01*
X134642857Y-57452380D01*
X134785714Y-57500000D01*
X134833333Y-57547619D01*
X135785714Y-58452380D02*
X135214285Y-58452380D01*
X135500000Y-58452380D02*
X135500000Y-57452380D01*
X135404761Y-57595238D01*
X135309523Y-57690476D01*
X135214285Y-57738095D01*
M02*
